<svg xmlns="http://www.w3.org/2000/svg" xmlns:xlink="http://www.w3.org/1999/xlink" version="1.1" id="Capa_1" x="0px" y="0px" viewBox="568.0350738525391 56.53500518798828 146.5298278808594 168.62998657226564" style="enable-background:new 0 0 1400 980;" xml:space="preserve" width="100%" height="100%">
<style type="text/css">
	.st0{fill:none;}
	.st1{fill:none;stroke:#FFFFFF;stroke-width:2.2677;}
	.st2{fill:none;stroke:#251E25;stroke-width:2.6;stroke-linecap:round;}
	.st3{display:none;}
	.st4{display:inline;fill:url(#_x31_0_lpi_10_x25__white);stroke:#5D8780;stroke-miterlimit:10;}
	.st5{display:inline;opacity:9.000000e-02;fill:url(#SVGID_1_);stroke:#5D8780;stroke-miterlimit:10;}
	.st6{opacity:0.66;}
	.st7{fill:#0B050C;}
	.st8{fill:#8F2427;}
	.st9{fill:#EE2E3C;}
	.st10{fill:#A0452D;}
	.st11{fill:#F3E61E;}
	.st12{fill:#FDB728;}
</style>
<pattern width="72" height="72" patternUnits="userSpaceOnUse" id="_x31_0_lpi_10_x25__white" viewBox="72.5 -142.4 72 72" style="overflow:visible;">
	<g>
		
		<g>
			<line class="st1" x1="139.7" y1="-73.5" x2="212.4" y2="-0.8"/>
			<line class="st1" x1="144.8" y1="-78.6" x2="217.5" y2="-5.9"/>
		</g>
		<g>
			<line class="st1" x1="67.7" y1="-73.5" x2="140.4" y2="-0.8"/>
			<line class="st1" x1="77.9" y1="-83.7" x2="150.6" y2="-11"/>
			<line class="st1" x1="88.1" y1="-93.9" x2="160.4" y2="-21.2"/>
			<line class="st1" x1="72.8" y1="-78.6" x2="145.5" y2="-5.9"/>
			<line class="st1" x1="83" y1="-88.8" x2="155.7" y2="-16.1"/>
			<line class="st1" x1="92.8" y1="-99" x2="165.2" y2="-26.3"/>
		</g>
		<g>
			<line class="st1" x1="5.9" y1="-83.7" x2="78.6" y2="-11"/>
			<line class="st1" x1="16.1" y1="-93.9" x2="88.4" y2="-21.2"/>
			<line class="st1" x1="0.8" y1="-78.6" x2="73.5" y2="-5.9"/>
			<line class="st1" x1="11" y1="-88.8" x2="83.7" y2="-16.1"/>
			<line class="st1" x1="20.8" y1="-99" x2="93.2" y2="-26.3"/>
		</g>
		<g>
			<line class="st1" x1="118.7" y1="-125.1" x2="191.4" y2="-52.4"/>
			<line class="st1" x1="128.6" y1="-135.3" x2="201.3" y2="-62.6"/>
			<line class="st1" x1="139.7" y1="-145.5" x2="212.4" y2="-72.8"/>
			<line class="st1" x1="123.5" y1="-130.2" x2="196.2" y2="-57.5"/>
			<line class="st1" x1="134.6" y1="-140.4" x2="207.3" y2="-67.7"/>
			<line class="st1" x1="144.8" y1="-150.6" x2="217.5" y2="-77.9"/>
		</g>
		<g>
			<line class="st1" x1="46.7" y1="-125.1" x2="119.4" y2="-52.4"/>
			<line class="st1" x1="56.6" y1="-135.3" x2="129.3" y2="-62.6"/>
			<line class="st1" x1="67.7" y1="-145.5" x2="140.4" y2="-72.8"/>
			<line class="st1" x1="77.9" y1="-155.7" x2="150.6" y2="-83"/>
			<line class="st1" x1="88.1" y1="-165.9" x2="160.4" y2="-93.2"/>
			<line class="st1" x1="51.5" y1="-130.2" x2="124.2" y2="-57.5"/>
			<line class="st1" x1="62.6" y1="-140.4" x2="135.3" y2="-67.7"/>
			<line class="st1" x1="72.8" y1="-150.6" x2="145.5" y2="-77.9"/>
			<line class="st1" x1="83" y1="-160.8" x2="155.7" y2="-88.1"/>
			<line class="st1" x1="92.8" y1="-171" x2="165.2" y2="-98.3"/>
		</g>
		<g>
			<line class="st1" x1="5.9" y1="-155.7" x2="78.6" y2="-83"/>
			<line class="st1" x1="16.1" y1="-165.9" x2="88.4" y2="-93.2"/>
			<line class="st1" x1="0.8" y1="-150.6" x2="73.5" y2="-77.9"/>
			<line class="st1" x1="11" y1="-160.8" x2="83.7" y2="-88.1"/>
			<line class="st1" x1="20.8" y1="-171" x2="93.2" y2="-98.3"/>
		</g>
		<g>
			<line class="st1" x1="118.7" y1="-197.1" x2="191.4" y2="-124.4"/>
			<line class="st1" x1="128.6" y1="-207.3" x2="201.3" y2="-134.6"/>
			<line class="st1" x1="123.5" y1="-202.2" x2="196.2" y2="-129.5"/>
			<line class="st1" x1="134.6" y1="-212.4" x2="207.3" y2="-139.7"/>
		</g>
		<g>
			<line class="st1" x1="46.7" y1="-197.1" x2="119.4" y2="-124.4"/>
			<line class="st1" x1="56.6" y1="-207.3" x2="129.3" y2="-134.6"/>
			<line class="st1" x1="51.5" y1="-202.2" x2="124.2" y2="-129.5"/>
			<line class="st1" x1="62.6" y1="-212.4" x2="135.3" y2="-139.7"/>
		</g>
	</g>
</pattern>
<pattern width="72" height="72" patternUnits="userSpaceOnUse" id="USGS_20_Scrub" viewBox="11.3 -74.5 72 72" style="overflow:visible;">
	<g>
		
		<line class="st2" x1="34.5" y1="-68.8" x2="34.5" y2="-68.8"/>
		<line class="st2" x1="22.8" y1="-73.8" x2="22.8" y2="-73.8"/>
		<line class="st2" x1="25.8" y1="-66.8" x2="25.8" y2="-66.8"/>
		<line class="st2" x1="26" y1="-71" x2="26" y2="-71"/>
		<line class="st2" x1="29" y1="-67" x2="29" y2="-67"/>
		<line class="st2" x1="31.3" y1="-70.5" x2="31.3" y2="-70.5"/>
		<line class="st2" x1="32.5" y1="-74" x2="32.5" y2="-74"/>
		<line class="st2" x1="40.3" y1="-69.5" x2="40.3" y2="-69.5"/>
		<line class="st2" x1="36.3" y1="-71.3" x2="36.3" y2="-71.3"/>
		<line class="st2" x1="28.3" y1="-73.3" x2="28.3" y2="-73.3"/>
		<line class="st2" x1="39" y1="-73.3" x2="39" y2="-73.3"/>
		<line class="st2" x1="43" y1="-72.3" x2="43" y2="-72.3"/>
		<line class="st2" x1="40.3" y1="-69.5" x2="40.3" y2="-69.5"/>
		<line class="st2" x1="39.5" y1="-66.8" x2="39.5" y2="-66.8"/>
		<line class="st2" x1="37.5" y1="-63.8" x2="37.5" y2="-63.8"/>
		<line class="st2" x1="33.5" y1="-65.5" x2="33.5" y2="-65.5"/>
		<line class="st2" x1="33.3" y1="-62" x2="33.3" y2="-62"/>
		<line class="st2" x1="28.3" y1="-63" x2="28.3" y2="-63"/>
		<line class="st2" x1="31.5" y1="-59.8" x2="31.5" y2="-59.8"/>
		<line class="st2" x1="34" y1="-56" x2="34" y2="-56"/>
		<line class="st2" x1="36.8" y1="-55.3" x2="36.8" y2="-55.3"/>
		<line class="st2" x1="39.8" y1="-57" x2="39.8" y2="-57"/>
		<line class="st2" x1="39.3" y1="-60.3" x2="39.3" y2="-60.3"/>
		<line class="st2" x1="41.3" y1="-62.5" x2="41.3" y2="-62.5"/>
		<line class="st2" x1="45.5" y1="-62.5" x2="45.5" y2="-62.5"/>
		<line class="st2" x1="43.8" y1="-57.8" x2="43.8" y2="-57.8"/>
		<line class="st2" x1="46" y1="-54.3" x2="46" y2="-54.3"/>
		<line class="st2" x1="42.5" y1="-54" x2="42.5" y2="-54"/>
		<line class="st2" x1="39" y1="-53.3" x2="39" y2="-53.3"/>
		<line class="st2" x1="48.5" y1="-58.8" x2="48.5" y2="-58.8"/>
		<line class="st2" x1="43.3" y1="-66" x2="43.3" y2="-66"/>
		<line class="st2" x1="45.3" y1="-69" x2="45.3" y2="-69"/>
		<line class="st2" x1="48" y1="-72.5" x2="48" y2="-72.5"/>
		<line class="st2" x1="48.8" y1="-69.3" x2="48.8" y2="-69.3"/>
		<line class="st2" x1="48.5" y1="-66.3" x2="48.5" y2="-66.3"/>
		<line class="st2" x1="48.8" y1="-62.5" x2="48.8" y2="-62.5"/>
		<line class="st2" x1="52.3" y1="-70.8" x2="52.3" y2="-70.8"/>
		<line class="st2" x1="53" y1="-67" x2="53" y2="-67"/>
		<line class="st2" x1="52.5" y1="-63" x2="52.5" y2="-63"/>
		<line class="st2" x1="52.8" y1="-58.5" x2="52.8" y2="-58.5"/>
		<line class="st2" x1="54.3" y1="-55" x2="54.3" y2="-55"/>
		<line class="st2" x1="49.5" y1="-55.3" x2="49.5" y2="-55.3"/>
		<line class="st2" x1="50.8" y1="-50.8" x2="50.8" y2="-50.8"/>
		<line class="st2" x1="46.5" y1="-51" x2="46.5" y2="-51"/>
		<line class="st2" x1="58.3" y1="-53.5" x2="58.3" y2="-53.5"/>
		<line class="st2" x1="57.3" y1="-57" x2="57.3" y2="-57"/>
		<line class="st2" x1="56.3" y1="-60.5" x2="56.3" y2="-60.5"/>
		<line class="st2" x1="56.5" y1="-64.5" x2="56.5" y2="-64.5"/>
		<line class="st2" x1="56.3" y1="-68.8" x2="56.3" y2="-68.8"/>
		<line class="st2" x1="56" y1="-72" x2="56" y2="-72"/>
		<line class="st2" x1="61" y1="-73" x2="61" y2="-73"/>
		<line class="st2" x1="60.3" y1="-68.8" x2="60.3" y2="-68.8"/>
		<line class="st2" x1="63.8" y1="-68.8" x2="63.8" y2="-68.8"/>
		<line class="st2" x1="63.5" y1="-65.3" x2="63.5" y2="-65.3"/>
		<line class="st2" x1="59.8" y1="-65.5" x2="59.8" y2="-65.5"/>
		<line class="st2" x1="60" y1="-61" x2="60" y2="-61"/>
		<line class="st2" x1="63.5" y1="-61" x2="63.5" y2="-61"/>
		<line class="st2" x1="60.8" y1="-57.5" x2="60.8" y2="-57.5"/>
		<line class="st2" x1="62.3" y1="-53.3" x2="62.3" y2="-53.3"/>
		<line class="st2" x1="64" y1="-50" x2="64" y2="-50"/>
		<line class="st2" x1="66.5" y1="-52.8" x2="66.5" y2="-52.8"/>
		<line class="st2" x1="65" y1="-56.3" x2="65" y2="-56.3"/>
		<line class="st2" x1="67.3" y1="-59.3" x2="67.3" y2="-59.3"/>
		<line class="st2" x1="67.5" y1="-63.5" x2="67.5" y2="-63.5"/>
		<line class="st2" x1="67.8" y1="-68.5" x2="67.8" y2="-68.5"/>
		<line class="st2" x1="71" y1="-67.5" x2="71" y2="-67.5"/>
		<line class="st2" x1="69.3" y1="-72" x2="69.3" y2="-72"/>
		<line class="st2" x1="73" y1="-71" x2="73" y2="-71"/>
		<line class="st2" x1="76.3" y1="-72.8" x2="76.3" y2="-72.8"/>
		<line class="st2" x1="78.3" y1="-70.8" x2="78.3" y2="-70.8"/>
		<line class="st2" x1="74.8" y1="-67.8" x2="74.8" y2="-67.8"/>
		<line class="st2" x1="74" y1="-64" x2="74" y2="-64"/>
		<line class="st2" x1="71.3" y1="-61.8" x2="71.3" y2="-61.8"/>
		<line class="st2" x1="73.8" y1="-59" x2="73.8" y2="-59"/>
		<line class="st2" x1="77.5" y1="-58" x2="77.5" y2="-58"/>
		<line class="st2" x1="75.5" y1="-55.8" x2="75.5" y2="-55.8"/>
		<line class="st2" x1="72" y1="-55.3" x2="72" y2="-55.3"/>
		<line class="st2" x1="69.3" y1="-55.8" x2="69.3" y2="-55.8"/>
		<line class="st2" x1="71" y1="-51.5" x2="71" y2="-51.5"/>
		<line class="st2" x1="75.5" y1="-52.8" x2="75.5" y2="-52.8"/>
		<line class="st2" x1="79.8" y1="-51.8" x2="79.8" y2="-51.8"/>
		<line class="st2" x1="79.8" y1="-55.3" x2="79.8" y2="-55.3"/>
		<line class="st2" x1="76.8" y1="-62" x2="76.8" y2="-62"/>
		<line class="st2" x1="77.5" y1="-65.8" x2="77.5" y2="-65.8"/>
		<line class="st2" x1="81" y1="-67.8" x2="81" y2="-67.8"/>
		<line class="st2" x1="82" y1="-72.5" x2="82" y2="-72.5"/>
		<line class="st2" x1="81" y1="-61.3" x2="81" y2="-61.3"/>
		<line class="st2" x1="82.8" y1="-57.8" x2="82.8" y2="-57.8"/>
		<line class="st2" x1="67.8" y1="-68.5" x2="67.8" y2="-68.5"/>
		<line class="st2" x1="69.3" y1="-72" x2="69.3" y2="-72"/>
		<line class="st2" x1="66.3" y1="-74.3" x2="66.3" y2="-74.3"/>
		<line class="st2" x1="65.3" y1="-71.3" x2="65.3" y2="-71.3"/>
		<line class="st2" x1="35.3" y1="-51.8" x2="35.3" y2="-51.8"/>
		<line class="st2" x1="31.3" y1="-54.5" x2="31.3" y2="-54.5"/>
		<line class="st2" x1="27.3" y1="-53.5" x2="27.3" y2="-53.5"/>
		<line class="st2" x1="28.3" y1="-57.5" x2="28.3" y2="-57.5"/>
		<line class="st2" x1="26" y1="-60.5" x2="26" y2="-60.5"/>
		<line class="st2" x1="23.8" y1="-63.3" x2="23.8" y2="-63.3"/>
		<line class="st2" x1="23.8" y1="-57" x2="23.8" y2="-57"/>
		<line class="st2" x1="27.3" y1="-53.5" x2="27.3" y2="-53.5"/>
		<line class="st2" x1="29.8" y1="-51.3" x2="29.8" y2="-51.3"/>
		<line class="st2" x1="25.3" y1="-49.8" x2="25.3" y2="-49.8"/>
		<line class="st2" x1="22.8" y1="-52.8" x2="22.8" y2="-52.8"/>
		<line class="st2" x1="35.3" y1="-59.3" x2="35.3" y2="-59.3"/>
		<line class="st2" x1="13.3" y1="-68.8" x2="13.3" y2="-68.8"/>
		<line class="st2" x1="11.8" y1="-65.5" x2="11.8" y2="-65.5"/>
		<line class="st2" x1="12" y1="-62.3" x2="12" y2="-62.3"/>
		<line class="st2" x1="14.5" y1="-59.3" x2="14.5" y2="-59.3"/>
		<line class="st2" x1="10.8" y1="-57.8" x2="10.8" y2="-57.8"/>
		<line class="st2" x1="12.3" y1="-55" x2="12.3" y2="-55"/>
		<line class="st2" x1="11.5" y1="-51.8" x2="11.5" y2="-51.8"/>
		<line class="st2" x1="16.5" y1="-56" x2="16.5" y2="-56"/>
		<line class="st2" x1="15" y1="-62.8" x2="15" y2="-62.8"/>
		<line class="st2" x1="19" y1="-73.8" x2="19" y2="-73.8"/>
		<line class="st2" x1="20.3" y1="-70" x2="20.3" y2="-70"/>
		<line class="st2" x1="17" y1="-69.5" x2="17" y2="-69.5"/>
		<line class="st2" x1="17.3" y1="-66.3" x2="17.3" y2="-66.3"/>
		<line class="st2" x1="22" y1="-67" x2="22" y2="-67"/>
		<line class="st2" x1="15" y1="-72.3" x2="15" y2="-72.3"/>
		<line class="st2" x1="18.3" y1="-61.5" x2="18.3" y2="-61.5"/>
		<line class="st2" x1="21" y1="-63.8" x2="21" y2="-63.8"/>
		<line class="st2" x1="21" y1="-59.8" x2="21" y2="-59.8"/>
		<line class="st2" x1="23.8" y1="-57" x2="23.8" y2="-57"/>
		<line class="st2" x1="19.5" y1="-55.3" x2="19.5" y2="-55.3"/>
		<line class="st2" x1="17" y1="-49.8" x2="17" y2="-49.8"/>
		<line class="st2" x1="16.3" y1="-52.8" x2="16.3" y2="-52.8"/>
		<line class="st2" x1="26.3" y1="-4" x2="26.3" y2="-4"/>
		<line class="st2" x1="26.3" y1="-4" x2="26.3" y2="-4"/>
		<line class="st2" x1="29.8" y1="-5" x2="29.8" y2="-5"/>
		<line class="st2" x1="35.3" y1="-4" x2="35.3" y2="-4"/>
		<line class="st2" x1="40.5" y1="-4.5" x2="40.5" y2="-4.5"/>
		<line class="st2" x1="44" y1="-4" x2="44" y2="-4"/>
		<line class="st2" x1="49" y1="-4.5" x2="49" y2="-4.5"/>
		<line class="st2" x1="56.3" y1="-7.3" x2="56.3" y2="-7.3"/>
		<line class="st2" x1="61" y1="-5.5" x2="61" y2="-5.5"/>
		<line class="st2" x1="71" y1="-4" x2="71" y2="-4"/>
		<line class="st2" x1="79" y1="-3.3" x2="79" y2="-3.3"/>
		<line class="st2" x1="66.3" y1="-2.3" x2="66.3" y2="-2.3"/>
		<line class="st2" x1="65" y1="-6" x2="65" y2="-6"/>
		<line class="st2" x1="12" y1="-3.8" x2="12" y2="-3.8"/>
		<line class="st2" x1="21.5" y1="-5" x2="21.5" y2="-5"/>
		<line class="st2" x1="17" y1="-4.8" x2="17" y2="-4.8"/>
		<line class="st2" x1="33.3" y1="-49" x2="33.3" y2="-49"/>
		<line class="st2" x1="37.8" y1="-48" x2="37.8" y2="-48"/>
		<line class="st2" x1="41.5" y1="-50" x2="41.5" y2="-50"/>
		<line class="st2" x1="40.3" y1="-46" x2="40.3" y2="-46"/>
		<line class="st2" x1="37.5" y1="-44" x2="37.5" y2="-44"/>
		<line class="st2" x1="34" y1="-44.8" x2="34" y2="-44.8"/>
		<line class="st2" x1="30.8" y1="-44" x2="30.8" y2="-44"/>
		<line class="st2" x1="29.3" y1="-47.8" x2="29.3" y2="-47.8"/>
		<line class="st2" x1="27.3" y1="-45.3" x2="27.3" y2="-45.3"/>
		<line class="st2" x1="24" y1="-46.5" x2="24" y2="-46.5"/>
		<line class="st2" x1="20.8" y1="-45" x2="20.8" y2="-45"/>
		<line class="st2" x1="19.8" y1="-41.8" x2="19.8" y2="-41.8"/>
		<line class="st2" x1="21.3" y1="-37.5" x2="21.3" y2="-37.5"/>
		<line class="st2" x1="23.8" y1="-40" x2="23.8" y2="-40"/>
		<line class="st2" x1="26.5" y1="-42.5" x2="26.5" y2="-42.5"/>
		<line class="st2" x1="30.3" y1="-40.3" x2="30.3" y2="-40.3"/>
		<line class="st2" x1="27.3" y1="-37.8" x2="27.3" y2="-37.8"/>
		<line class="st2" x1="24.3" y1="-35" x2="24.3" y2="-35"/>
		<line class="st2" x1="21" y1="-33.3" x2="21" y2="-33.3"/>
		<line class="st2" x1="21.3" y1="-37.5" x2="21.3" y2="-37.5"/>
		<line class="st2" x1="18" y1="-36" x2="18" y2="-36"/>
		<line class="st2" x1="17" y1="-40.5" x2="17" y2="-40.5"/>
		<line class="st2" x1="16.8" y1="-45.8" x2="16.8" y2="-45.8"/>
		<line class="st2" x1="13.8" y1="-43.8" x2="13.8" y2="-43.8"/>
		<line class="st2" x1="13" y1="-39.8" x2="13" y2="-39.8"/>
		<line class="st2" x1="10.5" y1="-46.8" x2="10.5" y2="-46.8"/>
		<line class="st2" x1="13" y1="-48.3" x2="13" y2="-48.3"/>
		<line class="st2" x1="10.8" y1="-36.8" x2="10.8" y2="-36.8"/>
		<line class="st2" x1="14.3" y1="-36.3" x2="14.3" y2="-36.3"/>
		<line class="st2" x1="14.8" y1="-32.5" x2="14.8" y2="-32.5"/>
		<line class="st2" x1="10" y1="-32.8" x2="10" y2="-32.8"/>
		<line class="st2" x1="12.5" y1="-29.3" x2="12.5" y2="-29.3"/>
		<line class="st2" x1="14" y1="-26.5" x2="14" y2="-26.5"/>
		<line class="st2" x1="15" y1="-23.5" x2="15" y2="-23.5"/>
		<line class="st2" x1="18.5" y1="-25.5" x2="18.5" y2="-25.5"/>
		<line class="st2" x1="16.8" y1="-29.5" x2="16.8" y2="-29.5"/>
		<line class="st2" x1="20.8" y1="-29" x2="20.8" y2="-29"/>
		<line class="st2" x1="23.3" y1="-26" x2="23.3" y2="-26"/>
		<line class="st2" x1="26.3" y1="-25" x2="26.3" y2="-25"/>
		<line class="st2" x1="29" y1="-23.5" x2="29" y2="-23.5"/>
		<line class="st2" x1="23.8" y1="-30.3" x2="23.8" y2="-30.3"/>
		<line class="st2" x1="27.3" y1="-29" x2="27.3" y2="-29"/>
		<line class="st2" x1="30.5" y1="-28" x2="30.5" y2="-28"/>
		<line class="st2" x1="27.5" y1="-33.5" x2="27.5" y2="-33.5"/>
		<line class="st2" x1="31.5" y1="-32.5" x2="31.5" y2="-32.5"/>
		<line class="st2" x1="32.3" y1="-36.8" x2="32.3" y2="-36.8"/>
		<line class="st2" x1="34.8" y1="-33.8" x2="34.8" y2="-33.8"/>
		<line class="st2" x1="37.5" y1="-36.3" x2="37.5" y2="-36.3"/>
		<line class="st2" x1="33.8" y1="-29.8" x2="33.8" y2="-29.8"/>
		<line class="st2" x1="37.3" y1="-27.8" x2="37.3" y2="-27.8"/>
		<line class="st2" x1="37.3" y1="-23.8" x2="37.3" y2="-23.8"/>
		<line class="st2" x1="33.3" y1="-25.5" x2="33.3" y2="-25.5"/>
		<line class="st2" x1="40.8" y1="-26.8" x2="40.8" y2="-26.8"/>
		<line class="st2" x1="42.8" y1="-30" x2="42.8" y2="-30"/>
		<line class="st2" x1="41.5" y1="-34" x2="41.5" y2="-34"/>
		<line class="st2" x1="41.5" y1="-38" x2="41.5" y2="-38"/>
		<line class="st2" x1="38.3" y1="-39.8" x2="38.3" y2="-39.8"/>
		<line class="st2" x1="34.8" y1="-39.8" x2="34.8" y2="-39.8"/>
		<line class="st2" x1="41.3" y1="-43.3" x2="41.3" y2="-43.3"/>
		<line class="st2" x1="44.3" y1="-40.5" x2="44.3" y2="-40.5"/>
		<line class="st2" x1="47.3" y1="-40" x2="47.3" y2="-40"/>
		<line class="st2" x1="44.8" y1="-36" x2="44.8" y2="-36"/>
		<line class="st2" x1="45.8" y1="-32.3" x2="45.8" y2="-32.3"/>
		<line class="st2" x1="42.8" y1="-30" x2="42.8" y2="-30"/>
		<line class="st2" x1="46" y1="-28.5" x2="46" y2="-28.5"/>
		<line class="st2" x1="49" y1="-24.3" x2="49" y2="-24.3"/>
		<line class="st2" x1="44" y1="-25.3" x2="44" y2="-25.3"/>
		<line class="st2" x1="49.8" y1="-28.3" x2="49.8" y2="-28.3"/>
		<line class="st2" x1="49.5" y1="-32.8" x2="49.5" y2="-32.8"/>
		<line class="st2" x1="48.8" y1="-36.3" x2="48.8" y2="-36.3"/>
		<line class="st2" x1="44.3" y1="-40.5" x2="44.3" y2="-40.5"/>
		<line class="st2" x1="47.3" y1="-40" x2="47.3" y2="-40"/>
		<line class="st2" x1="45" y1="-43.8" x2="45" y2="-43.8"/>
		<line class="st2" x1="44.5" y1="-47.8" x2="44.5" y2="-47.8"/>
		<line class="st2" x1="48.3" y1="-47.5" x2="48.3" y2="-47.5"/>
		<line class="st2" x1="49" y1="-43" x2="49" y2="-43"/>
		<line class="st2" x1="51.3" y1="-39.8" x2="51.3" y2="-39.8"/>
		<line class="st2" x1="54.3" y1="-37.3" x2="54.3" y2="-37.3"/>
		<line class="st2" x1="53.8" y1="-33.5" x2="53.8" y2="-33.5"/>
		<line class="st2" x1="53" y1="-29.8" x2="53" y2="-29.8"/>
		<line class="st2" x1="55" y1="-26.3" x2="55" y2="-26.3"/>
		<line class="st2" x1="58" y1="-29.3" x2="58" y2="-29.3"/>
		<line class="st2" x1="58" y1="-24.8" x2="58" y2="-24.8"/>
		<line class="st2" x1="57.8" y1="-34" x2="57.8" y2="-34"/>
		<line class="st2" x1="59" y1="-37" x2="59" y2="-37"/>
		<line class="st2" x1="55.8" y1="-41" x2="55.8" y2="-41"/>
		<line class="st2" x1="54" y1="-43.5" x2="54" y2="-43.5"/>
		<line class="st2" x1="52" y1="-45.8" x2="52" y2="-45.8"/>
		<line class="st2" x1="55.3" y1="-47.8" x2="55.3" y2="-47.8"/>
		<line class="st2" x1="54.3" y1="-51.8" x2="54.3" y2="-51.8"/>
		<line class="st2" x1="59" y1="-49" x2="59" y2="-49"/>
		<line class="st2" x1="57.8" y1="-44.8" x2="57.8" y2="-44.8"/>
		<line class="st2" x1="59.8" y1="-41.5" x2="59.8" y2="-41.5"/>
		<line class="st2" x1="63" y1="-39" x2="63" y2="-39"/>
		<line class="st2" x1="62.8" y1="-35" x2="62.8" y2="-35"/>
		<line class="st2" x1="61.8" y1="-31" x2="61.8" y2="-31"/>
		<line class="st2" x1="65.5" y1="-31.8" x2="65.5" y2="-31.8"/>
		<line class="st2" x1="65.3" y1="-27.3" x2="65.3" y2="-27.3"/>
		<line class="st2" x1="68" y1="-24.3" x2="68" y2="-24.3"/>
		<line class="st2" x1="68.8" y1="-29" x2="68.8" y2="-29"/>
		<line class="st2" x1="68.8" y1="-32.8" x2="68.8" y2="-32.8"/>
		<line class="st2" x1="67.8" y1="-36.8" x2="67.8" y2="-36.8"/>
		<line class="st2" x1="38.5" y1="-31.8" x2="38.5" y2="-31.8"/>
		<line class="st2" x1="81.5" y1="-42.5" x2="81.5" y2="-42.5"/>
		<line class="st2" x1="82.5" y1="-46.8" x2="82.5" y2="-46.8"/>
		<line class="st2" x1="79.3" y1="-48.5" x2="79.3" y2="-48.5"/>
		<line class="st2" x1="79.5" y1="-39.3" x2="79.5" y2="-39.3"/>
		<line class="st2" x1="79.3" y1="-35.5" x2="79.3" y2="-35.5"/>
		<line class="st2" x1="82.8" y1="-36.8" x2="82.8" y2="-36.8"/>
		<line class="st2" x1="82" y1="-32.8" x2="82" y2="-32.8"/>
		<line class="st2" x1="81.3" y1="-25.3" x2="81.3" y2="-25.3"/>
		<line class="st2" x1="80.3" y1="-28.8" x2="80.3" y2="-28.8"/>
		<line class="st2" x1="77.8" y1="-44.8" x2="77.8" y2="-44.8"/>
		<line class="st2" x1="74.3" y1="-44.5" x2="74.3" y2="-44.5"/>
		<line class="st2" x1="75.3" y1="-49.3" x2="75.3" y2="-49.3"/>
		<line class="st2" x1="71.8" y1="-47.8" x2="71.8" y2="-47.8"/>
		<line class="st2" x1="68" y1="-48.8" x2="68" y2="-48.8"/>
		<line class="st2" x1="64.5" y1="-47" x2="64.5" y2="-47"/>
		<line class="st2" x1="61.5" y1="-46" x2="61.5" y2="-46"/>
		<line class="st2" x1="63.8" y1="-42.3" x2="63.8" y2="-42.3"/>
		<line class="st2" x1="68" y1="-44.8" x2="68" y2="-44.8"/>
		<line class="st2" x1="71" y1="-41.8" x2="71" y2="-41.8"/>
		<line class="st2" x1="67.3" y1="-40.3" x2="67.3" y2="-40.3"/>
		<line class="st2" x1="71.3" y1="-37.5" x2="71.3" y2="-37.5"/>
		<line class="st2" x1="75.8" y1="-41" x2="75.8" y2="-41"/>
		<line class="st2" x1="75.5" y1="-37.8" x2="75.5" y2="-37.8"/>
		<line class="st2" x1="72.8" y1="-33.5" x2="72.8" y2="-33.5"/>
		<line class="st2" x1="74" y1="-29.5" x2="74" y2="-29.5"/>
		<line class="st2" x1="68.8" y1="-29" x2="68.8" y2="-29"/>
		<line class="st2" x1="71.5" y1="-26.8" x2="71.5" y2="-26.8"/>
		<line class="st2" x1="77" y1="-26.5" x2="77" y2="-26.5"/>
		<line class="st2" x1="76.8" y1="-32.3" x2="76.8" y2="-32.3"/>
		<line class="st2" x1="61.3" y1="-26.8" x2="61.3" y2="-26.8"/>
		<line class="st2" x1="73" y1="-23" x2="73" y2="-23"/>
		<line class="st2" x1="18" y1="-17" x2="18" y2="-17"/>
		<line class="st2" x1="19" y1="-21.5" x2="19" y2="-21.5"/>
		<line class="st2" x1="22.3" y1="-22.8" x2="22.3" y2="-22.8"/>
		<line class="st2" x1="21.3" y1="-18.8" x2="21.3" y2="-18.8"/>
		<line class="st2" x1="24.8" y1="-16.8" x2="24.8" y2="-16.8"/>
		<line class="st2" x1="24.8" y1="-12.8" x2="24.8" y2="-12.8"/>
		<line class="st2" x1="20.8" y1="-14.5" x2="20.8" y2="-14.5"/>
		<line class="st2" x1="28.3" y1="-15.8" x2="28.3" y2="-15.8"/>
		<line class="st2" x1="28.5" y1="-12.8" x2="28.5" y2="-12.8"/>
		<line class="st2" x1="30.3" y1="-19" x2="30.3" y2="-19"/>
		<line class="st2" x1="33.3" y1="-21.3" x2="33.3" y2="-21.3"/>
		<line class="st2" x1="30.3" y1="-19" x2="30.3" y2="-19"/>
		<line class="st2" x1="33.5" y1="-17.5" x2="33.5" y2="-17.5"/>
		<line class="st2" x1="36.5" y1="-13.3" x2="36.5" y2="-13.3"/>
		<line class="st2" x1="31.5" y1="-14.3" x2="31.5" y2="-14.3"/>
		<line class="st2" x1="37.3" y1="-16.3" x2="37.3" y2="-16.3"/>
		<line class="st2" x1="37" y1="-20.8" x2="37" y2="-20.8"/>
		<line class="st2" x1="41.3" y1="-22.5" x2="41.3" y2="-22.5"/>
		<line class="st2" x1="40.5" y1="-19.5" x2="40.5" y2="-19.5"/>
		<line class="st2" x1="41.8" y1="-15.8" x2="41.8" y2="-15.8"/>
		<line class="st2" x1="45.5" y1="-18.3" x2="45.5" y2="-18.3"/>
		<line class="st2" x1="45.3" y1="-12.8" x2="45.3" y2="-12.8"/>
		<line class="st2" x1="45.8" y1="-21.8" x2="45.8" y2="-21.8"/>
		<line class="st2" x1="49.3" y1="-20" x2="49.3" y2="-20"/>
		<line class="st2" x1="26" y1="-20.8" x2="26" y2="-20.8"/>
		<line class="st2" x1="48.3" y1="-16" x2="48.3" y2="-16"/>
		<line class="st2" x1="12" y1="-9.3" x2="12" y2="-9.3"/>
		<line class="st2" x1="14.8" y1="-10.5" x2="14.8" y2="-10.5"/>
		<line class="st2" x1="13.8" y1="-6.5" x2="13.8" y2="-6.5"/>
		<line class="st2" x1="22.8" y1="-6.8" x2="22.8" y2="-6.8"/>
		<line class="st2" x1="21.5" y1="-10.8" x2="21.5" y2="-10.8"/>
		<line class="st2" x1="25.8" y1="-9" x2="25.8" y2="-9"/>
		<line class="st2" x1="22.8" y1="-6.8" x2="22.8" y2="-6.8"/>
		<line class="st2" x1="29.5" y1="-9.5" x2="29.5" y2="-9.5"/>
		<line class="st2" x1="33.8" y1="-10.3" x2="33.8" y2="-10.3"/>
		<line class="st2" x1="33" y1="-7.3" x2="33" y2="-7.3"/>
		<line class="st2" x1="38" y1="-6" x2="38" y2="-6"/>
		<line class="st2" x1="38.3" y1="-9.5" x2="38.3" y2="-9.5"/>
		<line class="st2" x1="42.3" y1="-7" x2="42.3" y2="-7"/>
		<line class="st2" x1="45.5" y1="-8.5" x2="45.5" y2="-8.5"/>
		<line class="st2" x1="18.5" y1="-8.5" x2="18.5" y2="-8.5"/>
		<line class="st2" x1="52.8" y1="-23.5" x2="52.8" y2="-23.5"/>
		<line class="st2" x1="55.3" y1="-17.3" x2="55.3" y2="-17.3"/>
		<line class="st2" x1="55.8" y1="-21.3" x2="55.8" y2="-21.3"/>
		<line class="st2" x1="60.5" y1="-22.3" x2="60.5" y2="-22.3"/>
		<line class="st2" x1="61.3" y1="-17.5" x2="61.3" y2="-17.5"/>
		<line class="st2" x1="58.3" y1="-14.8" x2="58.3" y2="-14.8"/>
		<line class="st2" x1="55" y1="-13" x2="55" y2="-13"/>
		<line class="st2" x1="55.3" y1="-17.3" x2="55.3" y2="-17.3"/>
		<line class="st2" x1="53" y1="-9.8" x2="53" y2="-9.8"/>
		<line class="st2" x1="57.8" y1="-10" x2="57.8" y2="-10"/>
		<line class="st2" x1="61.3" y1="-8.8" x2="61.3" y2="-8.8"/>
		<line class="st2" x1="61.5" y1="-13.3" x2="61.5" y2="-13.3"/>
		<line class="st2" x1="11.5" y1="-18.5" x2="11.5" y2="-18.5"/>
		<line class="st2" x1="14.5" y1="-14.8" x2="14.5" y2="-14.8"/>
		<line class="st2" x1="15" y1="-19.5" x2="15" y2="-19.5"/>
		<line class="st2" x1="81.3" y1="-6.8" x2="81.3" y2="-6.8"/>
		<line class="st2" x1="78" y1="-8.3" x2="78" y2="-8.3"/>
		<line class="st2" x1="84" y1="-9.3" x2="84" y2="-9.3"/>
		<line class="st2" x1="80.8" y1="-22" x2="80.8" y2="-22"/>
		<line class="st2" x1="80.5" y1="-16.8" x2="80.5" y2="-16.8"/>
		<line class="st2" x1="80.8" y1="-22" x2="80.8" y2="-22"/>
		<line class="st2" x1="82.3" y1="-13" x2="82.3" y2="-13"/>
		<line class="st2" x1="50.5" y1="-12.5" x2="50.5" y2="-12.5"/>
		<line class="st2" x1="49" y1="-9.5" x2="49" y2="-9.5"/>
		<line class="st2" x1="64.3" y1="-15.3" x2="64.3" y2="-15.3"/>
		<line class="st2" x1="67.3" y1="-14.8" x2="67.3" y2="-14.8"/>
		<line class="st2" x1="64.8" y1="-10.8" x2="64.8" y2="-10.8"/>
		<line class="st2" x1="68.8" y1="-11" x2="68.8" y2="-11"/>
		<line class="st2" x1="64.3" y1="-15.3" x2="64.3" y2="-15.3"/>
		<line class="st2" x1="67.3" y1="-14.8" x2="67.3" y2="-14.8"/>
		<line class="st2" x1="65" y1="-19.3" x2="65" y2="-19.3"/>
		<line class="st2" x1="69" y1="-17.8" x2="69" y2="-17.8"/>
		<line class="st2" x1="71.3" y1="-14.5" x2="71.3" y2="-14.5"/>
		<line class="st2" x1="73.3" y1="-12.3" x2="73.3" y2="-12.3"/>
		<line class="st2" x1="73.8" y1="-8.3" x2="73.8" y2="-8.3"/>
		<line class="st2" x1="75.8" y1="-15.8" x2="75.8" y2="-15.8"/>
		<line class="st2" x1="74" y1="-18.3" x2="74" y2="-18.3"/>
		<line class="st2" x1="69.8" y1="-21.3" x2="69.8" y2="-21.3"/>
		<line class="st2" x1="77.8" y1="-19.5" x2="77.8" y2="-19.5"/>
		<line class="st2" x1="78" y1="-12.3" x2="78" y2="-12.3"/>
		<line class="st2" x1="64.8" y1="-22.8" x2="64.8" y2="-22.8"/>
		<line class="st2" x1="69.5" y1="-7.5" x2="69.5" y2="-7.5"/>
		<line class="st2" x1="75.5" y1="-5.5" x2="75.5" y2="-5.5"/>
		<line class="st2" x1="76.5" y1="-23" x2="76.5" y2="-23"/>
		<line class="st2" x1="20.8" y1="-49.5" x2="20.8" y2="-49.5"/>
		<line class="st2" x1="17" y1="-13" x2="17" y2="-13"/>
		<line class="st2" x1="41.5" y1="-12" x2="41.5" y2="-12"/>
		<line class="st2" x1="51.8" y1="-17.5" x2="51.8" y2="-17.5"/>
		<line class="st2" x1="58.5" y1="-19" x2="58.5" y2="-19"/>
		<line class="st2" x1="52.3" y1="-3" x2="52.3" y2="-3"/>
		<line class="st2" x1="52.3" y1="-75" x2="52.3" y2="-75"/>
		<line class="st2" x1="79" y1="-75.3" x2="79" y2="-75.3"/>
		<line class="st2" x1="66.3" y1="-74.3" x2="66.3" y2="-74.3"/>
		<line class="st2" x1="22.8" y1="-1.8" x2="22.8" y2="-1.8"/>
		<line class="st2" x1="32.5" y1="-2" x2="32.5" y2="-2"/>
		<line class="st2" x1="28.3" y1="-1.3" x2="28.3" y2="-1.3"/>
		<line class="st2" x1="39" y1="-1.3" x2="39" y2="-1.3"/>
		<line class="st2" x1="66.3" y1="-2.3" x2="66.3" y2="-2.3"/>
		<line class="st2" x1="19" y1="-1.8" x2="19" y2="-1.8"/>
		<line class="st2" x1="66.3" y1="-2.3" x2="66.3" y2="-2.3"/>
		<line class="st2" x1="83.8" y1="-65.5" x2="83.8" y2="-65.5"/>
		<line class="st2" x1="84" y1="-62.3" x2="84" y2="-62.3"/>
		<line class="st2" x1="84.3" y1="-55" x2="84.3" y2="-55"/>
		<line class="st2" x1="83.5" y1="-51.8" x2="83.5" y2="-51.8"/>
		<line class="st2" x1="84" y1="-3.8" x2="84" y2="-3.8"/>
		<line class="st2" x1="10" y1="-72.5" x2="10" y2="-72.5"/>
		<line class="st2" x1="12.5" y1="-22.5" x2="12.5" y2="-22.5"/>
		<line class="st2" x1="12" y1="-75.8" x2="12" y2="-75.8"/>
		<line class="st2" x1="84.5" y1="-29.3" x2="84.5" y2="-29.3"/>
		<line class="st2" x1="83.5" y1="-18.5" x2="83.5" y2="-18.5"/>
		<line class="st2" x1="84.5" y1="-22.5" x2="84.5" y2="-22.5"/>
		<line class="st2" x1="57.5" y1="-4" x2="57.5" y2="-4"/>
		<line class="st2" x1="51.8" y1="-6.5" x2="51.8" y2="-6.5"/>
		<line class="st2" x1="10.3" y1="-13" x2="10.3" y2="-13"/>
		
	</g>
</pattern>
<g class="st3">
	
	<pattern id="SVGID_1_" xlink:href="#USGS_20_Scrub" patternTransform="matrix(1 0 0 1 0 144.4111)">
	</pattern>
	
</g>



<g>
	<g class="st6">
		<path class="st7" d="M615.4,217.5c-4.3,0-8.8-0.1-13.5-0.4c-4.6-0.2-9.5-0.6-14.5-1.1l-5.7-0.5l5.8-137.8l3.6-1.5    c5.1-2.1,10.3-3.6,15.6-4.6c5.3-1,10.7-1.5,16.1-1.5c10.4,0,20.7,1.8,30.7,5.3c10,3.5,19.1,8.7,27,15.4c7.9,6.8,14.4,15,19.1,24.5    c4.9,9.6,7.3,20.6,7.3,32.6c0,23.2-8.1,40.9-24,52.6C667.5,211.8,644.8,217.5,615.4,217.5z M630.8,169.1c3-0.1,6-0.7,8.9-1.6    c3.1-1.1,6-2.7,8.5-4.8c2.4-2,4.3-4.6,5.9-7.7c1.5-3.1,2.2-6.8,2.2-11.2c0-6.8-2.2-11.7-6.6-15.2c-4.2-3.3-9.8-5.1-16.7-5.6    L630.8,169.1z"/>
		<path class="st7" d="M614.4,216.5c-4.3,0-8.8-0.1-13.5-0.4c-4.6-0.2-9.5-0.6-14.5-1.1l-5.7-0.5l5.8-137.8l3.6-1.5    c5.1-2.1,10.3-3.6,15.6-4.6c5.3-1,10.7-1.5,16.1-1.5c10.4,0,20.7,1.8,30.7,5.3c10,3.5,19.1,8.7,27,15.4c7.9,6.8,14.4,15,19.1,24.5    c4.9,9.6,7.3,20.6,7.3,32.6c0,23.2-8.1,40.9-24,52.6C666.5,210.8,643.8,216.5,614.4,216.5z M629.8,168.1c3-0.1,6-0.7,8.9-1.6    c3.1-1.1,6-2.7,8.5-4.8c2.4-2,4.3-4.6,5.9-7.7c1.5-3.1,2.2-6.8,2.2-11.2c0-6.8-2.2-11.7-6.6-15.2c-4.2-3.3-9.8-5.1-16.7-5.6    L629.8,168.1z"/>
		<path class="st7" d="M613.4,215.5c-4.3,0-8.8-0.1-13.5-0.4c-4.6-0.2-9.5-0.6-14.5-1.1l-5.7-0.5l5.8-137.8l3.6-1.5    c5.1-2.1,10.3-3.6,15.6-4.6c5.3-1,10.7-1.5,16.1-1.5c10.4,0,20.7,1.8,30.7,5.3c10,3.5,19.1,8.7,27,15.4c7.9,6.8,14.4,15,19.1,24.5    c4.9,9.6,7.3,20.6,7.3,32.6c0,23.2-8.1,40.9-24,52.6C665.5,209.8,642.8,215.5,613.4,215.5z M628.8,167.1c3-0.1,6-0.7,8.9-1.6    c3.1-1.1,6-2.7,8.5-4.8c2.4-2,4.3-4.6,5.9-7.7c1.5-3.1,2.2-6.8,2.2-11.2c0-6.8-2.2-11.7-6.6-15.2c-4.2-3.3-9.8-5.1-16.7-5.6    L628.8,167.1z"/>
		<path class="st7" d="M612.4,214.5c-4.3,0-8.8-0.1-13.5-0.4c-4.6-0.2-9.5-0.6-14.5-1.1l-5.7-0.5l5.8-137.8l3.6-1.5    c5.1-2.1,10.3-3.6,15.6-4.6c5.3-1,10.7-1.5,16.1-1.5c10.4,0,20.7,1.8,30.7,5.3c10,3.5,19.1,8.7,27,15.4c7.9,6.8,14.4,15,19.1,24.5    c4.9,9.6,7.3,20.6,7.3,32.6c0,23.2-8.1,40.9-24,52.6C664.5,208.8,641.8,214.5,612.4,214.5z M627.8,166.1c3-0.1,6-0.7,8.9-1.6    c3.1-1.1,6-2.7,8.5-4.8c2.4-2,4.3-4.6,5.9-7.7c1.5-3.1,2.2-6.8,2.2-11.2c0-6.8-2.2-11.7-6.6-15.2c-4.2-3.3-9.8-5.1-16.7-5.6    L627.8,166.1z"/>
		<path class="st7" d="M611.4,213.5c-4.3,0-8.8-0.1-13.5-0.4c-4.6-0.2-9.5-0.6-14.5-1.1l-5.7-0.5l5.8-137.8l3.6-1.5    c5.1-2.1,10.3-3.6,15.6-4.6c5.3-1,10.7-1.5,16.1-1.5c10.4,0,20.7,1.8,30.7,5.3c10,3.5,19.1,8.7,27,15.4c7.9,6.8,14.4,15,19.1,24.5    c4.9,9.6,7.3,20.6,7.3,32.6c0,23.2-8.1,40.9-24,52.6C663.5,207.8,640.8,213.5,611.4,213.5z M626.8,165.1c3-0.1,6-0.7,8.9-1.6    c3.1-1.1,6-2.7,8.5-4.8c2.4-2,4.3-4.6,5.9-7.7c1.5-3.1,2.2-6.8,2.2-11.2c0-6.8-2.2-11.7-6.6-15.2c-4.2-3.3-9.8-5.1-16.7-5.6    L626.8,165.1z"/>
		<path class="st7" d="M610.4,212.5c-4.3,0-8.8-0.1-13.5-0.4c-4.6-0.2-9.5-0.6-14.5-1.1l-5.7-0.5l5.8-137.8l3.6-1.5    c5.1-2.1,10.3-3.6,15.6-4.6c5.3-1,10.7-1.5,16.1-1.5c10.4,0,20.7,1.8,30.7,5.3c10,3.5,19.1,8.7,27,15.4c7.9,6.8,14.4,15,19.1,24.5    c4.9,9.6,7.3,20.6,7.3,32.6c0,23.2-8.1,40.9-24,52.6C662.5,206.8,639.8,212.5,610.4,212.5z M625.8,164.1c3-0.1,6-0.7,8.9-1.6    c3.1-1.1,6-2.7,8.5-4.8c2.4-2,4.3-4.6,5.9-7.7c1.5-3.1,2.2-6.8,2.2-11.2c0-6.8-2.2-11.7-6.6-15.2c-4.2-3.3-9.8-5.1-16.7-5.6    L625.8,164.1z"/>
	</g>
	<path class="st8" d="M610.4,213.5c-4.3,0-8.9-0.1-13.5-0.4c-4.6-0.2-9.5-0.6-14.6-1.1l-6.6-0.6l5.9-139.4l4.1-1.7   c5.1-2.1,10.5-3.7,15.8-4.6c5.3-1,10.8-1.5,16.2-1.5c10.5,0,20.9,1.8,31,5.4c10.1,3.6,19.3,8.8,27.3,15.6   c8,6.8,14.5,15.2,19.4,24.8c4.9,9.8,7.4,20.9,7.4,33c0,23.5-8.2,41.5-24.4,53.4C662.9,207.8,640,213.5,610.4,213.5z M626.9,163   c2.6-0.2,5.1-0.7,7.5-1.5c3-1,5.8-2.6,8.1-4.6c2.3-2,4.1-4.4,5.6-7.4c1.4-2.9,2.1-6.6,2.1-10.8c0-6.5-2-11.1-6.2-14.4   c-3.8-3-8.9-4.8-15.1-5.3L626.9,163z"/>
	<path class="st9" d="M610.4,211.5c-4.3,0-8.8-0.1-13.4-0.4c-4.6-0.2-9.5-0.6-14.5-1.1l-4.7-0.5l5.7-136.2l3-1.2   c5-2,10.2-3.6,15.4-4.5c5.2-1,10.5-1.4,15.9-1.4c10.3,0,20.5,1.8,30.3,5.2c9.9,3.5,18.9,8.6,26.7,15.2c7.8,6.7,14.2,14.8,18.9,24.2   c4.8,9.5,7.2,20.3,7.2,32.1c0,22.9-7.9,40.3-23.6,51.7C662.1,205.9,639.6,211.5,610.4,211.5z M624.8,165.1c3.5,0,7-0.6,10.3-1.7   c3.2-1.1,6.2-2.8,8.8-5c2.5-2.1,4.6-4.8,6.1-8.1c1.5-3.2,2.3-7.1,2.3-11.6c0-7.1-2.3-12.3-7-16c-4.6-3.6-10.7-5.5-18.2-5.8   C627,116.9,624.8,165.1,624.8,165.1z"/>
	<path class="st10" d="M612.4,209.5c-4.2,0-8.6-0.1-13.2-0.4c-4.6-0.2-9.4-0.6-14.3-1.1l-0.9-0.1l5.5-129.8l0.6-0.2   c4.7-1.9,9.7-3.4,14.6-4.3c5-0.9,10.1-1.4,15.2-1.4c9.8,0,19.6,1.7,29,5c9.4,3.3,18,8.2,25.4,14.5c7.4,6.3,13.4,14,17.9,22.9   c4.5,8.9,6.8,19.1,6.8,30.3c0,21.5-7.4,37.8-22,48.5C662.4,204.2,640.7,209.5,612.4,209.5z M622.6,170.9c0.5,0.1,1,0.1,1.6,0.1   c0.8,0.1,1.7,0.1,2.6,0.1c4,0,7.9-0.6,11.6-1.9c3.7-1.3,7.1-3.2,10.1-5.7c2.9-2.5,5.3-5.6,7.1-9.4c1.8-3.8,2.7-8.3,2.7-13.4   c0-8.3-2.9-14.7-8.5-19.1c-5.7-4.5-13.5-6.7-22.9-6.7h-1.6L622.6,170.9z"/>
	<path class="st11" d="M608.4,205.5c-4.2,0-8.6-0.1-13.2-0.4c-4.6-0.2-9.4-0.6-14.3-1.1l-0.9-0.1l5.5-129.8l0.6-0.2   c4.7-1.9,9.7-3.4,14.6-4.3c5-0.9,10.1-1.4,15.2-1.4c9.8,0,19.6,1.7,29,5c9.4,3.3,18,8.2,25.4,14.5c7.4,6.3,13.4,14,17.9,22.9   c4.5,8.9,6.8,19.1,6.8,30.3c0,21.5-7.4,37.8-22,48.5C658.4,200.2,636.7,205.5,608.4,205.5z M618.6,166.9c0.5,0.1,1,0.1,1.6,0.1   c0.8,0.1,1.7,0.1,2.6,0.1c4,0,7.9-0.6,11.6-1.9c3.7-1.3,7.1-3.2,10.1-5.7c2.9-2.5,5.3-5.6,7.1-9.4c1.8-3.8,2.7-8.3,2.7-13.4   c0-8.3-2.9-14.7-8.5-19.1c-5.7-4.5-13.5-6.7-22.9-6.7h-1.6L618.6,166.9z"/>
	<path class="st12" d="M588.3,76.8c4.7-1.9,9.5-3.3,14.4-4.2c4.9-0.9,9.9-1.4,15-1.4c9.7,0,19.3,1.7,28.7,5   c9.4,3.3,17.7,8.1,25.1,14.3c7.3,6.3,13.2,13.8,17.7,22.6c4.4,8.8,6.7,18.8,6.7,29.9c0,21.3-7.2,37.2-21.6,47.7   c-14.4,10.5-35.7,15.8-63.9,15.8c-4.2,0-8.6-0.1-13.2-0.4c-4.6-0.2-9.3-0.6-14.2-1.1L588.3,76.8z M619.6,169.7   c0.8,0.1,1.7,0.2,2.5,0.3c0.8,0.1,1.7,0.1,2.7,0.1c4.1,0,8.1-0.7,11.9-2c3.8-1.3,7.3-3.3,10.4-5.9c3.1-2.6,5.5-5.8,7.4-9.7   c1.9-3.9,2.8-8.5,2.8-13.8c0-8.7-3-15.3-8.9-19.9c-6-4.6-13.8-6.9-23.5-6.9h-2.5L619.6,169.7z"/>
</g>

























</svg>