<svg xmlns="http://www.w3.org/2000/svg" xmlns:xlink="http://www.w3.org/1999/xlink" version="1.1" id="Capa_1" x="0px" y="0px" viewBox="325.24500427246096 720.2449737548828 168.2100036621094 183.81004028320314" style="enable-background:new 0 0 1400 980;" xml:space="preserve" width="100%" height="100%">
<style type="text/css">
	.st0{fill:none;}
	.st1{fill:none;stroke:#FFFFFF;stroke-width:2.2677;}
	.st2{fill:none;stroke:#251E25;stroke-width:2.6;stroke-linecap:round;}
	.st3{display:none;}
	.st4{display:inline;fill:url(#_x31_0_lpi_10_x25__white);stroke:#5D8780;stroke-miterlimit:10;}
	.st5{display:inline;opacity:9.000000e-02;fill:url(#SVGID_1_);stroke:#5D8780;stroke-miterlimit:10;}
	.st6{opacity:0.66;}
	.st7{fill:#0B050C;}
	.st8{fill:#8F2427;}
	.st9{fill:#EE2E3C;}
	.st10{fill:#A0452D;}
	.st11{fill:#F3E61E;}
	.st12{fill:#FDB728;}
</style>
<pattern width="72" height="72" patternUnits="userSpaceOnUse" id="_x31_0_lpi_10_x25__white" viewBox="72.5 -142.4 72 72" style="overflow:visible;">
	<g>
		
		<g>
			<line class="st1" x1="139.7" y1="-73.5" x2="212.4" y2="-0.8"/>
			<line class="st1" x1="144.8" y1="-78.6" x2="217.5" y2="-5.9"/>
		</g>
		<g>
			<line class="st1" x1="67.7" y1="-73.5" x2="140.4" y2="-0.8"/>
			<line class="st1" x1="77.9" y1="-83.7" x2="150.6" y2="-11"/>
			<line class="st1" x1="88.1" y1="-93.9" x2="160.4" y2="-21.2"/>
			<line class="st1" x1="72.8" y1="-78.6" x2="145.5" y2="-5.9"/>
			<line class="st1" x1="83" y1="-88.8" x2="155.7" y2="-16.1"/>
			<line class="st1" x1="92.8" y1="-99" x2="165.2" y2="-26.3"/>
		</g>
		<g>
			<line class="st1" x1="5.9" y1="-83.7" x2="78.6" y2="-11"/>
			<line class="st1" x1="16.1" y1="-93.9" x2="88.4" y2="-21.2"/>
			<line class="st1" x1="0.8" y1="-78.6" x2="73.5" y2="-5.9"/>
			<line class="st1" x1="11" y1="-88.8" x2="83.7" y2="-16.1"/>
			<line class="st1" x1="20.8" y1="-99" x2="93.2" y2="-26.3"/>
		</g>
		<g>
			<line class="st1" x1="118.7" y1="-125.1" x2="191.4" y2="-52.4"/>
			<line class="st1" x1="128.6" y1="-135.3" x2="201.3" y2="-62.6"/>
			<line class="st1" x1="139.7" y1="-145.5" x2="212.4" y2="-72.8"/>
			<line class="st1" x1="123.5" y1="-130.2" x2="196.2" y2="-57.5"/>
			<line class="st1" x1="134.6" y1="-140.4" x2="207.3" y2="-67.7"/>
			<line class="st1" x1="144.8" y1="-150.6" x2="217.5" y2="-77.9"/>
		</g>
		<g>
			<line class="st1" x1="46.7" y1="-125.1" x2="119.4" y2="-52.4"/>
			<line class="st1" x1="56.6" y1="-135.3" x2="129.3" y2="-62.6"/>
			<line class="st1" x1="67.7" y1="-145.5" x2="140.4" y2="-72.8"/>
			<line class="st1" x1="77.9" y1="-155.7" x2="150.6" y2="-83"/>
			<line class="st1" x1="88.1" y1="-165.9" x2="160.4" y2="-93.2"/>
			<line class="st1" x1="51.5" y1="-130.2" x2="124.2" y2="-57.5"/>
			<line class="st1" x1="62.6" y1="-140.4" x2="135.3" y2="-67.7"/>
			<line class="st1" x1="72.8" y1="-150.6" x2="145.5" y2="-77.9"/>
			<line class="st1" x1="83" y1="-160.8" x2="155.7" y2="-88.1"/>
			<line class="st1" x1="92.8" y1="-171" x2="165.2" y2="-98.3"/>
		</g>
		<g>
			<line class="st1" x1="5.9" y1="-155.7" x2="78.6" y2="-83"/>
			<line class="st1" x1="16.1" y1="-165.9" x2="88.4" y2="-93.2"/>
			<line class="st1" x1="0.8" y1="-150.6" x2="73.5" y2="-77.9"/>
			<line class="st1" x1="11" y1="-160.8" x2="83.7" y2="-88.1"/>
			<line class="st1" x1="20.8" y1="-171" x2="93.2" y2="-98.3"/>
		</g>
		<g>
			<line class="st1" x1="118.7" y1="-197.1" x2="191.4" y2="-124.4"/>
			<line class="st1" x1="128.6" y1="-207.3" x2="201.3" y2="-134.6"/>
			<line class="st1" x1="123.5" y1="-202.2" x2="196.2" y2="-129.5"/>
			<line class="st1" x1="134.6" y1="-212.4" x2="207.3" y2="-139.7"/>
		</g>
		<g>
			<line class="st1" x1="46.7" y1="-197.1" x2="119.4" y2="-124.4"/>
			<line class="st1" x1="56.6" y1="-207.3" x2="129.3" y2="-134.6"/>
			<line class="st1" x1="51.5" y1="-202.2" x2="124.2" y2="-129.5"/>
			<line class="st1" x1="62.6" y1="-212.4" x2="135.3" y2="-139.7"/>
		</g>
	</g>
</pattern>
<pattern width="72" height="72" patternUnits="userSpaceOnUse" id="USGS_20_Scrub" viewBox="11.3 -74.5 72 72" style="overflow:visible;">
	<g>
		
		<line class="st2" x1="34.5" y1="-68.8" x2="34.5" y2="-68.8"/>
		<line class="st2" x1="22.8" y1="-73.8" x2="22.8" y2="-73.8"/>
		<line class="st2" x1="25.8" y1="-66.8" x2="25.8" y2="-66.8"/>
		<line class="st2" x1="26" y1="-71" x2="26" y2="-71"/>
		<line class="st2" x1="29" y1="-67" x2="29" y2="-67"/>
		<line class="st2" x1="31.3" y1="-70.5" x2="31.3" y2="-70.5"/>
		<line class="st2" x1="32.5" y1="-74" x2="32.5" y2="-74"/>
		<line class="st2" x1="40.3" y1="-69.5" x2="40.3" y2="-69.5"/>
		<line class="st2" x1="36.3" y1="-71.3" x2="36.3" y2="-71.3"/>
		<line class="st2" x1="28.3" y1="-73.3" x2="28.3" y2="-73.3"/>
		<line class="st2" x1="39" y1="-73.3" x2="39" y2="-73.3"/>
		<line class="st2" x1="43" y1="-72.3" x2="43" y2="-72.3"/>
		<line class="st2" x1="40.3" y1="-69.5" x2="40.3" y2="-69.5"/>
		<line class="st2" x1="39.5" y1="-66.8" x2="39.5" y2="-66.8"/>
		<line class="st2" x1="37.5" y1="-63.8" x2="37.5" y2="-63.8"/>
		<line class="st2" x1="33.5" y1="-65.5" x2="33.5" y2="-65.5"/>
		<line class="st2" x1="33.3" y1="-62" x2="33.3" y2="-62"/>
		<line class="st2" x1="28.3" y1="-63" x2="28.3" y2="-63"/>
		<line class="st2" x1="31.5" y1="-59.8" x2="31.5" y2="-59.8"/>
		<line class="st2" x1="34" y1="-56" x2="34" y2="-56"/>
		<line class="st2" x1="36.8" y1="-55.3" x2="36.8" y2="-55.3"/>
		<line class="st2" x1="39.8" y1="-57" x2="39.8" y2="-57"/>
		<line class="st2" x1="39.3" y1="-60.3" x2="39.3" y2="-60.3"/>
		<line class="st2" x1="41.3" y1="-62.5" x2="41.3" y2="-62.5"/>
		<line class="st2" x1="45.5" y1="-62.5" x2="45.5" y2="-62.5"/>
		<line class="st2" x1="43.8" y1="-57.8" x2="43.8" y2="-57.8"/>
		<line class="st2" x1="46" y1="-54.3" x2="46" y2="-54.3"/>
		<line class="st2" x1="42.5" y1="-54" x2="42.5" y2="-54"/>
		<line class="st2" x1="39" y1="-53.3" x2="39" y2="-53.3"/>
		<line class="st2" x1="48.5" y1="-58.8" x2="48.5" y2="-58.8"/>
		<line class="st2" x1="43.3" y1="-66" x2="43.3" y2="-66"/>
		<line class="st2" x1="45.3" y1="-69" x2="45.3" y2="-69"/>
		<line class="st2" x1="48" y1="-72.5" x2="48" y2="-72.5"/>
		<line class="st2" x1="48.8" y1="-69.3" x2="48.8" y2="-69.3"/>
		<line class="st2" x1="48.5" y1="-66.3" x2="48.5" y2="-66.3"/>
		<line class="st2" x1="48.8" y1="-62.5" x2="48.8" y2="-62.5"/>
		<line class="st2" x1="52.3" y1="-70.8" x2="52.3" y2="-70.8"/>
		<line class="st2" x1="53" y1="-67" x2="53" y2="-67"/>
		<line class="st2" x1="52.5" y1="-63" x2="52.5" y2="-63"/>
		<line class="st2" x1="52.8" y1="-58.5" x2="52.8" y2="-58.5"/>
		<line class="st2" x1="54.3" y1="-55" x2="54.3" y2="-55"/>
		<line class="st2" x1="49.5" y1="-55.3" x2="49.5" y2="-55.3"/>
		<line class="st2" x1="50.8" y1="-50.8" x2="50.8" y2="-50.8"/>
		<line class="st2" x1="46.5" y1="-51" x2="46.5" y2="-51"/>
		<line class="st2" x1="58.3" y1="-53.5" x2="58.3" y2="-53.5"/>
		<line class="st2" x1="57.3" y1="-57" x2="57.3" y2="-57"/>
		<line class="st2" x1="56.3" y1="-60.5" x2="56.3" y2="-60.5"/>
		<line class="st2" x1="56.5" y1="-64.5" x2="56.5" y2="-64.5"/>
		<line class="st2" x1="56.3" y1="-68.8" x2="56.3" y2="-68.8"/>
		<line class="st2" x1="56" y1="-72" x2="56" y2="-72"/>
		<line class="st2" x1="61" y1="-73" x2="61" y2="-73"/>
		<line class="st2" x1="60.3" y1="-68.8" x2="60.3" y2="-68.8"/>
		<line class="st2" x1="63.8" y1="-68.8" x2="63.8" y2="-68.8"/>
		<line class="st2" x1="63.5" y1="-65.3" x2="63.5" y2="-65.3"/>
		<line class="st2" x1="59.8" y1="-65.5" x2="59.8" y2="-65.5"/>
		<line class="st2" x1="60" y1="-61" x2="60" y2="-61"/>
		<line class="st2" x1="63.5" y1="-61" x2="63.5" y2="-61"/>
		<line class="st2" x1="60.8" y1="-57.5" x2="60.8" y2="-57.5"/>
		<line class="st2" x1="62.3" y1="-53.3" x2="62.3" y2="-53.3"/>
		<line class="st2" x1="64" y1="-50" x2="64" y2="-50"/>
		<line class="st2" x1="66.5" y1="-52.8" x2="66.5" y2="-52.8"/>
		<line class="st2" x1="65" y1="-56.3" x2="65" y2="-56.3"/>
		<line class="st2" x1="67.3" y1="-59.3" x2="67.3" y2="-59.3"/>
		<line class="st2" x1="67.5" y1="-63.5" x2="67.5" y2="-63.5"/>
		<line class="st2" x1="67.8" y1="-68.5" x2="67.8" y2="-68.5"/>
		<line class="st2" x1="71" y1="-67.5" x2="71" y2="-67.5"/>
		<line class="st2" x1="69.3" y1="-72" x2="69.3" y2="-72"/>
		<line class="st2" x1="73" y1="-71" x2="73" y2="-71"/>
		<line class="st2" x1="76.3" y1="-72.8" x2="76.3" y2="-72.8"/>
		<line class="st2" x1="78.3" y1="-70.8" x2="78.3" y2="-70.8"/>
		<line class="st2" x1="74.8" y1="-67.8" x2="74.8" y2="-67.8"/>
		<line class="st2" x1="74" y1="-64" x2="74" y2="-64"/>
		<line class="st2" x1="71.3" y1="-61.8" x2="71.3" y2="-61.8"/>
		<line class="st2" x1="73.8" y1="-59" x2="73.8" y2="-59"/>
		<line class="st2" x1="77.5" y1="-58" x2="77.5" y2="-58"/>
		<line class="st2" x1="75.5" y1="-55.8" x2="75.5" y2="-55.8"/>
		<line class="st2" x1="72" y1="-55.3" x2="72" y2="-55.3"/>
		<line class="st2" x1="69.3" y1="-55.8" x2="69.3" y2="-55.8"/>
		<line class="st2" x1="71" y1="-51.5" x2="71" y2="-51.5"/>
		<line class="st2" x1="75.5" y1="-52.8" x2="75.5" y2="-52.8"/>
		<line class="st2" x1="79.8" y1="-51.8" x2="79.8" y2="-51.8"/>
		<line class="st2" x1="79.8" y1="-55.3" x2="79.8" y2="-55.3"/>
		<line class="st2" x1="76.8" y1="-62" x2="76.8" y2="-62"/>
		<line class="st2" x1="77.5" y1="-65.8" x2="77.5" y2="-65.8"/>
		<line class="st2" x1="81" y1="-67.8" x2="81" y2="-67.8"/>
		<line class="st2" x1="82" y1="-72.5" x2="82" y2="-72.5"/>
		<line class="st2" x1="81" y1="-61.3" x2="81" y2="-61.3"/>
		<line class="st2" x1="82.8" y1="-57.8" x2="82.8" y2="-57.8"/>
		<line class="st2" x1="67.8" y1="-68.5" x2="67.8" y2="-68.5"/>
		<line class="st2" x1="69.3" y1="-72" x2="69.3" y2="-72"/>
		<line class="st2" x1="66.3" y1="-74.3" x2="66.3" y2="-74.3"/>
		<line class="st2" x1="65.3" y1="-71.3" x2="65.3" y2="-71.3"/>
		<line class="st2" x1="35.3" y1="-51.8" x2="35.3" y2="-51.8"/>
		<line class="st2" x1="31.3" y1="-54.5" x2="31.3" y2="-54.5"/>
		<line class="st2" x1="27.3" y1="-53.5" x2="27.3" y2="-53.5"/>
		<line class="st2" x1="28.3" y1="-57.5" x2="28.3" y2="-57.5"/>
		<line class="st2" x1="26" y1="-60.5" x2="26" y2="-60.5"/>
		<line class="st2" x1="23.8" y1="-63.3" x2="23.8" y2="-63.3"/>
		<line class="st2" x1="23.8" y1="-57" x2="23.8" y2="-57"/>
		<line class="st2" x1="27.3" y1="-53.5" x2="27.3" y2="-53.5"/>
		<line class="st2" x1="29.8" y1="-51.3" x2="29.8" y2="-51.3"/>
		<line class="st2" x1="25.3" y1="-49.8" x2="25.3" y2="-49.8"/>
		<line class="st2" x1="22.8" y1="-52.8" x2="22.8" y2="-52.8"/>
		<line class="st2" x1="35.3" y1="-59.3" x2="35.3" y2="-59.3"/>
		<line class="st2" x1="13.3" y1="-68.8" x2="13.3" y2="-68.8"/>
		<line class="st2" x1="11.8" y1="-65.5" x2="11.8" y2="-65.5"/>
		<line class="st2" x1="12" y1="-62.3" x2="12" y2="-62.3"/>
		<line class="st2" x1="14.5" y1="-59.3" x2="14.5" y2="-59.3"/>
		<line class="st2" x1="10.8" y1="-57.8" x2="10.8" y2="-57.8"/>
		<line class="st2" x1="12.3" y1="-55" x2="12.3" y2="-55"/>
		<line class="st2" x1="11.5" y1="-51.8" x2="11.5" y2="-51.8"/>
		<line class="st2" x1="16.5" y1="-56" x2="16.5" y2="-56"/>
		<line class="st2" x1="15" y1="-62.8" x2="15" y2="-62.8"/>
		<line class="st2" x1="19" y1="-73.8" x2="19" y2="-73.8"/>
		<line class="st2" x1="20.3" y1="-70" x2="20.3" y2="-70"/>
		<line class="st2" x1="17" y1="-69.5" x2="17" y2="-69.5"/>
		<line class="st2" x1="17.3" y1="-66.3" x2="17.3" y2="-66.3"/>
		<line class="st2" x1="22" y1="-67" x2="22" y2="-67"/>
		<line class="st2" x1="15" y1="-72.3" x2="15" y2="-72.3"/>
		<line class="st2" x1="18.3" y1="-61.5" x2="18.3" y2="-61.5"/>
		<line class="st2" x1="21" y1="-63.8" x2="21" y2="-63.8"/>
		<line class="st2" x1="21" y1="-59.8" x2="21" y2="-59.8"/>
		<line class="st2" x1="23.8" y1="-57" x2="23.8" y2="-57"/>
		<line class="st2" x1="19.5" y1="-55.3" x2="19.5" y2="-55.3"/>
		<line class="st2" x1="17" y1="-49.8" x2="17" y2="-49.8"/>
		<line class="st2" x1="16.3" y1="-52.8" x2="16.3" y2="-52.8"/>
		<line class="st2" x1="26.3" y1="-4" x2="26.3" y2="-4"/>
		<line class="st2" x1="26.3" y1="-4" x2="26.3" y2="-4"/>
		<line class="st2" x1="29.8" y1="-5" x2="29.8" y2="-5"/>
		<line class="st2" x1="35.3" y1="-4" x2="35.3" y2="-4"/>
		<line class="st2" x1="40.5" y1="-4.5" x2="40.5" y2="-4.5"/>
		<line class="st2" x1="44" y1="-4" x2="44" y2="-4"/>
		<line class="st2" x1="49" y1="-4.5" x2="49" y2="-4.5"/>
		<line class="st2" x1="56.3" y1="-7.3" x2="56.3" y2="-7.3"/>
		<line class="st2" x1="61" y1="-5.5" x2="61" y2="-5.5"/>
		<line class="st2" x1="71" y1="-4" x2="71" y2="-4"/>
		<line class="st2" x1="79" y1="-3.3" x2="79" y2="-3.3"/>
		<line class="st2" x1="66.3" y1="-2.3" x2="66.3" y2="-2.3"/>
		<line class="st2" x1="65" y1="-6" x2="65" y2="-6"/>
		<line class="st2" x1="12" y1="-3.8" x2="12" y2="-3.8"/>
		<line class="st2" x1="21.5" y1="-5" x2="21.5" y2="-5"/>
		<line class="st2" x1="17" y1="-4.8" x2="17" y2="-4.8"/>
		<line class="st2" x1="33.3" y1="-49" x2="33.3" y2="-49"/>
		<line class="st2" x1="37.8" y1="-48" x2="37.8" y2="-48"/>
		<line class="st2" x1="41.5" y1="-50" x2="41.5" y2="-50"/>
		<line class="st2" x1="40.3" y1="-46" x2="40.3" y2="-46"/>
		<line class="st2" x1="37.5" y1="-44" x2="37.5" y2="-44"/>
		<line class="st2" x1="34" y1="-44.8" x2="34" y2="-44.8"/>
		<line class="st2" x1="30.8" y1="-44" x2="30.8" y2="-44"/>
		<line class="st2" x1="29.3" y1="-47.8" x2="29.3" y2="-47.8"/>
		<line class="st2" x1="27.3" y1="-45.3" x2="27.3" y2="-45.3"/>
		<line class="st2" x1="24" y1="-46.5" x2="24" y2="-46.5"/>
		<line class="st2" x1="20.8" y1="-45" x2="20.8" y2="-45"/>
		<line class="st2" x1="19.8" y1="-41.8" x2="19.8" y2="-41.8"/>
		<line class="st2" x1="21.3" y1="-37.5" x2="21.3" y2="-37.5"/>
		<line class="st2" x1="23.8" y1="-40" x2="23.8" y2="-40"/>
		<line class="st2" x1="26.5" y1="-42.5" x2="26.5" y2="-42.5"/>
		<line class="st2" x1="30.3" y1="-40.3" x2="30.3" y2="-40.3"/>
		<line class="st2" x1="27.3" y1="-37.8" x2="27.3" y2="-37.8"/>
		<line class="st2" x1="24.3" y1="-35" x2="24.3" y2="-35"/>
		<line class="st2" x1="21" y1="-33.3" x2="21" y2="-33.3"/>
		<line class="st2" x1="21.3" y1="-37.5" x2="21.3" y2="-37.5"/>
		<line class="st2" x1="18" y1="-36" x2="18" y2="-36"/>
		<line class="st2" x1="17" y1="-40.5" x2="17" y2="-40.5"/>
		<line class="st2" x1="16.8" y1="-45.8" x2="16.8" y2="-45.8"/>
		<line class="st2" x1="13.8" y1="-43.8" x2="13.8" y2="-43.8"/>
		<line class="st2" x1="13" y1="-39.8" x2="13" y2="-39.8"/>
		<line class="st2" x1="10.5" y1="-46.8" x2="10.5" y2="-46.8"/>
		<line class="st2" x1="13" y1="-48.3" x2="13" y2="-48.3"/>
		<line class="st2" x1="10.8" y1="-36.8" x2="10.8" y2="-36.8"/>
		<line class="st2" x1="14.3" y1="-36.3" x2="14.3" y2="-36.3"/>
		<line class="st2" x1="14.8" y1="-32.5" x2="14.8" y2="-32.5"/>
		<line class="st2" x1="10" y1="-32.8" x2="10" y2="-32.8"/>
		<line class="st2" x1="12.5" y1="-29.3" x2="12.5" y2="-29.3"/>
		<line class="st2" x1="14" y1="-26.5" x2="14" y2="-26.5"/>
		<line class="st2" x1="15" y1="-23.5" x2="15" y2="-23.5"/>
		<line class="st2" x1="18.5" y1="-25.5" x2="18.5" y2="-25.5"/>
		<line class="st2" x1="16.8" y1="-29.5" x2="16.8" y2="-29.5"/>
		<line class="st2" x1="20.8" y1="-29" x2="20.8" y2="-29"/>
		<line class="st2" x1="23.3" y1="-26" x2="23.3" y2="-26"/>
		<line class="st2" x1="26.3" y1="-25" x2="26.3" y2="-25"/>
		<line class="st2" x1="29" y1="-23.5" x2="29" y2="-23.5"/>
		<line class="st2" x1="23.8" y1="-30.3" x2="23.8" y2="-30.3"/>
		<line class="st2" x1="27.3" y1="-29" x2="27.3" y2="-29"/>
		<line class="st2" x1="30.5" y1="-28" x2="30.5" y2="-28"/>
		<line class="st2" x1="27.5" y1="-33.5" x2="27.5" y2="-33.5"/>
		<line class="st2" x1="31.5" y1="-32.5" x2="31.5" y2="-32.5"/>
		<line class="st2" x1="32.3" y1="-36.8" x2="32.3" y2="-36.8"/>
		<line class="st2" x1="34.8" y1="-33.8" x2="34.8" y2="-33.8"/>
		<line class="st2" x1="37.5" y1="-36.3" x2="37.5" y2="-36.3"/>
		<line class="st2" x1="33.8" y1="-29.8" x2="33.8" y2="-29.8"/>
		<line class="st2" x1="37.3" y1="-27.8" x2="37.3" y2="-27.8"/>
		<line class="st2" x1="37.3" y1="-23.8" x2="37.3" y2="-23.8"/>
		<line class="st2" x1="33.3" y1="-25.5" x2="33.3" y2="-25.5"/>
		<line class="st2" x1="40.8" y1="-26.8" x2="40.8" y2="-26.8"/>
		<line class="st2" x1="42.8" y1="-30" x2="42.8" y2="-30"/>
		<line class="st2" x1="41.5" y1="-34" x2="41.5" y2="-34"/>
		<line class="st2" x1="41.5" y1="-38" x2="41.5" y2="-38"/>
		<line class="st2" x1="38.3" y1="-39.8" x2="38.3" y2="-39.8"/>
		<line class="st2" x1="34.8" y1="-39.8" x2="34.8" y2="-39.8"/>
		<line class="st2" x1="41.3" y1="-43.3" x2="41.3" y2="-43.3"/>
		<line class="st2" x1="44.3" y1="-40.5" x2="44.3" y2="-40.5"/>
		<line class="st2" x1="47.3" y1="-40" x2="47.3" y2="-40"/>
		<line class="st2" x1="44.8" y1="-36" x2="44.8" y2="-36"/>
		<line class="st2" x1="45.8" y1="-32.3" x2="45.8" y2="-32.3"/>
		<line class="st2" x1="42.8" y1="-30" x2="42.8" y2="-30"/>
		<line class="st2" x1="46" y1="-28.5" x2="46" y2="-28.5"/>
		<line class="st2" x1="49" y1="-24.3" x2="49" y2="-24.3"/>
		<line class="st2" x1="44" y1="-25.3" x2="44" y2="-25.3"/>
		<line class="st2" x1="49.8" y1="-28.3" x2="49.8" y2="-28.3"/>
		<line class="st2" x1="49.5" y1="-32.8" x2="49.5" y2="-32.8"/>
		<line class="st2" x1="48.8" y1="-36.3" x2="48.8" y2="-36.3"/>
		<line class="st2" x1="44.3" y1="-40.5" x2="44.3" y2="-40.5"/>
		<line class="st2" x1="47.3" y1="-40" x2="47.3" y2="-40"/>
		<line class="st2" x1="45" y1="-43.8" x2="45" y2="-43.8"/>
		<line class="st2" x1="44.5" y1="-47.8" x2="44.5" y2="-47.8"/>
		<line class="st2" x1="48.3" y1="-47.5" x2="48.3" y2="-47.5"/>
		<line class="st2" x1="49" y1="-43" x2="49" y2="-43"/>
		<line class="st2" x1="51.3" y1="-39.8" x2="51.3" y2="-39.8"/>
		<line class="st2" x1="54.3" y1="-37.3" x2="54.3" y2="-37.3"/>
		<line class="st2" x1="53.8" y1="-33.5" x2="53.8" y2="-33.5"/>
		<line class="st2" x1="53" y1="-29.8" x2="53" y2="-29.8"/>
		<line class="st2" x1="55" y1="-26.3" x2="55" y2="-26.3"/>
		<line class="st2" x1="58" y1="-29.3" x2="58" y2="-29.3"/>
		<line class="st2" x1="58" y1="-24.8" x2="58" y2="-24.8"/>
		<line class="st2" x1="57.8" y1="-34" x2="57.8" y2="-34"/>
		<line class="st2" x1="59" y1="-37" x2="59" y2="-37"/>
		<line class="st2" x1="55.8" y1="-41" x2="55.8" y2="-41"/>
		<line class="st2" x1="54" y1="-43.5" x2="54" y2="-43.5"/>
		<line class="st2" x1="52" y1="-45.8" x2="52" y2="-45.8"/>
		<line class="st2" x1="55.3" y1="-47.8" x2="55.3" y2="-47.8"/>
		<line class="st2" x1="54.3" y1="-51.8" x2="54.3" y2="-51.8"/>
		<line class="st2" x1="59" y1="-49" x2="59" y2="-49"/>
		<line class="st2" x1="57.8" y1="-44.8" x2="57.8" y2="-44.8"/>
		<line class="st2" x1="59.8" y1="-41.5" x2="59.8" y2="-41.5"/>
		<line class="st2" x1="63" y1="-39" x2="63" y2="-39"/>
		<line class="st2" x1="62.8" y1="-35" x2="62.8" y2="-35"/>
		<line class="st2" x1="61.8" y1="-31" x2="61.8" y2="-31"/>
		<line class="st2" x1="65.5" y1="-31.8" x2="65.5" y2="-31.8"/>
		<line class="st2" x1="65.3" y1="-27.3" x2="65.3" y2="-27.3"/>
		<line class="st2" x1="68" y1="-24.3" x2="68" y2="-24.3"/>
		<line class="st2" x1="68.8" y1="-29" x2="68.8" y2="-29"/>
		<line class="st2" x1="68.8" y1="-32.8" x2="68.8" y2="-32.8"/>
		<line class="st2" x1="67.8" y1="-36.8" x2="67.8" y2="-36.8"/>
		<line class="st2" x1="38.5" y1="-31.8" x2="38.5" y2="-31.8"/>
		<line class="st2" x1="81.5" y1="-42.5" x2="81.5" y2="-42.5"/>
		<line class="st2" x1="82.5" y1="-46.8" x2="82.5" y2="-46.8"/>
		<line class="st2" x1="79.3" y1="-48.5" x2="79.3" y2="-48.5"/>
		<line class="st2" x1="79.5" y1="-39.3" x2="79.5" y2="-39.3"/>
		<line class="st2" x1="79.3" y1="-35.5" x2="79.3" y2="-35.5"/>
		<line class="st2" x1="82.8" y1="-36.8" x2="82.8" y2="-36.8"/>
		<line class="st2" x1="82" y1="-32.8" x2="82" y2="-32.8"/>
		<line class="st2" x1="81.3" y1="-25.3" x2="81.3" y2="-25.3"/>
		<line class="st2" x1="80.3" y1="-28.8" x2="80.3" y2="-28.8"/>
		<line class="st2" x1="77.8" y1="-44.8" x2="77.8" y2="-44.8"/>
		<line class="st2" x1="74.3" y1="-44.5" x2="74.3" y2="-44.5"/>
		<line class="st2" x1="75.3" y1="-49.3" x2="75.3" y2="-49.3"/>
		<line class="st2" x1="71.8" y1="-47.8" x2="71.8" y2="-47.8"/>
		<line class="st2" x1="68" y1="-48.8" x2="68" y2="-48.8"/>
		<line class="st2" x1="64.5" y1="-47" x2="64.5" y2="-47"/>
		<line class="st2" x1="61.5" y1="-46" x2="61.5" y2="-46"/>
		<line class="st2" x1="63.8" y1="-42.3" x2="63.8" y2="-42.3"/>
		<line class="st2" x1="68" y1="-44.8" x2="68" y2="-44.8"/>
		<line class="st2" x1="71" y1="-41.8" x2="71" y2="-41.8"/>
		<line class="st2" x1="67.3" y1="-40.3" x2="67.3" y2="-40.3"/>
		<line class="st2" x1="71.3" y1="-37.5" x2="71.3" y2="-37.5"/>
		<line class="st2" x1="75.8" y1="-41" x2="75.8" y2="-41"/>
		<line class="st2" x1="75.5" y1="-37.8" x2="75.5" y2="-37.8"/>
		<line class="st2" x1="72.8" y1="-33.5" x2="72.8" y2="-33.5"/>
		<line class="st2" x1="74" y1="-29.5" x2="74" y2="-29.5"/>
		<line class="st2" x1="68.8" y1="-29" x2="68.8" y2="-29"/>
		<line class="st2" x1="71.5" y1="-26.8" x2="71.5" y2="-26.8"/>
		<line class="st2" x1="77" y1="-26.5" x2="77" y2="-26.5"/>
		<line class="st2" x1="76.8" y1="-32.3" x2="76.8" y2="-32.3"/>
		<line class="st2" x1="61.3" y1="-26.8" x2="61.3" y2="-26.8"/>
		<line class="st2" x1="73" y1="-23" x2="73" y2="-23"/>
		<line class="st2" x1="18" y1="-17" x2="18" y2="-17"/>
		<line class="st2" x1="19" y1="-21.5" x2="19" y2="-21.5"/>
		<line class="st2" x1="22.3" y1="-22.8" x2="22.3" y2="-22.8"/>
		<line class="st2" x1="21.3" y1="-18.8" x2="21.3" y2="-18.8"/>
		<line class="st2" x1="24.8" y1="-16.8" x2="24.8" y2="-16.8"/>
		<line class="st2" x1="24.8" y1="-12.8" x2="24.8" y2="-12.8"/>
		<line class="st2" x1="20.8" y1="-14.5" x2="20.8" y2="-14.5"/>
		<line class="st2" x1="28.3" y1="-15.8" x2="28.3" y2="-15.8"/>
		<line class="st2" x1="28.5" y1="-12.8" x2="28.5" y2="-12.8"/>
		<line class="st2" x1="30.3" y1="-19" x2="30.3" y2="-19"/>
		<line class="st2" x1="33.3" y1="-21.3" x2="33.3" y2="-21.3"/>
		<line class="st2" x1="30.3" y1="-19" x2="30.3" y2="-19"/>
		<line class="st2" x1="33.5" y1="-17.5" x2="33.5" y2="-17.5"/>
		<line class="st2" x1="36.5" y1="-13.3" x2="36.5" y2="-13.3"/>
		<line class="st2" x1="31.5" y1="-14.3" x2="31.5" y2="-14.3"/>
		<line class="st2" x1="37.3" y1="-16.3" x2="37.3" y2="-16.3"/>
		<line class="st2" x1="37" y1="-20.8" x2="37" y2="-20.8"/>
		<line class="st2" x1="41.3" y1="-22.5" x2="41.3" y2="-22.5"/>
		<line class="st2" x1="40.5" y1="-19.5" x2="40.5" y2="-19.5"/>
		<line class="st2" x1="41.8" y1="-15.8" x2="41.8" y2="-15.8"/>
		<line class="st2" x1="45.5" y1="-18.3" x2="45.5" y2="-18.3"/>
		<line class="st2" x1="45.3" y1="-12.8" x2="45.3" y2="-12.8"/>
		<line class="st2" x1="45.8" y1="-21.8" x2="45.8" y2="-21.8"/>
		<line class="st2" x1="49.3" y1="-20" x2="49.3" y2="-20"/>
		<line class="st2" x1="26" y1="-20.8" x2="26" y2="-20.8"/>
		<line class="st2" x1="48.3" y1="-16" x2="48.3" y2="-16"/>
		<line class="st2" x1="12" y1="-9.3" x2="12" y2="-9.3"/>
		<line class="st2" x1="14.8" y1="-10.5" x2="14.8" y2="-10.5"/>
		<line class="st2" x1="13.8" y1="-6.5" x2="13.8" y2="-6.5"/>
		<line class="st2" x1="22.8" y1="-6.8" x2="22.8" y2="-6.8"/>
		<line class="st2" x1="21.5" y1="-10.8" x2="21.5" y2="-10.8"/>
		<line class="st2" x1="25.8" y1="-9" x2="25.8" y2="-9"/>
		<line class="st2" x1="22.8" y1="-6.8" x2="22.8" y2="-6.8"/>
		<line class="st2" x1="29.5" y1="-9.5" x2="29.5" y2="-9.5"/>
		<line class="st2" x1="33.8" y1="-10.3" x2="33.8" y2="-10.3"/>
		<line class="st2" x1="33" y1="-7.3" x2="33" y2="-7.3"/>
		<line class="st2" x1="38" y1="-6" x2="38" y2="-6"/>
		<line class="st2" x1="38.3" y1="-9.5" x2="38.3" y2="-9.5"/>
		<line class="st2" x1="42.3" y1="-7" x2="42.3" y2="-7"/>
		<line class="st2" x1="45.5" y1="-8.5" x2="45.5" y2="-8.5"/>
		<line class="st2" x1="18.5" y1="-8.5" x2="18.5" y2="-8.5"/>
		<line class="st2" x1="52.8" y1="-23.5" x2="52.8" y2="-23.5"/>
		<line class="st2" x1="55.3" y1="-17.3" x2="55.3" y2="-17.3"/>
		<line class="st2" x1="55.8" y1="-21.3" x2="55.8" y2="-21.3"/>
		<line class="st2" x1="60.5" y1="-22.3" x2="60.5" y2="-22.3"/>
		<line class="st2" x1="61.3" y1="-17.5" x2="61.3" y2="-17.5"/>
		<line class="st2" x1="58.3" y1="-14.8" x2="58.3" y2="-14.8"/>
		<line class="st2" x1="55" y1="-13" x2="55" y2="-13"/>
		<line class="st2" x1="55.3" y1="-17.3" x2="55.3" y2="-17.3"/>
		<line class="st2" x1="53" y1="-9.8" x2="53" y2="-9.8"/>
		<line class="st2" x1="57.8" y1="-10" x2="57.8" y2="-10"/>
		<line class="st2" x1="61.3" y1="-8.8" x2="61.3" y2="-8.8"/>
		<line class="st2" x1="61.5" y1="-13.3" x2="61.5" y2="-13.3"/>
		<line class="st2" x1="11.5" y1="-18.5" x2="11.5" y2="-18.5"/>
		<line class="st2" x1="14.5" y1="-14.8" x2="14.5" y2="-14.8"/>
		<line class="st2" x1="15" y1="-19.5" x2="15" y2="-19.5"/>
		<line class="st2" x1="81.3" y1="-6.8" x2="81.3" y2="-6.8"/>
		<line class="st2" x1="78" y1="-8.3" x2="78" y2="-8.3"/>
		<line class="st2" x1="84" y1="-9.3" x2="84" y2="-9.3"/>
		<line class="st2" x1="80.8" y1="-22" x2="80.8" y2="-22"/>
		<line class="st2" x1="80.5" y1="-16.8" x2="80.5" y2="-16.8"/>
		<line class="st2" x1="80.8" y1="-22" x2="80.8" y2="-22"/>
		<line class="st2" x1="82.3" y1="-13" x2="82.3" y2="-13"/>
		<line class="st2" x1="50.5" y1="-12.5" x2="50.5" y2="-12.5"/>
		<line class="st2" x1="49" y1="-9.5" x2="49" y2="-9.5"/>
		<line class="st2" x1="64.3" y1="-15.3" x2="64.3" y2="-15.3"/>
		<line class="st2" x1="67.3" y1="-14.8" x2="67.3" y2="-14.8"/>
		<line class="st2" x1="64.8" y1="-10.8" x2="64.8" y2="-10.8"/>
		<line class="st2" x1="68.8" y1="-11" x2="68.8" y2="-11"/>
		<line class="st2" x1="64.3" y1="-15.3" x2="64.3" y2="-15.3"/>
		<line class="st2" x1="67.3" y1="-14.8" x2="67.3" y2="-14.8"/>
		<line class="st2" x1="65" y1="-19.3" x2="65" y2="-19.3"/>
		<line class="st2" x1="69" y1="-17.8" x2="69" y2="-17.8"/>
		<line class="st2" x1="71.3" y1="-14.5" x2="71.3" y2="-14.5"/>
		<line class="st2" x1="73.3" y1="-12.3" x2="73.3" y2="-12.3"/>
		<line class="st2" x1="73.8" y1="-8.3" x2="73.8" y2="-8.3"/>
		<line class="st2" x1="75.8" y1="-15.8" x2="75.8" y2="-15.8"/>
		<line class="st2" x1="74" y1="-18.3" x2="74" y2="-18.3"/>
		<line class="st2" x1="69.8" y1="-21.3" x2="69.8" y2="-21.3"/>
		<line class="st2" x1="77.8" y1="-19.5" x2="77.8" y2="-19.5"/>
		<line class="st2" x1="78" y1="-12.3" x2="78" y2="-12.3"/>
		<line class="st2" x1="64.8" y1="-22.8" x2="64.8" y2="-22.8"/>
		<line class="st2" x1="69.5" y1="-7.5" x2="69.5" y2="-7.5"/>
		<line class="st2" x1="75.5" y1="-5.5" x2="75.5" y2="-5.5"/>
		<line class="st2" x1="76.5" y1="-23" x2="76.5" y2="-23"/>
		<line class="st2" x1="20.8" y1="-49.5" x2="20.8" y2="-49.5"/>
		<line class="st2" x1="17" y1="-13" x2="17" y2="-13"/>
		<line class="st2" x1="41.5" y1="-12" x2="41.5" y2="-12"/>
		<line class="st2" x1="51.8" y1="-17.5" x2="51.8" y2="-17.5"/>
		<line class="st2" x1="58.5" y1="-19" x2="58.5" y2="-19"/>
		<line class="st2" x1="52.3" y1="-3" x2="52.3" y2="-3"/>
		<line class="st2" x1="52.3" y1="-75" x2="52.3" y2="-75"/>
		<line class="st2" x1="79" y1="-75.3" x2="79" y2="-75.3"/>
		<line class="st2" x1="66.3" y1="-74.3" x2="66.3" y2="-74.3"/>
		<line class="st2" x1="22.8" y1="-1.8" x2="22.8" y2="-1.8"/>
		<line class="st2" x1="32.5" y1="-2" x2="32.5" y2="-2"/>
		<line class="st2" x1="28.3" y1="-1.3" x2="28.3" y2="-1.3"/>
		<line class="st2" x1="39" y1="-1.3" x2="39" y2="-1.3"/>
		<line class="st2" x1="66.3" y1="-2.3" x2="66.3" y2="-2.3"/>
		<line class="st2" x1="19" y1="-1.8" x2="19" y2="-1.8"/>
		<line class="st2" x1="66.3" y1="-2.3" x2="66.3" y2="-2.3"/>
		<line class="st2" x1="83.8" y1="-65.5" x2="83.8" y2="-65.5"/>
		<line class="st2" x1="84" y1="-62.3" x2="84" y2="-62.3"/>
		<line class="st2" x1="84.3" y1="-55" x2="84.3" y2="-55"/>
		<line class="st2" x1="83.5" y1="-51.8" x2="83.5" y2="-51.8"/>
		<line class="st2" x1="84" y1="-3.8" x2="84" y2="-3.8"/>
		<line class="st2" x1="10" y1="-72.5" x2="10" y2="-72.5"/>
		<line class="st2" x1="12.5" y1="-22.5" x2="12.5" y2="-22.5"/>
		<line class="st2" x1="12" y1="-75.8" x2="12" y2="-75.8"/>
		<line class="st2" x1="84.5" y1="-29.3" x2="84.5" y2="-29.3"/>
		<line class="st2" x1="83.5" y1="-18.5" x2="83.5" y2="-18.5"/>
		<line class="st2" x1="84.5" y1="-22.5" x2="84.5" y2="-22.5"/>
		<line class="st2" x1="57.5" y1="-4" x2="57.5" y2="-4"/>
		<line class="st2" x1="51.8" y1="-6.5" x2="51.8" y2="-6.5"/>
		<line class="st2" x1="10.3" y1="-13" x2="10.3" y2="-13"/>
		
	</g>
</pattern>
<g class="st3">
	
	<pattern id="SVGID_1_" xlink:href="#USGS_20_Scrub" patternTransform="matrix(1 0 0 1 0 144.4111)">
	</pattern>
	
</g>























<g>
	<g class="st6">
		<polygon class="st7" points="340.1,867.9 380.1,812.3 345,762.3 385.7,736.2 411.6,772.4 438.9,735 482.2,763 444.3,814.9     485.1,870 443.4,895.5 412.8,854.7 383.2,895.7   "/>
		<polygon class="st7" points="339.1,866.9 379.1,811.3 344,761.3 384.7,735.2 410.6,771.4 437.9,734 481.2,762 443.3,813.9     484.1,869 442.4,894.5 411.8,853.7 382.2,894.7   "/>
		<polygon class="st7" points="338.1,865.9 378.1,810.3 343,760.3 383.7,734.2 409.6,770.4 436.9,733 480.2,761 442.3,812.9     483.1,868 441.4,893.5 410.8,852.7 381.2,893.7   "/>
		<polygon class="st7" points="337.1,864.9 377.1,809.3 342,759.3 382.7,733.2 408.6,769.4 435.9,732 479.2,760 441.3,811.9     482.1,867 440.4,892.5 409.8,851.7 380.2,892.7   "/>
		<polygon class="st7" points="336.1,863.9 376.1,808.3 341,758.3 381.7,732.2 407.6,768.4 434.9,731 478.2,759 440.3,810.9     481.1,866 439.4,891.5 408.8,850.7 379.2,891.7   "/>
		<polygon class="st7" points="335.1,862.9 375.1,807.3 340,757.3 380.7,731.2 406.6,767.4 433.9,730 477.2,758 439.3,809.9     480.1,865 438.4,890.5 407.8,849.7 378.2,890.7   "/>
	</g>
	<polygon class="st8" points="333.6,863.2 373.8,807.3 338.6,757.1 381,729.9 406.6,765.6 433.7,728.6 478.7,757.7 440.5,809.9    481.5,865.2 438.2,891.9 407.8,851.4 378.4,892  "/>
	<polygon class="st9" points="336.5,862.6 376.3,807.3 341.4,757.6 380.5,732.6 406.6,769.1 434.2,731.3 475.8,758.2 438,809.9    478.6,864.7 438.7,889.2 407.7,848.1 377.9,889.3  "/>
	<polygon class="st10" points="344.2,863.6 383.2,809.3 349.1,760.7 381.4,740 408.6,777.9 437.2,738.7 472.1,761.3 435.1,811.9    474.8,865.5 441.7,885.9 409.7,843.3 378.9,885.9  "/>
	<polygon class="st11" points="340.2,859.6 379.2,805.3 345.1,756.7 377.4,736 404.6,773.9 433.2,734.7 468.1,757.3 431.1,807.9    470.8,861.5 437.7,881.9 405.7,839.3 374.9,881.9  "/>
	<path class="st12" d="M431.8,809.9l39.5,53.4L440,882.6l-32.3-42.9l-31,42.9l-33-21.3l38.8-53.9L348.5,759l30.7-19.7l27.4,38.2   l28.9-39.5l33.2,21.5L431.8,809.9z"/>
</g>





</svg>