<svg xmlns="http://www.w3.org/2000/svg" xmlns:xlink="http://www.w3.org/1999/xlink" version="1.1" id="Capa_1" x="0px" y="0px" viewBox="1053.3099998474122 54.909994506835936 159.17956085205077 169.18000335693358" style="enable-background:new 0 0 1400 980;" xml:space="preserve" width="100%" height="100%">
<style type="text/css">
	.st0{fill:none;}
	.st1{fill:none;stroke:#FFFFFF;stroke-width:2.2677;}
	.st2{fill:none;stroke:#251E25;stroke-width:2.6;stroke-linecap:round;}
	.st3{display:none;}
	.st4{display:inline;fill:url(#_x31_0_lpi_10_x25__white);stroke:#5D8780;stroke-miterlimit:10;}
	.st5{display:inline;opacity:9.000000e-02;fill:url(#SVGID_1_);stroke:#5D8780;stroke-miterlimit:10;}
	.st6{opacity:0.66;}
	.st7{fill:#0B050C;}
	.st8{fill:#8F2427;}
	.st9{fill:#EE2E3C;}
	.st10{fill:#A0452D;}
	.st11{fill:#F3E61E;}
	.st12{fill:#FDB728;}
</style>
<pattern width="72" height="72" patternUnits="userSpaceOnUse" id="_x31_0_lpi_10_x25__white" viewBox="72.5 -142.4 72 72" style="overflow:visible;">
	<g>
		
		<g>
			<line class="st1" x1="139.7" y1="-73.5" x2="212.4" y2="-0.8"/>
			<line class="st1" x1="144.8" y1="-78.6" x2="217.5" y2="-5.9"/>
		</g>
		<g>
			<line class="st1" x1="67.7" y1="-73.5" x2="140.4" y2="-0.8"/>
			<line class="st1" x1="77.9" y1="-83.7" x2="150.6" y2="-11"/>
			<line class="st1" x1="88.1" y1="-93.9" x2="160.4" y2="-21.2"/>
			<line class="st1" x1="72.8" y1="-78.6" x2="145.5" y2="-5.9"/>
			<line class="st1" x1="83" y1="-88.8" x2="155.7" y2="-16.1"/>
			<line class="st1" x1="92.8" y1="-99" x2="165.2" y2="-26.3"/>
		</g>
		<g>
			<line class="st1" x1="5.9" y1="-83.7" x2="78.6" y2="-11"/>
			<line class="st1" x1="16.1" y1="-93.9" x2="88.4" y2="-21.2"/>
			<line class="st1" x1="0.8" y1="-78.6" x2="73.5" y2="-5.9"/>
			<line class="st1" x1="11" y1="-88.8" x2="83.7" y2="-16.1"/>
			<line class="st1" x1="20.8" y1="-99" x2="93.2" y2="-26.3"/>
		</g>
		<g>
			<line class="st1" x1="118.7" y1="-125.1" x2="191.4" y2="-52.4"/>
			<line class="st1" x1="128.6" y1="-135.3" x2="201.3" y2="-62.6"/>
			<line class="st1" x1="139.7" y1="-145.5" x2="212.4" y2="-72.8"/>
			<line class="st1" x1="123.5" y1="-130.2" x2="196.2" y2="-57.5"/>
			<line class="st1" x1="134.6" y1="-140.4" x2="207.3" y2="-67.7"/>
			<line class="st1" x1="144.8" y1="-150.6" x2="217.5" y2="-77.9"/>
		</g>
		<g>
			<line class="st1" x1="46.7" y1="-125.1" x2="119.4" y2="-52.4"/>
			<line class="st1" x1="56.6" y1="-135.3" x2="129.3" y2="-62.6"/>
			<line class="st1" x1="67.7" y1="-145.5" x2="140.4" y2="-72.8"/>
			<line class="st1" x1="77.9" y1="-155.7" x2="150.6" y2="-83"/>
			<line class="st1" x1="88.1" y1="-165.9" x2="160.4" y2="-93.2"/>
			<line class="st1" x1="51.5" y1="-130.2" x2="124.2" y2="-57.5"/>
			<line class="st1" x1="62.6" y1="-140.4" x2="135.3" y2="-67.7"/>
			<line class="st1" x1="72.8" y1="-150.6" x2="145.5" y2="-77.9"/>
			<line class="st1" x1="83" y1="-160.8" x2="155.7" y2="-88.1"/>
			<line class="st1" x1="92.8" y1="-171" x2="165.2" y2="-98.3"/>
		</g>
		<g>
			<line class="st1" x1="5.9" y1="-155.7" x2="78.6" y2="-83"/>
			<line class="st1" x1="16.1" y1="-165.9" x2="88.4" y2="-93.2"/>
			<line class="st1" x1="0.8" y1="-150.6" x2="73.5" y2="-77.9"/>
			<line class="st1" x1="11" y1="-160.8" x2="83.7" y2="-88.1"/>
			<line class="st1" x1="20.8" y1="-171" x2="93.2" y2="-98.3"/>
		</g>
		<g>
			<line class="st1" x1="118.7" y1="-197.1" x2="191.4" y2="-124.4"/>
			<line class="st1" x1="128.6" y1="-207.3" x2="201.3" y2="-134.6"/>
			<line class="st1" x1="123.5" y1="-202.2" x2="196.2" y2="-129.5"/>
			<line class="st1" x1="134.6" y1="-212.4" x2="207.3" y2="-139.7"/>
		</g>
		<g>
			<line class="st1" x1="46.7" y1="-197.1" x2="119.4" y2="-124.4"/>
			<line class="st1" x1="56.6" y1="-207.3" x2="129.3" y2="-134.6"/>
			<line class="st1" x1="51.5" y1="-202.2" x2="124.2" y2="-129.5"/>
			<line class="st1" x1="62.6" y1="-212.4" x2="135.3" y2="-139.7"/>
		</g>
	</g>
</pattern>
<pattern width="72" height="72" patternUnits="userSpaceOnUse" id="USGS_20_Scrub" viewBox="11.3 -74.5 72 72" style="overflow:visible;">
	<g>
		
		<line class="st2" x1="34.5" y1="-68.8" x2="34.5" y2="-68.8"/>
		<line class="st2" x1="22.8" y1="-73.8" x2="22.8" y2="-73.8"/>
		<line class="st2" x1="25.8" y1="-66.8" x2="25.8" y2="-66.8"/>
		<line class="st2" x1="26" y1="-71" x2="26" y2="-71"/>
		<line class="st2" x1="29" y1="-67" x2="29" y2="-67"/>
		<line class="st2" x1="31.3" y1="-70.5" x2="31.3" y2="-70.5"/>
		<line class="st2" x1="32.5" y1="-74" x2="32.5" y2="-74"/>
		<line class="st2" x1="40.3" y1="-69.5" x2="40.3" y2="-69.5"/>
		<line class="st2" x1="36.3" y1="-71.3" x2="36.3" y2="-71.3"/>
		<line class="st2" x1="28.3" y1="-73.3" x2="28.3" y2="-73.3"/>
		<line class="st2" x1="39" y1="-73.3" x2="39" y2="-73.3"/>
		<line class="st2" x1="43" y1="-72.3" x2="43" y2="-72.3"/>
		<line class="st2" x1="40.3" y1="-69.5" x2="40.3" y2="-69.5"/>
		<line class="st2" x1="39.5" y1="-66.8" x2="39.5" y2="-66.8"/>
		<line class="st2" x1="37.5" y1="-63.8" x2="37.5" y2="-63.8"/>
		<line class="st2" x1="33.5" y1="-65.5" x2="33.5" y2="-65.5"/>
		<line class="st2" x1="33.3" y1="-62" x2="33.3" y2="-62"/>
		<line class="st2" x1="28.3" y1="-63" x2="28.3" y2="-63"/>
		<line class="st2" x1="31.5" y1="-59.8" x2="31.5" y2="-59.8"/>
		<line class="st2" x1="34" y1="-56" x2="34" y2="-56"/>
		<line class="st2" x1="36.8" y1="-55.3" x2="36.8" y2="-55.3"/>
		<line class="st2" x1="39.8" y1="-57" x2="39.8" y2="-57"/>
		<line class="st2" x1="39.3" y1="-60.3" x2="39.3" y2="-60.3"/>
		<line class="st2" x1="41.3" y1="-62.5" x2="41.3" y2="-62.5"/>
		<line class="st2" x1="45.5" y1="-62.5" x2="45.5" y2="-62.5"/>
		<line class="st2" x1="43.8" y1="-57.8" x2="43.8" y2="-57.8"/>
		<line class="st2" x1="46" y1="-54.3" x2="46" y2="-54.3"/>
		<line class="st2" x1="42.5" y1="-54" x2="42.5" y2="-54"/>
		<line class="st2" x1="39" y1="-53.3" x2="39" y2="-53.3"/>
		<line class="st2" x1="48.5" y1="-58.8" x2="48.5" y2="-58.8"/>
		<line class="st2" x1="43.3" y1="-66" x2="43.3" y2="-66"/>
		<line class="st2" x1="45.3" y1="-69" x2="45.3" y2="-69"/>
		<line class="st2" x1="48" y1="-72.5" x2="48" y2="-72.5"/>
		<line class="st2" x1="48.8" y1="-69.3" x2="48.8" y2="-69.3"/>
		<line class="st2" x1="48.5" y1="-66.3" x2="48.5" y2="-66.3"/>
		<line class="st2" x1="48.8" y1="-62.5" x2="48.8" y2="-62.5"/>
		<line class="st2" x1="52.3" y1="-70.8" x2="52.3" y2="-70.8"/>
		<line class="st2" x1="53" y1="-67" x2="53" y2="-67"/>
		<line class="st2" x1="52.5" y1="-63" x2="52.5" y2="-63"/>
		<line class="st2" x1="52.8" y1="-58.5" x2="52.8" y2="-58.5"/>
		<line class="st2" x1="54.3" y1="-55" x2="54.3" y2="-55"/>
		<line class="st2" x1="49.5" y1="-55.3" x2="49.5" y2="-55.3"/>
		<line class="st2" x1="50.8" y1="-50.8" x2="50.8" y2="-50.8"/>
		<line class="st2" x1="46.5" y1="-51" x2="46.5" y2="-51"/>
		<line class="st2" x1="58.3" y1="-53.5" x2="58.3" y2="-53.5"/>
		<line class="st2" x1="57.3" y1="-57" x2="57.3" y2="-57"/>
		<line class="st2" x1="56.3" y1="-60.5" x2="56.3" y2="-60.5"/>
		<line class="st2" x1="56.5" y1="-64.5" x2="56.5" y2="-64.5"/>
		<line class="st2" x1="56.3" y1="-68.8" x2="56.3" y2="-68.8"/>
		<line class="st2" x1="56" y1="-72" x2="56" y2="-72"/>
		<line class="st2" x1="61" y1="-73" x2="61" y2="-73"/>
		<line class="st2" x1="60.3" y1="-68.8" x2="60.3" y2="-68.8"/>
		<line class="st2" x1="63.8" y1="-68.8" x2="63.8" y2="-68.8"/>
		<line class="st2" x1="63.5" y1="-65.3" x2="63.5" y2="-65.3"/>
		<line class="st2" x1="59.8" y1="-65.5" x2="59.8" y2="-65.5"/>
		<line class="st2" x1="60" y1="-61" x2="60" y2="-61"/>
		<line class="st2" x1="63.5" y1="-61" x2="63.5" y2="-61"/>
		<line class="st2" x1="60.8" y1="-57.5" x2="60.8" y2="-57.5"/>
		<line class="st2" x1="62.3" y1="-53.3" x2="62.3" y2="-53.3"/>
		<line class="st2" x1="64" y1="-50" x2="64" y2="-50"/>
		<line class="st2" x1="66.5" y1="-52.8" x2="66.5" y2="-52.8"/>
		<line class="st2" x1="65" y1="-56.3" x2="65" y2="-56.3"/>
		<line class="st2" x1="67.3" y1="-59.3" x2="67.3" y2="-59.3"/>
		<line class="st2" x1="67.5" y1="-63.5" x2="67.5" y2="-63.5"/>
		<line class="st2" x1="67.8" y1="-68.5" x2="67.8" y2="-68.5"/>
		<line class="st2" x1="71" y1="-67.5" x2="71" y2="-67.5"/>
		<line class="st2" x1="69.3" y1="-72" x2="69.3" y2="-72"/>
		<line class="st2" x1="73" y1="-71" x2="73" y2="-71"/>
		<line class="st2" x1="76.3" y1="-72.8" x2="76.3" y2="-72.8"/>
		<line class="st2" x1="78.3" y1="-70.8" x2="78.3" y2="-70.8"/>
		<line class="st2" x1="74.8" y1="-67.8" x2="74.8" y2="-67.8"/>
		<line class="st2" x1="74" y1="-64" x2="74" y2="-64"/>
		<line class="st2" x1="71.3" y1="-61.8" x2="71.3" y2="-61.8"/>
		<line class="st2" x1="73.8" y1="-59" x2="73.8" y2="-59"/>
		<line class="st2" x1="77.5" y1="-58" x2="77.5" y2="-58"/>
		<line class="st2" x1="75.5" y1="-55.8" x2="75.5" y2="-55.8"/>
		<line class="st2" x1="72" y1="-55.3" x2="72" y2="-55.3"/>
		<line class="st2" x1="69.3" y1="-55.8" x2="69.3" y2="-55.8"/>
		<line class="st2" x1="71" y1="-51.5" x2="71" y2="-51.5"/>
		<line class="st2" x1="75.5" y1="-52.8" x2="75.5" y2="-52.8"/>
		<line class="st2" x1="79.8" y1="-51.8" x2="79.8" y2="-51.8"/>
		<line class="st2" x1="79.8" y1="-55.3" x2="79.8" y2="-55.3"/>
		<line class="st2" x1="76.8" y1="-62" x2="76.8" y2="-62"/>
		<line class="st2" x1="77.5" y1="-65.8" x2="77.5" y2="-65.8"/>
		<line class="st2" x1="81" y1="-67.8" x2="81" y2="-67.8"/>
		<line class="st2" x1="82" y1="-72.5" x2="82" y2="-72.5"/>
		<line class="st2" x1="81" y1="-61.3" x2="81" y2="-61.3"/>
		<line class="st2" x1="82.8" y1="-57.8" x2="82.8" y2="-57.8"/>
		<line class="st2" x1="67.8" y1="-68.5" x2="67.8" y2="-68.5"/>
		<line class="st2" x1="69.3" y1="-72" x2="69.3" y2="-72"/>
		<line class="st2" x1="66.3" y1="-74.3" x2="66.3" y2="-74.3"/>
		<line class="st2" x1="65.3" y1="-71.3" x2="65.3" y2="-71.3"/>
		<line class="st2" x1="35.3" y1="-51.8" x2="35.3" y2="-51.8"/>
		<line class="st2" x1="31.3" y1="-54.5" x2="31.3" y2="-54.5"/>
		<line class="st2" x1="27.3" y1="-53.5" x2="27.3" y2="-53.5"/>
		<line class="st2" x1="28.3" y1="-57.5" x2="28.3" y2="-57.5"/>
		<line class="st2" x1="26" y1="-60.5" x2="26" y2="-60.5"/>
		<line class="st2" x1="23.8" y1="-63.3" x2="23.8" y2="-63.3"/>
		<line class="st2" x1="23.8" y1="-57" x2="23.8" y2="-57"/>
		<line class="st2" x1="27.3" y1="-53.5" x2="27.3" y2="-53.5"/>
		<line class="st2" x1="29.8" y1="-51.3" x2="29.8" y2="-51.3"/>
		<line class="st2" x1="25.3" y1="-49.8" x2="25.3" y2="-49.8"/>
		<line class="st2" x1="22.8" y1="-52.8" x2="22.8" y2="-52.8"/>
		<line class="st2" x1="35.3" y1="-59.3" x2="35.3" y2="-59.3"/>
		<line class="st2" x1="13.3" y1="-68.8" x2="13.3" y2="-68.8"/>
		<line class="st2" x1="11.8" y1="-65.5" x2="11.8" y2="-65.5"/>
		<line class="st2" x1="12" y1="-62.3" x2="12" y2="-62.3"/>
		<line class="st2" x1="14.5" y1="-59.3" x2="14.5" y2="-59.3"/>
		<line class="st2" x1="10.8" y1="-57.8" x2="10.8" y2="-57.8"/>
		<line class="st2" x1="12.3" y1="-55" x2="12.3" y2="-55"/>
		<line class="st2" x1="11.5" y1="-51.8" x2="11.5" y2="-51.8"/>
		<line class="st2" x1="16.5" y1="-56" x2="16.5" y2="-56"/>
		<line class="st2" x1="15" y1="-62.8" x2="15" y2="-62.8"/>
		<line class="st2" x1="19" y1="-73.8" x2="19" y2="-73.8"/>
		<line class="st2" x1="20.3" y1="-70" x2="20.3" y2="-70"/>
		<line class="st2" x1="17" y1="-69.5" x2="17" y2="-69.5"/>
		<line class="st2" x1="17.3" y1="-66.3" x2="17.3" y2="-66.3"/>
		<line class="st2" x1="22" y1="-67" x2="22" y2="-67"/>
		<line class="st2" x1="15" y1="-72.3" x2="15" y2="-72.3"/>
		<line class="st2" x1="18.3" y1="-61.5" x2="18.3" y2="-61.5"/>
		<line class="st2" x1="21" y1="-63.8" x2="21" y2="-63.8"/>
		<line class="st2" x1="21" y1="-59.8" x2="21" y2="-59.8"/>
		<line class="st2" x1="23.8" y1="-57" x2="23.8" y2="-57"/>
		<line class="st2" x1="19.5" y1="-55.3" x2="19.5" y2="-55.3"/>
		<line class="st2" x1="17" y1="-49.8" x2="17" y2="-49.8"/>
		<line class="st2" x1="16.3" y1="-52.8" x2="16.3" y2="-52.8"/>
		<line class="st2" x1="26.3" y1="-4" x2="26.3" y2="-4"/>
		<line class="st2" x1="26.3" y1="-4" x2="26.3" y2="-4"/>
		<line class="st2" x1="29.8" y1="-5" x2="29.8" y2="-5"/>
		<line class="st2" x1="35.3" y1="-4" x2="35.3" y2="-4"/>
		<line class="st2" x1="40.5" y1="-4.5" x2="40.5" y2="-4.5"/>
		<line class="st2" x1="44" y1="-4" x2="44" y2="-4"/>
		<line class="st2" x1="49" y1="-4.5" x2="49" y2="-4.5"/>
		<line class="st2" x1="56.3" y1="-7.3" x2="56.3" y2="-7.3"/>
		<line class="st2" x1="61" y1="-5.5" x2="61" y2="-5.5"/>
		<line class="st2" x1="71" y1="-4" x2="71" y2="-4"/>
		<line class="st2" x1="79" y1="-3.3" x2="79" y2="-3.3"/>
		<line class="st2" x1="66.3" y1="-2.3" x2="66.3" y2="-2.3"/>
		<line class="st2" x1="65" y1="-6" x2="65" y2="-6"/>
		<line class="st2" x1="12" y1="-3.8" x2="12" y2="-3.8"/>
		<line class="st2" x1="21.5" y1="-5" x2="21.5" y2="-5"/>
		<line class="st2" x1="17" y1="-4.8" x2="17" y2="-4.8"/>
		<line class="st2" x1="33.3" y1="-49" x2="33.3" y2="-49"/>
		<line class="st2" x1="37.8" y1="-48" x2="37.8" y2="-48"/>
		<line class="st2" x1="41.5" y1="-50" x2="41.5" y2="-50"/>
		<line class="st2" x1="40.3" y1="-46" x2="40.3" y2="-46"/>
		<line class="st2" x1="37.5" y1="-44" x2="37.5" y2="-44"/>
		<line class="st2" x1="34" y1="-44.8" x2="34" y2="-44.8"/>
		<line class="st2" x1="30.8" y1="-44" x2="30.8" y2="-44"/>
		<line class="st2" x1="29.3" y1="-47.8" x2="29.3" y2="-47.8"/>
		<line class="st2" x1="27.3" y1="-45.3" x2="27.3" y2="-45.3"/>
		<line class="st2" x1="24" y1="-46.5" x2="24" y2="-46.5"/>
		<line class="st2" x1="20.8" y1="-45" x2="20.8" y2="-45"/>
		<line class="st2" x1="19.8" y1="-41.8" x2="19.8" y2="-41.8"/>
		<line class="st2" x1="21.3" y1="-37.5" x2="21.3" y2="-37.5"/>
		<line class="st2" x1="23.8" y1="-40" x2="23.8" y2="-40"/>
		<line class="st2" x1="26.5" y1="-42.5" x2="26.5" y2="-42.5"/>
		<line class="st2" x1="30.3" y1="-40.3" x2="30.3" y2="-40.3"/>
		<line class="st2" x1="27.3" y1="-37.8" x2="27.3" y2="-37.8"/>
		<line class="st2" x1="24.3" y1="-35" x2="24.3" y2="-35"/>
		<line class="st2" x1="21" y1="-33.3" x2="21" y2="-33.3"/>
		<line class="st2" x1="21.3" y1="-37.5" x2="21.3" y2="-37.5"/>
		<line class="st2" x1="18" y1="-36" x2="18" y2="-36"/>
		<line class="st2" x1="17" y1="-40.5" x2="17" y2="-40.5"/>
		<line class="st2" x1="16.8" y1="-45.8" x2="16.8" y2="-45.8"/>
		<line class="st2" x1="13.8" y1="-43.8" x2="13.8" y2="-43.8"/>
		<line class="st2" x1="13" y1="-39.8" x2="13" y2="-39.8"/>
		<line class="st2" x1="10.5" y1="-46.8" x2="10.5" y2="-46.8"/>
		<line class="st2" x1="13" y1="-48.3" x2="13" y2="-48.3"/>
		<line class="st2" x1="10.8" y1="-36.8" x2="10.8" y2="-36.8"/>
		<line class="st2" x1="14.3" y1="-36.3" x2="14.3" y2="-36.3"/>
		<line class="st2" x1="14.8" y1="-32.5" x2="14.8" y2="-32.5"/>
		<line class="st2" x1="10" y1="-32.8" x2="10" y2="-32.8"/>
		<line class="st2" x1="12.5" y1="-29.3" x2="12.5" y2="-29.3"/>
		<line class="st2" x1="14" y1="-26.5" x2="14" y2="-26.5"/>
		<line class="st2" x1="15" y1="-23.5" x2="15" y2="-23.5"/>
		<line class="st2" x1="18.5" y1="-25.5" x2="18.5" y2="-25.5"/>
		<line class="st2" x1="16.8" y1="-29.5" x2="16.8" y2="-29.5"/>
		<line class="st2" x1="20.8" y1="-29" x2="20.8" y2="-29"/>
		<line class="st2" x1="23.3" y1="-26" x2="23.3" y2="-26"/>
		<line class="st2" x1="26.3" y1="-25" x2="26.3" y2="-25"/>
		<line class="st2" x1="29" y1="-23.5" x2="29" y2="-23.5"/>
		<line class="st2" x1="23.8" y1="-30.3" x2="23.8" y2="-30.3"/>
		<line class="st2" x1="27.3" y1="-29" x2="27.3" y2="-29"/>
		<line class="st2" x1="30.5" y1="-28" x2="30.5" y2="-28"/>
		<line class="st2" x1="27.5" y1="-33.5" x2="27.5" y2="-33.5"/>
		<line class="st2" x1="31.5" y1="-32.5" x2="31.5" y2="-32.5"/>
		<line class="st2" x1="32.3" y1="-36.8" x2="32.3" y2="-36.8"/>
		<line class="st2" x1="34.8" y1="-33.8" x2="34.8" y2="-33.8"/>
		<line class="st2" x1="37.5" y1="-36.3" x2="37.5" y2="-36.3"/>
		<line class="st2" x1="33.8" y1="-29.8" x2="33.8" y2="-29.8"/>
		<line class="st2" x1="37.3" y1="-27.8" x2="37.3" y2="-27.8"/>
		<line class="st2" x1="37.3" y1="-23.8" x2="37.3" y2="-23.8"/>
		<line class="st2" x1="33.3" y1="-25.5" x2="33.3" y2="-25.5"/>
		<line class="st2" x1="40.8" y1="-26.8" x2="40.8" y2="-26.8"/>
		<line class="st2" x1="42.8" y1="-30" x2="42.8" y2="-30"/>
		<line class="st2" x1="41.5" y1="-34" x2="41.5" y2="-34"/>
		<line class="st2" x1="41.5" y1="-38" x2="41.5" y2="-38"/>
		<line class="st2" x1="38.3" y1="-39.8" x2="38.3" y2="-39.8"/>
		<line class="st2" x1="34.8" y1="-39.8" x2="34.8" y2="-39.8"/>
		<line class="st2" x1="41.3" y1="-43.3" x2="41.3" y2="-43.3"/>
		<line class="st2" x1="44.3" y1="-40.5" x2="44.3" y2="-40.5"/>
		<line class="st2" x1="47.3" y1="-40" x2="47.3" y2="-40"/>
		<line class="st2" x1="44.8" y1="-36" x2="44.8" y2="-36"/>
		<line class="st2" x1="45.8" y1="-32.3" x2="45.8" y2="-32.3"/>
		<line class="st2" x1="42.8" y1="-30" x2="42.8" y2="-30"/>
		<line class="st2" x1="46" y1="-28.5" x2="46" y2="-28.5"/>
		<line class="st2" x1="49" y1="-24.3" x2="49" y2="-24.3"/>
		<line class="st2" x1="44" y1="-25.3" x2="44" y2="-25.3"/>
		<line class="st2" x1="49.8" y1="-28.3" x2="49.8" y2="-28.3"/>
		<line class="st2" x1="49.5" y1="-32.8" x2="49.5" y2="-32.8"/>
		<line class="st2" x1="48.8" y1="-36.3" x2="48.8" y2="-36.3"/>
		<line class="st2" x1="44.3" y1="-40.5" x2="44.3" y2="-40.5"/>
		<line class="st2" x1="47.3" y1="-40" x2="47.3" y2="-40"/>
		<line class="st2" x1="45" y1="-43.8" x2="45" y2="-43.8"/>
		<line class="st2" x1="44.5" y1="-47.8" x2="44.5" y2="-47.8"/>
		<line class="st2" x1="48.3" y1="-47.5" x2="48.3" y2="-47.5"/>
		<line class="st2" x1="49" y1="-43" x2="49" y2="-43"/>
		<line class="st2" x1="51.3" y1="-39.8" x2="51.3" y2="-39.8"/>
		<line class="st2" x1="54.3" y1="-37.3" x2="54.3" y2="-37.3"/>
		<line class="st2" x1="53.8" y1="-33.5" x2="53.8" y2="-33.5"/>
		<line class="st2" x1="53" y1="-29.8" x2="53" y2="-29.8"/>
		<line class="st2" x1="55" y1="-26.3" x2="55" y2="-26.3"/>
		<line class="st2" x1="58" y1="-29.3" x2="58" y2="-29.3"/>
		<line class="st2" x1="58" y1="-24.8" x2="58" y2="-24.8"/>
		<line class="st2" x1="57.8" y1="-34" x2="57.8" y2="-34"/>
		<line class="st2" x1="59" y1="-37" x2="59" y2="-37"/>
		<line class="st2" x1="55.8" y1="-41" x2="55.8" y2="-41"/>
		<line class="st2" x1="54" y1="-43.5" x2="54" y2="-43.5"/>
		<line class="st2" x1="52" y1="-45.8" x2="52" y2="-45.8"/>
		<line class="st2" x1="55.3" y1="-47.8" x2="55.3" y2="-47.8"/>
		<line class="st2" x1="54.3" y1="-51.8" x2="54.3" y2="-51.8"/>
		<line class="st2" x1="59" y1="-49" x2="59" y2="-49"/>
		<line class="st2" x1="57.8" y1="-44.8" x2="57.8" y2="-44.8"/>
		<line class="st2" x1="59.8" y1="-41.5" x2="59.8" y2="-41.5"/>
		<line class="st2" x1="63" y1="-39" x2="63" y2="-39"/>
		<line class="st2" x1="62.8" y1="-35" x2="62.8" y2="-35"/>
		<line class="st2" x1="61.8" y1="-31" x2="61.8" y2="-31"/>
		<line class="st2" x1="65.5" y1="-31.8" x2="65.5" y2="-31.8"/>
		<line class="st2" x1="65.3" y1="-27.3" x2="65.3" y2="-27.3"/>
		<line class="st2" x1="68" y1="-24.3" x2="68" y2="-24.3"/>
		<line class="st2" x1="68.8" y1="-29" x2="68.8" y2="-29"/>
		<line class="st2" x1="68.8" y1="-32.8" x2="68.8" y2="-32.8"/>
		<line class="st2" x1="67.8" y1="-36.8" x2="67.8" y2="-36.8"/>
		<line class="st2" x1="38.5" y1="-31.8" x2="38.5" y2="-31.8"/>
		<line class="st2" x1="81.5" y1="-42.5" x2="81.5" y2="-42.5"/>
		<line class="st2" x1="82.5" y1="-46.8" x2="82.5" y2="-46.8"/>
		<line class="st2" x1="79.3" y1="-48.5" x2="79.3" y2="-48.5"/>
		<line class="st2" x1="79.5" y1="-39.3" x2="79.5" y2="-39.3"/>
		<line class="st2" x1="79.3" y1="-35.5" x2="79.3" y2="-35.5"/>
		<line class="st2" x1="82.8" y1="-36.8" x2="82.8" y2="-36.8"/>
		<line class="st2" x1="82" y1="-32.8" x2="82" y2="-32.8"/>
		<line class="st2" x1="81.3" y1="-25.3" x2="81.3" y2="-25.3"/>
		<line class="st2" x1="80.3" y1="-28.8" x2="80.3" y2="-28.8"/>
		<line class="st2" x1="77.8" y1="-44.8" x2="77.8" y2="-44.8"/>
		<line class="st2" x1="74.3" y1="-44.5" x2="74.3" y2="-44.5"/>
		<line class="st2" x1="75.3" y1="-49.3" x2="75.3" y2="-49.3"/>
		<line class="st2" x1="71.8" y1="-47.8" x2="71.8" y2="-47.8"/>
		<line class="st2" x1="68" y1="-48.8" x2="68" y2="-48.8"/>
		<line class="st2" x1="64.5" y1="-47" x2="64.5" y2="-47"/>
		<line class="st2" x1="61.5" y1="-46" x2="61.5" y2="-46"/>
		<line class="st2" x1="63.8" y1="-42.3" x2="63.8" y2="-42.3"/>
		<line class="st2" x1="68" y1="-44.8" x2="68" y2="-44.8"/>
		<line class="st2" x1="71" y1="-41.8" x2="71" y2="-41.8"/>
		<line class="st2" x1="67.3" y1="-40.3" x2="67.3" y2="-40.3"/>
		<line class="st2" x1="71.3" y1="-37.5" x2="71.3" y2="-37.5"/>
		<line class="st2" x1="75.8" y1="-41" x2="75.8" y2="-41"/>
		<line class="st2" x1="75.5" y1="-37.8" x2="75.5" y2="-37.8"/>
		<line class="st2" x1="72.8" y1="-33.5" x2="72.8" y2="-33.5"/>
		<line class="st2" x1="74" y1="-29.5" x2="74" y2="-29.5"/>
		<line class="st2" x1="68.8" y1="-29" x2="68.8" y2="-29"/>
		<line class="st2" x1="71.5" y1="-26.8" x2="71.5" y2="-26.8"/>
		<line class="st2" x1="77" y1="-26.5" x2="77" y2="-26.5"/>
		<line class="st2" x1="76.8" y1="-32.3" x2="76.8" y2="-32.3"/>
		<line class="st2" x1="61.3" y1="-26.8" x2="61.3" y2="-26.8"/>
		<line class="st2" x1="73" y1="-23" x2="73" y2="-23"/>
		<line class="st2" x1="18" y1="-17" x2="18" y2="-17"/>
		<line class="st2" x1="19" y1="-21.5" x2="19" y2="-21.5"/>
		<line class="st2" x1="22.3" y1="-22.8" x2="22.3" y2="-22.8"/>
		<line class="st2" x1="21.3" y1="-18.8" x2="21.3" y2="-18.8"/>
		<line class="st2" x1="24.8" y1="-16.8" x2="24.8" y2="-16.8"/>
		<line class="st2" x1="24.8" y1="-12.8" x2="24.8" y2="-12.8"/>
		<line class="st2" x1="20.8" y1="-14.5" x2="20.8" y2="-14.5"/>
		<line class="st2" x1="28.3" y1="-15.8" x2="28.3" y2="-15.8"/>
		<line class="st2" x1="28.5" y1="-12.8" x2="28.5" y2="-12.8"/>
		<line class="st2" x1="30.3" y1="-19" x2="30.3" y2="-19"/>
		<line class="st2" x1="33.3" y1="-21.3" x2="33.3" y2="-21.3"/>
		<line class="st2" x1="30.3" y1="-19" x2="30.3" y2="-19"/>
		<line class="st2" x1="33.5" y1="-17.5" x2="33.5" y2="-17.5"/>
		<line class="st2" x1="36.5" y1="-13.3" x2="36.5" y2="-13.3"/>
		<line class="st2" x1="31.5" y1="-14.3" x2="31.5" y2="-14.3"/>
		<line class="st2" x1="37.3" y1="-16.3" x2="37.3" y2="-16.3"/>
		<line class="st2" x1="37" y1="-20.8" x2="37" y2="-20.8"/>
		<line class="st2" x1="41.3" y1="-22.5" x2="41.3" y2="-22.5"/>
		<line class="st2" x1="40.5" y1="-19.5" x2="40.5" y2="-19.5"/>
		<line class="st2" x1="41.8" y1="-15.8" x2="41.8" y2="-15.8"/>
		<line class="st2" x1="45.5" y1="-18.3" x2="45.5" y2="-18.3"/>
		<line class="st2" x1="45.3" y1="-12.8" x2="45.3" y2="-12.8"/>
		<line class="st2" x1="45.8" y1="-21.8" x2="45.8" y2="-21.8"/>
		<line class="st2" x1="49.3" y1="-20" x2="49.3" y2="-20"/>
		<line class="st2" x1="26" y1="-20.8" x2="26" y2="-20.8"/>
		<line class="st2" x1="48.3" y1="-16" x2="48.3" y2="-16"/>
		<line class="st2" x1="12" y1="-9.3" x2="12" y2="-9.3"/>
		<line class="st2" x1="14.8" y1="-10.5" x2="14.8" y2="-10.5"/>
		<line class="st2" x1="13.8" y1="-6.5" x2="13.8" y2="-6.5"/>
		<line class="st2" x1="22.8" y1="-6.8" x2="22.8" y2="-6.8"/>
		<line class="st2" x1="21.5" y1="-10.8" x2="21.5" y2="-10.8"/>
		<line class="st2" x1="25.8" y1="-9" x2="25.8" y2="-9"/>
		<line class="st2" x1="22.8" y1="-6.8" x2="22.8" y2="-6.8"/>
		<line class="st2" x1="29.5" y1="-9.5" x2="29.5" y2="-9.5"/>
		<line class="st2" x1="33.8" y1="-10.3" x2="33.8" y2="-10.3"/>
		<line class="st2" x1="33" y1="-7.3" x2="33" y2="-7.3"/>
		<line class="st2" x1="38" y1="-6" x2="38" y2="-6"/>
		<line class="st2" x1="38.3" y1="-9.5" x2="38.3" y2="-9.5"/>
		<line class="st2" x1="42.3" y1="-7" x2="42.3" y2="-7"/>
		<line class="st2" x1="45.5" y1="-8.5" x2="45.5" y2="-8.5"/>
		<line class="st2" x1="18.5" y1="-8.5" x2="18.5" y2="-8.5"/>
		<line class="st2" x1="52.8" y1="-23.5" x2="52.8" y2="-23.5"/>
		<line class="st2" x1="55.3" y1="-17.3" x2="55.3" y2="-17.3"/>
		<line class="st2" x1="55.8" y1="-21.3" x2="55.8" y2="-21.3"/>
		<line class="st2" x1="60.5" y1="-22.3" x2="60.5" y2="-22.3"/>
		<line class="st2" x1="61.3" y1="-17.5" x2="61.3" y2="-17.5"/>
		<line class="st2" x1="58.3" y1="-14.8" x2="58.3" y2="-14.8"/>
		<line class="st2" x1="55" y1="-13" x2="55" y2="-13"/>
		<line class="st2" x1="55.3" y1="-17.3" x2="55.3" y2="-17.3"/>
		<line class="st2" x1="53" y1="-9.8" x2="53" y2="-9.8"/>
		<line class="st2" x1="57.8" y1="-10" x2="57.8" y2="-10"/>
		<line class="st2" x1="61.3" y1="-8.8" x2="61.3" y2="-8.8"/>
		<line class="st2" x1="61.5" y1="-13.3" x2="61.5" y2="-13.3"/>
		<line class="st2" x1="11.5" y1="-18.5" x2="11.5" y2="-18.5"/>
		<line class="st2" x1="14.5" y1="-14.8" x2="14.5" y2="-14.8"/>
		<line class="st2" x1="15" y1="-19.5" x2="15" y2="-19.5"/>
		<line class="st2" x1="81.3" y1="-6.8" x2="81.3" y2="-6.8"/>
		<line class="st2" x1="78" y1="-8.3" x2="78" y2="-8.3"/>
		<line class="st2" x1="84" y1="-9.3" x2="84" y2="-9.3"/>
		<line class="st2" x1="80.8" y1="-22" x2="80.8" y2="-22"/>
		<line class="st2" x1="80.5" y1="-16.8" x2="80.5" y2="-16.8"/>
		<line class="st2" x1="80.8" y1="-22" x2="80.8" y2="-22"/>
		<line class="st2" x1="82.3" y1="-13" x2="82.3" y2="-13"/>
		<line class="st2" x1="50.5" y1="-12.5" x2="50.5" y2="-12.5"/>
		<line class="st2" x1="49" y1="-9.5" x2="49" y2="-9.5"/>
		<line class="st2" x1="64.3" y1="-15.3" x2="64.3" y2="-15.3"/>
		<line class="st2" x1="67.3" y1="-14.8" x2="67.3" y2="-14.8"/>
		<line class="st2" x1="64.8" y1="-10.8" x2="64.8" y2="-10.8"/>
		<line class="st2" x1="68.8" y1="-11" x2="68.8" y2="-11"/>
		<line class="st2" x1="64.3" y1="-15.3" x2="64.3" y2="-15.3"/>
		<line class="st2" x1="67.3" y1="-14.8" x2="67.3" y2="-14.8"/>
		<line class="st2" x1="65" y1="-19.3" x2="65" y2="-19.3"/>
		<line class="st2" x1="69" y1="-17.8" x2="69" y2="-17.8"/>
		<line class="st2" x1="71.3" y1="-14.5" x2="71.3" y2="-14.5"/>
		<line class="st2" x1="73.3" y1="-12.3" x2="73.3" y2="-12.3"/>
		<line class="st2" x1="73.8" y1="-8.3" x2="73.8" y2="-8.3"/>
		<line class="st2" x1="75.8" y1="-15.8" x2="75.8" y2="-15.8"/>
		<line class="st2" x1="74" y1="-18.3" x2="74" y2="-18.3"/>
		<line class="st2" x1="69.8" y1="-21.3" x2="69.8" y2="-21.3"/>
		<line class="st2" x1="77.8" y1="-19.5" x2="77.8" y2="-19.5"/>
		<line class="st2" x1="78" y1="-12.3" x2="78" y2="-12.3"/>
		<line class="st2" x1="64.8" y1="-22.8" x2="64.8" y2="-22.8"/>
		<line class="st2" x1="69.5" y1="-7.5" x2="69.5" y2="-7.5"/>
		<line class="st2" x1="75.5" y1="-5.5" x2="75.5" y2="-5.5"/>
		<line class="st2" x1="76.5" y1="-23" x2="76.5" y2="-23"/>
		<line class="st2" x1="20.8" y1="-49.5" x2="20.8" y2="-49.5"/>
		<line class="st2" x1="17" y1="-13" x2="17" y2="-13"/>
		<line class="st2" x1="41.5" y1="-12" x2="41.5" y2="-12"/>
		<line class="st2" x1="51.8" y1="-17.5" x2="51.8" y2="-17.5"/>
		<line class="st2" x1="58.5" y1="-19" x2="58.5" y2="-19"/>
		<line class="st2" x1="52.3" y1="-3" x2="52.3" y2="-3"/>
		<line class="st2" x1="52.3" y1="-75" x2="52.3" y2="-75"/>
		<line class="st2" x1="79" y1="-75.3" x2="79" y2="-75.3"/>
		<line class="st2" x1="66.3" y1="-74.3" x2="66.3" y2="-74.3"/>
		<line class="st2" x1="22.8" y1="-1.8" x2="22.8" y2="-1.8"/>
		<line class="st2" x1="32.5" y1="-2" x2="32.5" y2="-2"/>
		<line class="st2" x1="28.3" y1="-1.3" x2="28.3" y2="-1.3"/>
		<line class="st2" x1="39" y1="-1.3" x2="39" y2="-1.3"/>
		<line class="st2" x1="66.3" y1="-2.3" x2="66.3" y2="-2.3"/>
		<line class="st2" x1="19" y1="-1.8" x2="19" y2="-1.8"/>
		<line class="st2" x1="66.3" y1="-2.3" x2="66.3" y2="-2.3"/>
		<line class="st2" x1="83.8" y1="-65.5" x2="83.8" y2="-65.5"/>
		<line class="st2" x1="84" y1="-62.3" x2="84" y2="-62.3"/>
		<line class="st2" x1="84.3" y1="-55" x2="84.3" y2="-55"/>
		<line class="st2" x1="83.5" y1="-51.8" x2="83.5" y2="-51.8"/>
		<line class="st2" x1="84" y1="-3.8" x2="84" y2="-3.8"/>
		<line class="st2" x1="10" y1="-72.5" x2="10" y2="-72.5"/>
		<line class="st2" x1="12.5" y1="-22.5" x2="12.5" y2="-22.5"/>
		<line class="st2" x1="12" y1="-75.8" x2="12" y2="-75.8"/>
		<line class="st2" x1="84.5" y1="-29.3" x2="84.5" y2="-29.3"/>
		<line class="st2" x1="83.5" y1="-18.5" x2="83.5" y2="-18.5"/>
		<line class="st2" x1="84.5" y1="-22.5" x2="84.5" y2="-22.5"/>
		<line class="st2" x1="57.5" y1="-4" x2="57.5" y2="-4"/>
		<line class="st2" x1="51.8" y1="-6.5" x2="51.8" y2="-6.5"/>
		<line class="st2" x1="10.3" y1="-13" x2="10.3" y2="-13"/>
		
	</g>
</pattern>
<g class="st3">
	
	<pattern id="SVGID_1_" xlink:href="#USGS_20_Scrub" patternTransform="matrix(1 0 0 1 0 144.4111)">
	</pattern>
	
</g>






<g>
	<g class="st6">
		<path class="st7" d="M1137.9,216.4c-10.1,0-19.7-2.1-28.4-6.4c-8.6-4.2-16.1-9.8-22.4-16.7c-6.2-6.9-11.2-14.9-14.7-23.8    c-3.6-9-5.4-18.3-5.4-27.8c0.1-9.6,2.2-18.9,6.1-27.7c3.9-8.7,9.2-16.5,15.7-23.1c6.5-6.7,14.2-12.1,22.6-16.1    c8.7-4.1,17.9-6.2,27.5-6.2c5.4,0,10.8,0.7,16.2,2c5.4,1.3,10.5,3.2,15.2,5.6c4.7,2.4,9.1,5.4,13.2,8.8c4.1,3.4,7.8,7.4,11.1,11.9    l3.7,5.1l-36.8,24.6l42.2,10.6l0.5,4.1c0.4,3.5,0.6,6.8,0.6,9.9c0,10.1-1.8,19.3-5.4,27.3c-3.6,8.1-8.5,15-14.7,20.7    c-6.2,5.7-13.4,10.1-21.4,13C1155.4,215,1146.9,216.4,1137.9,216.4z M1142.4,117.2c-3.4,0-6.5,0.7-9.6,2.1    c-3.2,1.4-5.8,3.3-8.2,5.9c-2.4,2.6-4.4,5.5-5.8,8.7c-1.4,3.1-2.1,6.2-2.1,9.4c0,3.6,0.7,6.7,2.1,9.5c1.5,3,3.4,5.6,5.8,7.8    c2.3,2.2,5,3.9,7.9,5c2.9,1.2,5.8,1.7,8.8,1.7c2.8,0,5.5-0.6,8.1-2l-26-7.1l14.6-37.8l20.1,5l-1.7-2.2c-1.6-2.2-3.5-3.7-5.8-4.6    C1147.9,117.7,1145.3,117.2,1142.4,117.2z"/>
		<path class="st7" d="M1136.9,215.4c-10.1,0-19.7-2.1-28.4-6.4c-8.6-4.2-16.1-9.8-22.4-16.7c-6.2-6.9-11.2-14.9-14.7-23.8    c-3.6-9-5.4-18.3-5.4-27.8c0.1-9.6,2.2-18.9,6.1-27.7c3.9-8.7,9.2-16.5,15.7-23.1c6.5-6.7,14.2-12.1,22.6-16.1    c8.7-4.1,17.9-6.2,27.5-6.2c5.4,0,10.8,0.7,16.2,2c5.4,1.3,10.5,3.2,15.2,5.6c4.7,2.4,9.1,5.4,13.2,8.8c4.1,3.4,7.8,7.4,11.1,11.9    l3.7,5.1l-36.8,24.6l42.2,10.6l0.5,4.1c0.4,3.5,0.6,6.8,0.6,9.9c0,10.1-1.8,19.3-5.4,27.3c-3.6,8.1-8.5,15-14.7,20.7    c-6.2,5.7-13.4,10.1-21.4,13C1154.4,214,1145.9,215.4,1136.9,215.4z M1141.4,116.2c-3.4,0-6.5,0.7-9.6,2.1    c-3.2,1.4-5.8,3.3-8.2,5.9c-2.4,2.6-4.4,5.5-5.8,8.7c-1.4,3.1-2.1,6.2-2.1,9.4c0,3.6,0.7,6.7,2.1,9.5c1.5,3,3.4,5.6,5.8,7.8    c2.3,2.2,5,3.9,7.9,5c2.9,1.2,5.8,1.7,8.8,1.7c2.8,0,5.5-0.6,8.1-2l-26-7.1l14.6-37.8l20.1,5l-1.7-2.2c-1.6-2.2-3.5-3.7-5.8-4.6    C1146.9,116.7,1144.3,116.2,1141.4,116.2z"/>
		<path class="st7" d="M1135.9,214.4c-10.1,0-19.7-2.1-28.4-6.4c-8.6-4.2-16.1-9.8-22.4-16.7c-6.2-6.9-11.2-14.9-14.7-23.8    c-3.6-9-5.4-18.3-5.4-27.8c0.1-9.6,2.2-18.9,6.1-27.7c3.9-8.7,9.2-16.5,15.7-23.1c6.5-6.7,14.2-12.1,22.6-16.1    c8.7-4.1,17.9-6.2,27.5-6.2c5.4,0,10.8,0.7,16.2,2c5.4,1.3,10.5,3.2,15.2,5.6c4.7,2.4,9.1,5.4,13.2,8.8c4.1,3.4,7.8,7.4,11.1,11.9    l3.7,5.1l-36.8,24.6l42.2,10.6l0.5,4.1c0.4,3.5,0.6,6.8,0.6,9.9c0,10.1-1.8,19.3-5.4,27.3c-3.6,8.1-8.5,15-14.7,20.7    c-6.2,5.7-13.4,10.1-21.4,13C1153.4,213,1144.9,214.4,1135.9,214.4z M1140.4,115.2c-3.4,0-6.5,0.7-9.6,2.1    c-3.2,1.4-5.8,3.3-8.2,5.9c-2.4,2.6-4.4,5.5-5.8,8.7c-1.4,3.1-2.1,6.2-2.1,9.4c0,3.6,0.7,6.7,2.1,9.5c1.5,3,3.4,5.6,5.8,7.8    c2.3,2.2,5,3.9,7.9,5c2.9,1.2,5.8,1.7,8.8,1.7c2.8,0,5.5-0.6,8.1-2l-26-7.1l14.6-37.8l20.1,5l-1.7-2.2c-1.6-2.2-3.5-3.7-5.8-4.6    C1145.9,115.7,1143.3,115.2,1140.4,115.2z"/>
		<path class="st7" d="M1134.9,213.4c-10.1,0-19.7-2.1-28.4-6.4c-8.6-4.2-16.1-9.8-22.4-16.7c-6.2-6.9-11.2-14.9-14.7-23.8    c-3.6-9-5.4-18.3-5.4-27.8c0.1-9.6,2.2-18.9,6.1-27.7c3.9-8.7,9.2-16.5,15.7-23.1c6.5-6.7,14.2-12.1,22.6-16.1    c8.7-4.1,17.9-6.2,27.5-6.2c5.4,0,10.8,0.7,16.2,2c5.4,1.3,10.5,3.2,15.2,5.6c4.7,2.4,9.1,5.4,13.2,8.8c4.1,3.4,7.8,7.4,11.1,11.9    l3.7,5.1l-36.8,24.6l42.2,10.6l0.5,4.1c0.4,3.5,0.6,6.8,0.6,9.9c0,10.1-1.8,19.3-5.4,27.3c-3.6,8.1-8.5,15-14.7,20.7    c-6.2,5.7-13.4,10.1-21.4,13C1152.4,212,1143.9,213.4,1134.9,213.4z M1139.4,114.2c-3.4,0-6.5,0.7-9.6,2.1    c-3.2,1.4-5.8,3.3-8.2,5.9c-2.4,2.6-4.4,5.5-5.8,8.7c-1.4,3.1-2.1,6.2-2.1,9.4c0,3.6,0.7,6.7,2.1,9.5c1.5,3,3.4,5.6,5.8,7.8    c2.3,2.2,5,3.9,7.9,5c2.9,1.2,5.8,1.7,8.8,1.7c2.8,0,5.5-0.6,8.1-2l-26-7.1l14.6-37.8l20.1,5l-1.7-2.2c-1.6-2.2-3.5-3.7-5.8-4.6    C1144.9,114.7,1142.3,114.2,1139.4,114.2z"/>
		<path class="st7" d="M1133.9,212.4c-10.1,0-19.7-2.1-28.4-6.4c-8.6-4.2-16.1-9.8-22.4-16.7c-6.2-6.9-11.2-14.9-14.7-23.8    c-3.6-9-5.4-18.3-5.4-27.8c0.1-9.6,2.2-18.9,6.1-27.7c3.9-8.7,9.2-16.5,15.7-23.1c6.5-6.7,14.2-12.1,22.6-16.1    c8.7-4.1,17.9-6.2,27.5-6.2c5.4,0,10.8,0.7,16.2,2c5.4,1.3,10.5,3.2,15.2,5.6c4.7,2.4,9.1,5.4,13.2,8.8c4.1,3.4,7.8,7.4,11.1,11.9    l3.7,5.1l-36.8,24.6l42.2,10.6l0.5,4.1c0.4,3.5,0.6,6.8,0.6,9.9c0,10.1-1.8,19.3-5.4,27.3c-3.6,8.1-8.5,15-14.7,20.7    c-6.2,5.7-13.4,10.1-21.4,13C1151.4,211,1142.9,212.4,1133.9,212.4z M1138.4,113.2c-3.4,0-6.5,0.7-9.6,2.1    c-3.2,1.4-5.8,3.3-8.2,5.9c-2.4,2.6-4.4,5.5-5.8,8.7c-1.4,3.1-2.1,6.2-2.1,9.4c0,3.6,0.7,6.7,2.1,9.5c1.5,3,3.4,5.6,5.8,7.8    c2.3,2.2,5,3.9,7.9,5c2.9,1.2,5.8,1.7,8.8,1.7c2.8,0,5.5-0.6,8.1-2l-26-7.1l14.6-37.8l20.1,5l-1.7-2.2c-1.6-2.2-3.5-3.7-5.8-4.6    C1143.9,113.7,1141.3,113.2,1138.4,113.2z"/>
		<path class="st7" d="M1132.9,211.4c-10.1,0-19.7-2.1-28.4-6.4c-8.6-4.2-16.1-9.8-22.4-16.7c-6.2-6.9-11.2-14.9-14.7-23.8    c-3.6-9-5.4-18.3-5.4-27.8c0.1-9.6,2.2-18.9,6.1-27.7c3.9-8.7,9.2-16.5,15.7-23.1c6.5-6.7,14.2-12.1,22.6-16.1    c8.7-4.1,17.9-6.2,27.5-6.2c5.4,0,10.8,0.7,16.2,2c5.4,1.3,10.5,3.2,15.2,5.6c4.7,2.4,9.1,5.4,13.2,8.8c4.1,3.4,7.8,7.4,11.1,11.9    l3.7,5.1l-36.8,24.6l42.2,10.6l0.5,4.1c0.4,3.5,0.6,6.8,0.6,9.9c0,10.1-1.8,19.3-5.4,27.3c-3.6,8.1-8.5,15-14.7,20.7    c-6.2,5.7-13.4,10.1-21.4,13C1150.4,210,1141.9,211.4,1132.9,211.4z M1137.4,112.2c-3.4,0-6.5,0.7-9.6,2.1    c-3.2,1.4-5.8,3.3-8.2,5.9c-2.4,2.6-4.4,5.5-5.8,8.7c-1.4,3.1-2.1,6.2-2.1,9.4c0,3.6,0.7,6.7,2.1,9.5c1.5,3,3.4,5.6,5.8,7.8    c2.3,2.2,5,3.9,7.9,5c2.9,1.2,5.8,1.7,8.8,1.7c2.8,0,5.5-0.6,8.1-2l-26-7.1l14.6-37.8l20.1,5l-1.7-2.2c-1.6-2.2-3.5-3.7-5.8-4.6    C1142.9,112.7,1140.3,112.2,1137.4,112.2z"/>
	</g>
	<path class="st8" d="M1132.9,212.4c-10.3,0-20-2.2-28.8-6.5c-8.7-4.2-16.3-9.9-22.7-16.9c-6.3-7-11.3-15.1-14.9-24.1   c-3.6-9.1-5.5-18.6-5.5-28.2c0.1-9.8,2.2-19.2,6.2-28.1c3.9-8.8,9.3-16.7,15.9-23.4c6.6-6.8,14.3-12.2,22.9-16.3   c8.8-4.2,18.2-6.3,28-6.3c5.5,0,11,0.7,16.4,2c5.4,1.3,10.6,3.3,15.4,5.7c4.8,2.5,9.3,5.4,13.4,8.9c4.1,3.5,7.9,7.5,11.2,12   l4.3,5.9l-35.8,23.9l40.7,10.2l0.5,4.8c0.4,3.5,0.6,6.8,0.6,10c0,10.2-1.8,19.5-5.5,27.7c-3.6,8.2-8.6,15.3-14.9,21.1   c-6.3,5.8-13.6,10.2-21.8,13.2C1150.7,211,1142,212.4,1132.9,212.4z M1120.2,155c2.3,2.1,4.7,3.7,7.6,4.8c2.8,1.1,5.5,1.7,8.4,1.7   c1.7,0,3.4-0.3,5-0.8L1120.2,155C1120.2,155,1120.2,155,1120.2,155z M1137.4,113.2c-3.2,0-6.2,0.7-9.2,2c-3,1.4-5.6,3.2-7.9,5.6   c-2.3,2.5-4.3,5.3-5.7,8.5c-1.3,3-2,5.9-2,9c0,3.4,0.7,6.4,2,9.1c0.8,1.7,1.8,3.3,3,4.8l14.6-37.8l18.2,4.6c-1.5-2-3.3-3.4-5.3-4.2   C1142.6,113.7,1140.1,113.2,1137.4,113.2z"/>
	<path class="st9" d="M1132.9,210.4c-10,0-19.4-2.1-28-6.3c-8.5-4.1-15.9-9.7-22.1-16.5c-6.1-6.8-11-14.7-14.6-23.5   c-3.5-8.8-5.3-18.1-5.3-27.5c0.1-9.5,2.2-18.7,6-27.3c3.8-8.6,9.1-16.2,15.5-22.8c6.5-6.6,14-11.9,22.4-15.9   c8.5-4,17.6-6.1,27.1-6.1c5.3,0,10.7,0.7,16,1.9c5.3,1.3,10.3,3.2,15,5.6c4.6,2.4,9,5.3,13,8.6c4,3.4,7.7,7.3,10.9,11.7l3.1,4.2   l-37.1,24.8l-2.8-3.7c-1.8-2.3-3.8-3.9-6.2-4.9c-2.6-1.1-5.5-1.6-8.4-1.6c-3.5,0-6.8,0.7-10,2.2c-3.2,1.5-6.1,3.5-8.5,6.1   c-2.5,2.7-4.5,5.7-6,9c-1.4,3.2-2.2,6.5-2.2,9.8c0,3.7,0.7,7,2.2,10c1.5,3.1,3.5,5.8,6,8.1c2.4,2.3,5.2,4,8.2,5.2   c3,1.2,6.1,1.8,9.1,1.8c3,0,5.8-0.7,8.6-2.1c0.7-0.4,1.4-0.8,2.1-1.2l-27.2-7.4l13.9-36l64.5,16.2l0.4,3.5c0.4,3.4,0.6,6.7,0.6,9.8   c0,9.9-1.8,19-5.3,26.9c-3.5,7.9-8.4,14.8-14.4,20.4c-6.1,5.6-13.2,9.9-21.1,12.8C1150.2,209,1141.7,210.4,1132.9,210.4z"/>
	<path class="st10" d="M1134.9,208.4c-9.4,0-18.2-2-26.2-5.9c-8-3.9-15-9.1-20.9-15.6c-5.8-6.4-10.5-13.9-13.8-22.3   c-3.3-8.4-5-17.1-5-26c0.1-8.9,2-17.5,5.7-25.7c3.6-8.1,8.6-15.4,14.7-21.7c6.1-6.2,13.3-11.3,21.2-15.1c8-3.8,16.5-5.7,25.4-5.7   c5,0,10,0.6,15,1.8c5,1.2,9.7,3,14.1,5.2c4.4,2.3,8.5,5,12.3,8.2c3.8,3.2,7.2,6.9,10.3,11l0.6,0.8l-30.5,20.4l-0.6-0.7   c-2.2-2.8-4.8-4.9-7.9-6.2c-3.1-1.3-6.4-1.9-9.9-1.9c-4,0-8,0.9-11.7,2.5c-3.7,1.7-7,4-9.8,7c-2.8,3-5.1,6.4-6.8,10.1   c-1.7,3.7-2.5,7.6-2.5,11.5c0,4.3,0.9,8.2,2.6,11.7c1.7,3.5,4,6.7,6.8,9.3c2.8,2.6,6,4.6,9.4,6c3.5,1.4,7,2.1,10.6,2.1   c3.6,0,7-0.8,10.4-2.5c3-1.5,5.6-3.8,7.8-6.9l-29.5-8l11-28.6l58.4,14.6l0.1,0.7c0.4,3.3,0.5,6.4,0.5,9.3c0,9.4-1.7,17.9-5,25.3   c-3.3,7.4-7.8,13.9-13.5,19.1c-5.7,5.2-12.3,9.3-19.7,11.9C1151.3,207.1,1143.3,208.4,1134.9,208.4z"/>
	<path class="st11" d="M1130.9,204.4c-9.4,0-18.2-2-26.2-5.9c-8-3.9-15-9.1-20.9-15.6c-5.8-6.4-10.5-13.9-13.8-22.3   c-3.3-8.4-5-17.1-5-26c0.1-8.9,2-17.5,5.7-25.7c3.6-8.1,8.6-15.4,14.7-21.7c6.1-6.2,13.3-11.3,21.2-15.1c8-3.8,16.5-5.7,25.4-5.7   c5,0,10,0.6,15,1.8c5,1.2,9.7,3,14.1,5.2c4.4,2.3,8.5,5,12.3,8.2c3.8,3.2,7.2,6.9,10.3,11l0.6,0.8l-30.5,20.4l-0.6-0.7   c-2.2-2.8-4.8-4.9-7.9-6.2c-3.1-1.3-6.4-1.9-9.9-1.9c-4,0-8,0.9-11.7,2.5c-3.7,1.7-7,4-9.8,7c-2.8,3-5.1,6.4-6.8,10.1   c-1.7,3.7-2.5,7.6-2.5,11.5c0,4.3,0.9,8.2,2.6,11.7c1.7,3.5,4,6.7,6.8,9.3c2.8,2.6,6,4.6,9.4,6c3.5,1.4,7,2.1,10.6,2.1   c3.6,0,7-0.8,10.4-2.5c3-1.5,5.6-3.8,7.8-6.9l-29.5-8l11-28.6l58.4,14.6l0.1,0.7c0.4,3.3,0.5,6.4,0.5,9.3c0,9.4-1.7,17.9-5,25.3   c-3.3,7.4-7.8,13.9-13.5,19.1c-5.7,5.2-12.3,9.3-19.7,11.9C1147.3,203.1,1139.3,204.4,1130.9,204.4z"/>
	<path class="st12" d="M1193.3,136.9c0.4,3.2,0.5,6.3,0.5,9.2c0,9.3-1.6,17.6-4.9,24.9c-3.2,7.3-7.7,13.6-13.3,18.8   c-5.6,5.2-12.1,9.1-19.4,11.7c-7.3,2.6-15.2,4-23.4,4c-9.3,0-17.9-1.9-25.8-5.8c-7.9-3.8-14.8-9-20.6-15.3   c-5.8-6.4-10.3-13.7-13.6-22c-3.3-8.3-5-16.8-5-25.6c0.1-8.8,2-17.2,5.6-25.3c3.6-8.1,8.4-15.2,14.5-21.4   c6.1-6.2,13-11.2,20.9-14.9c7.9-3.7,16.2-5.6,25-5.6c4.9,0,9.9,0.6,14.8,1.8c4.9,1.2,9.6,2.9,13.9,5.1c4.3,2.2,8.4,4.9,12.1,8   c3.7,3.1,7.1,6.7,10.1,10.8l-28.9,19.3c-2.3-3-5.1-5.2-8.3-6.5c-3.2-1.3-6.7-2-10.3-2c-4.2,0-8.2,0.9-12.1,2.6   c-3.8,1.7-7.2,4.1-10.1,7.2c-2.9,3.1-5.2,6.5-6.9,10.4c-1.7,3.9-2.6,7.8-2.6,11.9c0,4.5,0.9,8.5,2.7,12.2c1.8,3.7,4.1,6.9,7,9.6   c2.9,2.7,6.1,4.8,9.7,6.2c3.6,1.4,7.3,2.2,11,2.2c3.7,0,7.3-0.9,10.8-2.6c3.5-1.7,6.5-4.5,9-8.4l-29.8-8.1l10.3-26.7L1193.3,136.9z   "/>
</g>






















</svg>