<svg xmlns="http://www.w3.org/2000/svg" xmlns:xlink="http://www.w3.org/1999/xlink" version="1.1" id="Capa_1" x="0px" y="0px" viewBox="1020.3850524902343 271.98499755859376 174.12991943359376 169.22998657226563" style="enable-background:new 0 0 1400 980;" xml:space="preserve" width="100%" height="100%">
<style type="text/css">
	.st0{fill:none;}
	.st1{fill:none;stroke:#FFFFFF;stroke-width:2.2677;}
	.st2{fill:none;stroke:#251E25;stroke-width:2.6;stroke-linecap:round;}
	.st3{display:none;}
	.st4{display:inline;fill:url(#_x31_0_lpi_10_x25__white);stroke:#5D8780;stroke-miterlimit:10;}
	.st5{display:inline;opacity:9.000000e-02;fill:url(#SVGID_1_);stroke:#5D8780;stroke-miterlimit:10;}
	.st6{opacity:0.66;}
	.st7{fill:#0B050C;}
	.st8{fill:#8F2427;}
	.st9{fill:#EE2E3C;}
	.st10{fill:#A0452D;}
	.st11{fill:#F3E61E;}
	.st12{fill:#FDB728;}
</style>
<pattern width="72" height="72" patternUnits="userSpaceOnUse" id="_x31_0_lpi_10_x25__white" viewBox="72.5 -142.4 72 72" style="overflow:visible;">
	<g>
		
		<g>
			<line class="st1" x1="139.7" y1="-73.5" x2="212.4" y2="-0.8"/>
			<line class="st1" x1="144.8" y1="-78.6" x2="217.5" y2="-5.9"/>
		</g>
		<g>
			<line class="st1" x1="67.7" y1="-73.5" x2="140.4" y2="-0.8"/>
			<line class="st1" x1="77.9" y1="-83.7" x2="150.6" y2="-11"/>
			<line class="st1" x1="88.1" y1="-93.9" x2="160.4" y2="-21.2"/>
			<line class="st1" x1="72.8" y1="-78.6" x2="145.5" y2="-5.9"/>
			<line class="st1" x1="83" y1="-88.8" x2="155.7" y2="-16.1"/>
			<line class="st1" x1="92.8" y1="-99" x2="165.2" y2="-26.3"/>
		</g>
		<g>
			<line class="st1" x1="5.9" y1="-83.7" x2="78.6" y2="-11"/>
			<line class="st1" x1="16.1" y1="-93.9" x2="88.4" y2="-21.2"/>
			<line class="st1" x1="0.8" y1="-78.6" x2="73.5" y2="-5.9"/>
			<line class="st1" x1="11" y1="-88.8" x2="83.7" y2="-16.1"/>
			<line class="st1" x1="20.8" y1="-99" x2="93.2" y2="-26.3"/>
		</g>
		<g>
			<line class="st1" x1="118.7" y1="-125.1" x2="191.4" y2="-52.4"/>
			<line class="st1" x1="128.6" y1="-135.3" x2="201.3" y2="-62.6"/>
			<line class="st1" x1="139.7" y1="-145.5" x2="212.4" y2="-72.8"/>
			<line class="st1" x1="123.5" y1="-130.2" x2="196.2" y2="-57.5"/>
			<line class="st1" x1="134.6" y1="-140.4" x2="207.3" y2="-67.7"/>
			<line class="st1" x1="144.8" y1="-150.6" x2="217.5" y2="-77.9"/>
		</g>
		<g>
			<line class="st1" x1="46.7" y1="-125.1" x2="119.4" y2="-52.4"/>
			<line class="st1" x1="56.6" y1="-135.3" x2="129.3" y2="-62.6"/>
			<line class="st1" x1="67.7" y1="-145.5" x2="140.4" y2="-72.8"/>
			<line class="st1" x1="77.9" y1="-155.7" x2="150.6" y2="-83"/>
			<line class="st1" x1="88.1" y1="-165.9" x2="160.4" y2="-93.2"/>
			<line class="st1" x1="51.5" y1="-130.2" x2="124.2" y2="-57.5"/>
			<line class="st1" x1="62.6" y1="-140.4" x2="135.3" y2="-67.7"/>
			<line class="st1" x1="72.8" y1="-150.6" x2="145.5" y2="-77.9"/>
			<line class="st1" x1="83" y1="-160.8" x2="155.7" y2="-88.1"/>
			<line class="st1" x1="92.8" y1="-171" x2="165.2" y2="-98.3"/>
		</g>
		<g>
			<line class="st1" x1="5.9" y1="-155.7" x2="78.6" y2="-83"/>
			<line class="st1" x1="16.1" y1="-165.9" x2="88.4" y2="-93.2"/>
			<line class="st1" x1="0.8" y1="-150.6" x2="73.5" y2="-77.9"/>
			<line class="st1" x1="11" y1="-160.8" x2="83.7" y2="-88.1"/>
			<line class="st1" x1="20.8" y1="-171" x2="93.2" y2="-98.3"/>
		</g>
		<g>
			<line class="st1" x1="118.7" y1="-197.1" x2="191.4" y2="-124.4"/>
			<line class="st1" x1="128.6" y1="-207.3" x2="201.3" y2="-134.6"/>
			<line class="st1" x1="123.5" y1="-202.2" x2="196.2" y2="-129.5"/>
			<line class="st1" x1="134.6" y1="-212.4" x2="207.3" y2="-139.7"/>
		</g>
		<g>
			<line class="st1" x1="46.7" y1="-197.1" x2="119.4" y2="-124.4"/>
			<line class="st1" x1="56.6" y1="-207.3" x2="129.3" y2="-134.6"/>
			<line class="st1" x1="51.5" y1="-202.2" x2="124.2" y2="-129.5"/>
			<line class="st1" x1="62.6" y1="-212.4" x2="135.3" y2="-139.7"/>
		</g>
	</g>
</pattern>
<pattern width="72" height="72" patternUnits="userSpaceOnUse" id="USGS_20_Scrub" viewBox="11.3 -74.5 72 72" style="overflow:visible;">
	<g>
		
		<line class="st2" x1="34.5" y1="-68.8" x2="34.5" y2="-68.8"/>
		<line class="st2" x1="22.8" y1="-73.8" x2="22.8" y2="-73.8"/>
		<line class="st2" x1="25.8" y1="-66.8" x2="25.8" y2="-66.8"/>
		<line class="st2" x1="26" y1="-71" x2="26" y2="-71"/>
		<line class="st2" x1="29" y1="-67" x2="29" y2="-67"/>
		<line class="st2" x1="31.3" y1="-70.5" x2="31.3" y2="-70.5"/>
		<line class="st2" x1="32.5" y1="-74" x2="32.5" y2="-74"/>
		<line class="st2" x1="40.3" y1="-69.5" x2="40.3" y2="-69.5"/>
		<line class="st2" x1="36.3" y1="-71.3" x2="36.3" y2="-71.3"/>
		<line class="st2" x1="28.3" y1="-73.3" x2="28.3" y2="-73.3"/>
		<line class="st2" x1="39" y1="-73.3" x2="39" y2="-73.3"/>
		<line class="st2" x1="43" y1="-72.3" x2="43" y2="-72.3"/>
		<line class="st2" x1="40.3" y1="-69.5" x2="40.3" y2="-69.5"/>
		<line class="st2" x1="39.5" y1="-66.8" x2="39.5" y2="-66.8"/>
		<line class="st2" x1="37.5" y1="-63.8" x2="37.5" y2="-63.8"/>
		<line class="st2" x1="33.5" y1="-65.5" x2="33.5" y2="-65.5"/>
		<line class="st2" x1="33.3" y1="-62" x2="33.3" y2="-62"/>
		<line class="st2" x1="28.3" y1="-63" x2="28.3" y2="-63"/>
		<line class="st2" x1="31.5" y1="-59.8" x2="31.5" y2="-59.8"/>
		<line class="st2" x1="34" y1="-56" x2="34" y2="-56"/>
		<line class="st2" x1="36.8" y1="-55.3" x2="36.8" y2="-55.3"/>
		<line class="st2" x1="39.8" y1="-57" x2="39.8" y2="-57"/>
		<line class="st2" x1="39.3" y1="-60.3" x2="39.3" y2="-60.3"/>
		<line class="st2" x1="41.3" y1="-62.5" x2="41.3" y2="-62.5"/>
		<line class="st2" x1="45.5" y1="-62.5" x2="45.5" y2="-62.5"/>
		<line class="st2" x1="43.8" y1="-57.8" x2="43.8" y2="-57.8"/>
		<line class="st2" x1="46" y1="-54.3" x2="46" y2="-54.3"/>
		<line class="st2" x1="42.5" y1="-54" x2="42.5" y2="-54"/>
		<line class="st2" x1="39" y1="-53.3" x2="39" y2="-53.3"/>
		<line class="st2" x1="48.5" y1="-58.8" x2="48.5" y2="-58.8"/>
		<line class="st2" x1="43.3" y1="-66" x2="43.3" y2="-66"/>
		<line class="st2" x1="45.3" y1="-69" x2="45.3" y2="-69"/>
		<line class="st2" x1="48" y1="-72.5" x2="48" y2="-72.5"/>
		<line class="st2" x1="48.8" y1="-69.3" x2="48.8" y2="-69.3"/>
		<line class="st2" x1="48.5" y1="-66.3" x2="48.5" y2="-66.3"/>
		<line class="st2" x1="48.8" y1="-62.5" x2="48.8" y2="-62.5"/>
		<line class="st2" x1="52.3" y1="-70.8" x2="52.3" y2="-70.8"/>
		<line class="st2" x1="53" y1="-67" x2="53" y2="-67"/>
		<line class="st2" x1="52.5" y1="-63" x2="52.5" y2="-63"/>
		<line class="st2" x1="52.8" y1="-58.5" x2="52.8" y2="-58.5"/>
		<line class="st2" x1="54.3" y1="-55" x2="54.3" y2="-55"/>
		<line class="st2" x1="49.5" y1="-55.3" x2="49.5" y2="-55.3"/>
		<line class="st2" x1="50.8" y1="-50.8" x2="50.8" y2="-50.8"/>
		<line class="st2" x1="46.5" y1="-51" x2="46.5" y2="-51"/>
		<line class="st2" x1="58.3" y1="-53.5" x2="58.3" y2="-53.5"/>
		<line class="st2" x1="57.3" y1="-57" x2="57.3" y2="-57"/>
		<line class="st2" x1="56.3" y1="-60.5" x2="56.3" y2="-60.5"/>
		<line class="st2" x1="56.5" y1="-64.5" x2="56.5" y2="-64.5"/>
		<line class="st2" x1="56.3" y1="-68.8" x2="56.3" y2="-68.8"/>
		<line class="st2" x1="56" y1="-72" x2="56" y2="-72"/>
		<line class="st2" x1="61" y1="-73" x2="61" y2="-73"/>
		<line class="st2" x1="60.3" y1="-68.8" x2="60.3" y2="-68.8"/>
		<line class="st2" x1="63.8" y1="-68.8" x2="63.8" y2="-68.8"/>
		<line class="st2" x1="63.5" y1="-65.3" x2="63.5" y2="-65.3"/>
		<line class="st2" x1="59.8" y1="-65.5" x2="59.8" y2="-65.5"/>
		<line class="st2" x1="60" y1="-61" x2="60" y2="-61"/>
		<line class="st2" x1="63.5" y1="-61" x2="63.5" y2="-61"/>
		<line class="st2" x1="60.8" y1="-57.5" x2="60.8" y2="-57.5"/>
		<line class="st2" x1="62.3" y1="-53.3" x2="62.3" y2="-53.3"/>
		<line class="st2" x1="64" y1="-50" x2="64" y2="-50"/>
		<line class="st2" x1="66.5" y1="-52.8" x2="66.5" y2="-52.8"/>
		<line class="st2" x1="65" y1="-56.3" x2="65" y2="-56.3"/>
		<line class="st2" x1="67.3" y1="-59.3" x2="67.3" y2="-59.3"/>
		<line class="st2" x1="67.5" y1="-63.5" x2="67.5" y2="-63.5"/>
		<line class="st2" x1="67.8" y1="-68.5" x2="67.8" y2="-68.5"/>
		<line class="st2" x1="71" y1="-67.5" x2="71" y2="-67.5"/>
		<line class="st2" x1="69.3" y1="-72" x2="69.3" y2="-72"/>
		<line class="st2" x1="73" y1="-71" x2="73" y2="-71"/>
		<line class="st2" x1="76.3" y1="-72.8" x2="76.3" y2="-72.8"/>
		<line class="st2" x1="78.3" y1="-70.8" x2="78.3" y2="-70.8"/>
		<line class="st2" x1="74.8" y1="-67.8" x2="74.8" y2="-67.8"/>
		<line class="st2" x1="74" y1="-64" x2="74" y2="-64"/>
		<line class="st2" x1="71.3" y1="-61.8" x2="71.3" y2="-61.8"/>
		<line class="st2" x1="73.8" y1="-59" x2="73.8" y2="-59"/>
		<line class="st2" x1="77.5" y1="-58" x2="77.5" y2="-58"/>
		<line class="st2" x1="75.5" y1="-55.8" x2="75.5" y2="-55.8"/>
		<line class="st2" x1="72" y1="-55.3" x2="72" y2="-55.3"/>
		<line class="st2" x1="69.3" y1="-55.8" x2="69.3" y2="-55.8"/>
		<line class="st2" x1="71" y1="-51.5" x2="71" y2="-51.5"/>
		<line class="st2" x1="75.5" y1="-52.8" x2="75.5" y2="-52.8"/>
		<line class="st2" x1="79.8" y1="-51.8" x2="79.8" y2="-51.8"/>
		<line class="st2" x1="79.8" y1="-55.3" x2="79.8" y2="-55.3"/>
		<line class="st2" x1="76.8" y1="-62" x2="76.8" y2="-62"/>
		<line class="st2" x1="77.5" y1="-65.8" x2="77.5" y2="-65.8"/>
		<line class="st2" x1="81" y1="-67.8" x2="81" y2="-67.8"/>
		<line class="st2" x1="82" y1="-72.5" x2="82" y2="-72.5"/>
		<line class="st2" x1="81" y1="-61.3" x2="81" y2="-61.3"/>
		<line class="st2" x1="82.8" y1="-57.8" x2="82.8" y2="-57.8"/>
		<line class="st2" x1="67.8" y1="-68.5" x2="67.8" y2="-68.5"/>
		<line class="st2" x1="69.3" y1="-72" x2="69.3" y2="-72"/>
		<line class="st2" x1="66.3" y1="-74.3" x2="66.3" y2="-74.3"/>
		<line class="st2" x1="65.3" y1="-71.3" x2="65.3" y2="-71.3"/>
		<line class="st2" x1="35.3" y1="-51.8" x2="35.3" y2="-51.8"/>
		<line class="st2" x1="31.3" y1="-54.5" x2="31.3" y2="-54.5"/>
		<line class="st2" x1="27.3" y1="-53.5" x2="27.3" y2="-53.5"/>
		<line class="st2" x1="28.3" y1="-57.5" x2="28.3" y2="-57.5"/>
		<line class="st2" x1="26" y1="-60.5" x2="26" y2="-60.5"/>
		<line class="st2" x1="23.8" y1="-63.3" x2="23.8" y2="-63.3"/>
		<line class="st2" x1="23.8" y1="-57" x2="23.8" y2="-57"/>
		<line class="st2" x1="27.3" y1="-53.5" x2="27.3" y2="-53.5"/>
		<line class="st2" x1="29.8" y1="-51.3" x2="29.8" y2="-51.3"/>
		<line class="st2" x1="25.3" y1="-49.8" x2="25.3" y2="-49.8"/>
		<line class="st2" x1="22.8" y1="-52.8" x2="22.8" y2="-52.8"/>
		<line class="st2" x1="35.3" y1="-59.3" x2="35.3" y2="-59.3"/>
		<line class="st2" x1="13.3" y1="-68.8" x2="13.3" y2="-68.8"/>
		<line class="st2" x1="11.8" y1="-65.5" x2="11.8" y2="-65.5"/>
		<line class="st2" x1="12" y1="-62.3" x2="12" y2="-62.3"/>
		<line class="st2" x1="14.5" y1="-59.3" x2="14.5" y2="-59.3"/>
		<line class="st2" x1="10.8" y1="-57.8" x2="10.8" y2="-57.8"/>
		<line class="st2" x1="12.3" y1="-55" x2="12.3" y2="-55"/>
		<line class="st2" x1="11.5" y1="-51.8" x2="11.5" y2="-51.8"/>
		<line class="st2" x1="16.5" y1="-56" x2="16.5" y2="-56"/>
		<line class="st2" x1="15" y1="-62.8" x2="15" y2="-62.8"/>
		<line class="st2" x1="19" y1="-73.8" x2="19" y2="-73.8"/>
		<line class="st2" x1="20.3" y1="-70" x2="20.3" y2="-70"/>
		<line class="st2" x1="17" y1="-69.5" x2="17" y2="-69.5"/>
		<line class="st2" x1="17.3" y1="-66.3" x2="17.3" y2="-66.3"/>
		<line class="st2" x1="22" y1="-67" x2="22" y2="-67"/>
		<line class="st2" x1="15" y1="-72.3" x2="15" y2="-72.3"/>
		<line class="st2" x1="18.3" y1="-61.5" x2="18.3" y2="-61.5"/>
		<line class="st2" x1="21" y1="-63.8" x2="21" y2="-63.8"/>
		<line class="st2" x1="21" y1="-59.8" x2="21" y2="-59.8"/>
		<line class="st2" x1="23.8" y1="-57" x2="23.8" y2="-57"/>
		<line class="st2" x1="19.5" y1="-55.3" x2="19.5" y2="-55.3"/>
		<line class="st2" x1="17" y1="-49.8" x2="17" y2="-49.8"/>
		<line class="st2" x1="16.3" y1="-52.8" x2="16.3" y2="-52.8"/>
		<line class="st2" x1="26.3" y1="-4" x2="26.3" y2="-4"/>
		<line class="st2" x1="26.3" y1="-4" x2="26.3" y2="-4"/>
		<line class="st2" x1="29.8" y1="-5" x2="29.8" y2="-5"/>
		<line class="st2" x1="35.3" y1="-4" x2="35.3" y2="-4"/>
		<line class="st2" x1="40.5" y1="-4.5" x2="40.5" y2="-4.5"/>
		<line class="st2" x1="44" y1="-4" x2="44" y2="-4"/>
		<line class="st2" x1="49" y1="-4.5" x2="49" y2="-4.5"/>
		<line class="st2" x1="56.3" y1="-7.3" x2="56.3" y2="-7.3"/>
		<line class="st2" x1="61" y1="-5.5" x2="61" y2="-5.5"/>
		<line class="st2" x1="71" y1="-4" x2="71" y2="-4"/>
		<line class="st2" x1="79" y1="-3.3" x2="79" y2="-3.3"/>
		<line class="st2" x1="66.3" y1="-2.3" x2="66.3" y2="-2.3"/>
		<line class="st2" x1="65" y1="-6" x2="65" y2="-6"/>
		<line class="st2" x1="12" y1="-3.8" x2="12" y2="-3.8"/>
		<line class="st2" x1="21.5" y1="-5" x2="21.5" y2="-5"/>
		<line class="st2" x1="17" y1="-4.8" x2="17" y2="-4.8"/>
		<line class="st2" x1="33.3" y1="-49" x2="33.3" y2="-49"/>
		<line class="st2" x1="37.8" y1="-48" x2="37.8" y2="-48"/>
		<line class="st2" x1="41.5" y1="-50" x2="41.5" y2="-50"/>
		<line class="st2" x1="40.3" y1="-46" x2="40.3" y2="-46"/>
		<line class="st2" x1="37.5" y1="-44" x2="37.5" y2="-44"/>
		<line class="st2" x1="34" y1="-44.8" x2="34" y2="-44.8"/>
		<line class="st2" x1="30.8" y1="-44" x2="30.8" y2="-44"/>
		<line class="st2" x1="29.3" y1="-47.8" x2="29.3" y2="-47.8"/>
		<line class="st2" x1="27.3" y1="-45.3" x2="27.3" y2="-45.3"/>
		<line class="st2" x1="24" y1="-46.5" x2="24" y2="-46.5"/>
		<line class="st2" x1="20.8" y1="-45" x2="20.8" y2="-45"/>
		<line class="st2" x1="19.8" y1="-41.8" x2="19.8" y2="-41.8"/>
		<line class="st2" x1="21.3" y1="-37.5" x2="21.3" y2="-37.5"/>
		<line class="st2" x1="23.8" y1="-40" x2="23.8" y2="-40"/>
		<line class="st2" x1="26.5" y1="-42.5" x2="26.5" y2="-42.5"/>
		<line class="st2" x1="30.3" y1="-40.3" x2="30.3" y2="-40.3"/>
		<line class="st2" x1="27.3" y1="-37.8" x2="27.3" y2="-37.8"/>
		<line class="st2" x1="24.3" y1="-35" x2="24.3" y2="-35"/>
		<line class="st2" x1="21" y1="-33.3" x2="21" y2="-33.3"/>
		<line class="st2" x1="21.3" y1="-37.5" x2="21.3" y2="-37.5"/>
		<line class="st2" x1="18" y1="-36" x2="18" y2="-36"/>
		<line class="st2" x1="17" y1="-40.5" x2="17" y2="-40.5"/>
		<line class="st2" x1="16.8" y1="-45.8" x2="16.8" y2="-45.8"/>
		<line class="st2" x1="13.8" y1="-43.8" x2="13.8" y2="-43.8"/>
		<line class="st2" x1="13" y1="-39.8" x2="13" y2="-39.8"/>
		<line class="st2" x1="10.5" y1="-46.8" x2="10.5" y2="-46.8"/>
		<line class="st2" x1="13" y1="-48.3" x2="13" y2="-48.3"/>
		<line class="st2" x1="10.8" y1="-36.8" x2="10.8" y2="-36.8"/>
		<line class="st2" x1="14.3" y1="-36.3" x2="14.3" y2="-36.3"/>
		<line class="st2" x1="14.8" y1="-32.5" x2="14.8" y2="-32.5"/>
		<line class="st2" x1="10" y1="-32.8" x2="10" y2="-32.8"/>
		<line class="st2" x1="12.5" y1="-29.3" x2="12.5" y2="-29.3"/>
		<line class="st2" x1="14" y1="-26.5" x2="14" y2="-26.5"/>
		<line class="st2" x1="15" y1="-23.5" x2="15" y2="-23.5"/>
		<line class="st2" x1="18.5" y1="-25.5" x2="18.5" y2="-25.5"/>
		<line class="st2" x1="16.8" y1="-29.5" x2="16.8" y2="-29.5"/>
		<line class="st2" x1="20.8" y1="-29" x2="20.8" y2="-29"/>
		<line class="st2" x1="23.3" y1="-26" x2="23.3" y2="-26"/>
		<line class="st2" x1="26.3" y1="-25" x2="26.3" y2="-25"/>
		<line class="st2" x1="29" y1="-23.5" x2="29" y2="-23.5"/>
		<line class="st2" x1="23.8" y1="-30.3" x2="23.8" y2="-30.3"/>
		<line class="st2" x1="27.3" y1="-29" x2="27.3" y2="-29"/>
		<line class="st2" x1="30.5" y1="-28" x2="30.5" y2="-28"/>
		<line class="st2" x1="27.5" y1="-33.5" x2="27.5" y2="-33.5"/>
		<line class="st2" x1="31.5" y1="-32.5" x2="31.5" y2="-32.5"/>
		<line class="st2" x1="32.3" y1="-36.8" x2="32.3" y2="-36.8"/>
		<line class="st2" x1="34.8" y1="-33.8" x2="34.8" y2="-33.8"/>
		<line class="st2" x1="37.5" y1="-36.3" x2="37.5" y2="-36.3"/>
		<line class="st2" x1="33.8" y1="-29.8" x2="33.8" y2="-29.8"/>
		<line class="st2" x1="37.3" y1="-27.8" x2="37.3" y2="-27.8"/>
		<line class="st2" x1="37.3" y1="-23.8" x2="37.3" y2="-23.8"/>
		<line class="st2" x1="33.3" y1="-25.5" x2="33.3" y2="-25.5"/>
		<line class="st2" x1="40.8" y1="-26.8" x2="40.8" y2="-26.8"/>
		<line class="st2" x1="42.8" y1="-30" x2="42.8" y2="-30"/>
		<line class="st2" x1="41.5" y1="-34" x2="41.5" y2="-34"/>
		<line class="st2" x1="41.5" y1="-38" x2="41.5" y2="-38"/>
		<line class="st2" x1="38.3" y1="-39.8" x2="38.3" y2="-39.8"/>
		<line class="st2" x1="34.8" y1="-39.8" x2="34.8" y2="-39.8"/>
		<line class="st2" x1="41.3" y1="-43.3" x2="41.3" y2="-43.3"/>
		<line class="st2" x1="44.3" y1="-40.5" x2="44.3" y2="-40.5"/>
		<line class="st2" x1="47.3" y1="-40" x2="47.3" y2="-40"/>
		<line class="st2" x1="44.8" y1="-36" x2="44.8" y2="-36"/>
		<line class="st2" x1="45.8" y1="-32.3" x2="45.8" y2="-32.3"/>
		<line class="st2" x1="42.8" y1="-30" x2="42.8" y2="-30"/>
		<line class="st2" x1="46" y1="-28.5" x2="46" y2="-28.5"/>
		<line class="st2" x1="49" y1="-24.3" x2="49" y2="-24.3"/>
		<line class="st2" x1="44" y1="-25.3" x2="44" y2="-25.3"/>
		<line class="st2" x1="49.8" y1="-28.3" x2="49.8" y2="-28.3"/>
		<line class="st2" x1="49.5" y1="-32.8" x2="49.5" y2="-32.8"/>
		<line class="st2" x1="48.8" y1="-36.3" x2="48.8" y2="-36.3"/>
		<line class="st2" x1="44.3" y1="-40.5" x2="44.3" y2="-40.5"/>
		<line class="st2" x1="47.3" y1="-40" x2="47.3" y2="-40"/>
		<line class="st2" x1="45" y1="-43.8" x2="45" y2="-43.8"/>
		<line class="st2" x1="44.5" y1="-47.8" x2="44.5" y2="-47.8"/>
		<line class="st2" x1="48.3" y1="-47.5" x2="48.3" y2="-47.5"/>
		<line class="st2" x1="49" y1="-43" x2="49" y2="-43"/>
		<line class="st2" x1="51.3" y1="-39.8" x2="51.3" y2="-39.8"/>
		<line class="st2" x1="54.3" y1="-37.3" x2="54.3" y2="-37.3"/>
		<line class="st2" x1="53.8" y1="-33.5" x2="53.8" y2="-33.5"/>
		<line class="st2" x1="53" y1="-29.8" x2="53" y2="-29.8"/>
		<line class="st2" x1="55" y1="-26.3" x2="55" y2="-26.3"/>
		<line class="st2" x1="58" y1="-29.3" x2="58" y2="-29.3"/>
		<line class="st2" x1="58" y1="-24.8" x2="58" y2="-24.8"/>
		<line class="st2" x1="57.8" y1="-34" x2="57.8" y2="-34"/>
		<line class="st2" x1="59" y1="-37" x2="59" y2="-37"/>
		<line class="st2" x1="55.8" y1="-41" x2="55.8" y2="-41"/>
		<line class="st2" x1="54" y1="-43.5" x2="54" y2="-43.5"/>
		<line class="st2" x1="52" y1="-45.8" x2="52" y2="-45.8"/>
		<line class="st2" x1="55.3" y1="-47.8" x2="55.3" y2="-47.8"/>
		<line class="st2" x1="54.3" y1="-51.8" x2="54.3" y2="-51.8"/>
		<line class="st2" x1="59" y1="-49" x2="59" y2="-49"/>
		<line class="st2" x1="57.8" y1="-44.8" x2="57.8" y2="-44.8"/>
		<line class="st2" x1="59.8" y1="-41.5" x2="59.8" y2="-41.5"/>
		<line class="st2" x1="63" y1="-39" x2="63" y2="-39"/>
		<line class="st2" x1="62.8" y1="-35" x2="62.8" y2="-35"/>
		<line class="st2" x1="61.8" y1="-31" x2="61.8" y2="-31"/>
		<line class="st2" x1="65.5" y1="-31.8" x2="65.5" y2="-31.8"/>
		<line class="st2" x1="65.3" y1="-27.3" x2="65.3" y2="-27.3"/>
		<line class="st2" x1="68" y1="-24.3" x2="68" y2="-24.3"/>
		<line class="st2" x1="68.8" y1="-29" x2="68.8" y2="-29"/>
		<line class="st2" x1="68.8" y1="-32.8" x2="68.8" y2="-32.8"/>
		<line class="st2" x1="67.8" y1="-36.8" x2="67.8" y2="-36.8"/>
		<line class="st2" x1="38.5" y1="-31.8" x2="38.5" y2="-31.8"/>
		<line class="st2" x1="81.5" y1="-42.5" x2="81.5" y2="-42.5"/>
		<line class="st2" x1="82.5" y1="-46.8" x2="82.5" y2="-46.8"/>
		<line class="st2" x1="79.3" y1="-48.5" x2="79.3" y2="-48.5"/>
		<line class="st2" x1="79.5" y1="-39.3" x2="79.5" y2="-39.3"/>
		<line class="st2" x1="79.3" y1="-35.5" x2="79.3" y2="-35.5"/>
		<line class="st2" x1="82.8" y1="-36.8" x2="82.8" y2="-36.8"/>
		<line class="st2" x1="82" y1="-32.8" x2="82" y2="-32.8"/>
		<line class="st2" x1="81.3" y1="-25.3" x2="81.3" y2="-25.3"/>
		<line class="st2" x1="80.3" y1="-28.8" x2="80.3" y2="-28.8"/>
		<line class="st2" x1="77.8" y1="-44.8" x2="77.8" y2="-44.8"/>
		<line class="st2" x1="74.3" y1="-44.5" x2="74.3" y2="-44.5"/>
		<line class="st2" x1="75.3" y1="-49.3" x2="75.3" y2="-49.3"/>
		<line class="st2" x1="71.8" y1="-47.8" x2="71.8" y2="-47.8"/>
		<line class="st2" x1="68" y1="-48.8" x2="68" y2="-48.8"/>
		<line class="st2" x1="64.5" y1="-47" x2="64.5" y2="-47"/>
		<line class="st2" x1="61.5" y1="-46" x2="61.5" y2="-46"/>
		<line class="st2" x1="63.8" y1="-42.3" x2="63.8" y2="-42.3"/>
		<line class="st2" x1="68" y1="-44.8" x2="68" y2="-44.8"/>
		<line class="st2" x1="71" y1="-41.8" x2="71" y2="-41.8"/>
		<line class="st2" x1="67.3" y1="-40.3" x2="67.3" y2="-40.3"/>
		<line class="st2" x1="71.3" y1="-37.5" x2="71.3" y2="-37.5"/>
		<line class="st2" x1="75.8" y1="-41" x2="75.8" y2="-41"/>
		<line class="st2" x1="75.5" y1="-37.8" x2="75.5" y2="-37.8"/>
		<line class="st2" x1="72.8" y1="-33.5" x2="72.8" y2="-33.5"/>
		<line class="st2" x1="74" y1="-29.5" x2="74" y2="-29.5"/>
		<line class="st2" x1="68.8" y1="-29" x2="68.8" y2="-29"/>
		<line class="st2" x1="71.5" y1="-26.8" x2="71.5" y2="-26.8"/>
		<line class="st2" x1="77" y1="-26.5" x2="77" y2="-26.5"/>
		<line class="st2" x1="76.8" y1="-32.3" x2="76.8" y2="-32.3"/>
		<line class="st2" x1="61.3" y1="-26.8" x2="61.3" y2="-26.8"/>
		<line class="st2" x1="73" y1="-23" x2="73" y2="-23"/>
		<line class="st2" x1="18" y1="-17" x2="18" y2="-17"/>
		<line class="st2" x1="19" y1="-21.5" x2="19" y2="-21.5"/>
		<line class="st2" x1="22.3" y1="-22.8" x2="22.3" y2="-22.8"/>
		<line class="st2" x1="21.3" y1="-18.8" x2="21.3" y2="-18.8"/>
		<line class="st2" x1="24.8" y1="-16.8" x2="24.8" y2="-16.8"/>
		<line class="st2" x1="24.8" y1="-12.8" x2="24.8" y2="-12.8"/>
		<line class="st2" x1="20.8" y1="-14.5" x2="20.8" y2="-14.5"/>
		<line class="st2" x1="28.3" y1="-15.8" x2="28.3" y2="-15.8"/>
		<line class="st2" x1="28.5" y1="-12.8" x2="28.5" y2="-12.8"/>
		<line class="st2" x1="30.3" y1="-19" x2="30.3" y2="-19"/>
		<line class="st2" x1="33.3" y1="-21.3" x2="33.3" y2="-21.3"/>
		<line class="st2" x1="30.3" y1="-19" x2="30.3" y2="-19"/>
		<line class="st2" x1="33.5" y1="-17.5" x2="33.5" y2="-17.5"/>
		<line class="st2" x1="36.5" y1="-13.3" x2="36.5" y2="-13.3"/>
		<line class="st2" x1="31.5" y1="-14.3" x2="31.5" y2="-14.3"/>
		<line class="st2" x1="37.3" y1="-16.3" x2="37.3" y2="-16.3"/>
		<line class="st2" x1="37" y1="-20.8" x2="37" y2="-20.8"/>
		<line class="st2" x1="41.3" y1="-22.5" x2="41.3" y2="-22.5"/>
		<line class="st2" x1="40.5" y1="-19.5" x2="40.5" y2="-19.5"/>
		<line class="st2" x1="41.8" y1="-15.8" x2="41.8" y2="-15.8"/>
		<line class="st2" x1="45.5" y1="-18.3" x2="45.5" y2="-18.3"/>
		<line class="st2" x1="45.3" y1="-12.8" x2="45.3" y2="-12.8"/>
		<line class="st2" x1="45.8" y1="-21.8" x2="45.8" y2="-21.8"/>
		<line class="st2" x1="49.3" y1="-20" x2="49.3" y2="-20"/>
		<line class="st2" x1="26" y1="-20.8" x2="26" y2="-20.8"/>
		<line class="st2" x1="48.3" y1="-16" x2="48.3" y2="-16"/>
		<line class="st2" x1="12" y1="-9.3" x2="12" y2="-9.3"/>
		<line class="st2" x1="14.8" y1="-10.5" x2="14.8" y2="-10.5"/>
		<line class="st2" x1="13.8" y1="-6.5" x2="13.8" y2="-6.5"/>
		<line class="st2" x1="22.8" y1="-6.8" x2="22.8" y2="-6.8"/>
		<line class="st2" x1="21.5" y1="-10.8" x2="21.5" y2="-10.8"/>
		<line class="st2" x1="25.8" y1="-9" x2="25.8" y2="-9"/>
		<line class="st2" x1="22.8" y1="-6.8" x2="22.8" y2="-6.8"/>
		<line class="st2" x1="29.5" y1="-9.5" x2="29.5" y2="-9.5"/>
		<line class="st2" x1="33.8" y1="-10.3" x2="33.8" y2="-10.3"/>
		<line class="st2" x1="33" y1="-7.3" x2="33" y2="-7.3"/>
		<line class="st2" x1="38" y1="-6" x2="38" y2="-6"/>
		<line class="st2" x1="38.3" y1="-9.5" x2="38.3" y2="-9.5"/>
		<line class="st2" x1="42.3" y1="-7" x2="42.3" y2="-7"/>
		<line class="st2" x1="45.5" y1="-8.5" x2="45.5" y2="-8.5"/>
		<line class="st2" x1="18.5" y1="-8.5" x2="18.5" y2="-8.5"/>
		<line class="st2" x1="52.8" y1="-23.5" x2="52.8" y2="-23.5"/>
		<line class="st2" x1="55.3" y1="-17.3" x2="55.3" y2="-17.3"/>
		<line class="st2" x1="55.8" y1="-21.3" x2="55.8" y2="-21.3"/>
		<line class="st2" x1="60.5" y1="-22.3" x2="60.5" y2="-22.3"/>
		<line class="st2" x1="61.3" y1="-17.5" x2="61.3" y2="-17.5"/>
		<line class="st2" x1="58.3" y1="-14.8" x2="58.3" y2="-14.8"/>
		<line class="st2" x1="55" y1="-13" x2="55" y2="-13"/>
		<line class="st2" x1="55.3" y1="-17.3" x2="55.3" y2="-17.3"/>
		<line class="st2" x1="53" y1="-9.8" x2="53" y2="-9.8"/>
		<line class="st2" x1="57.8" y1="-10" x2="57.8" y2="-10"/>
		<line class="st2" x1="61.3" y1="-8.8" x2="61.3" y2="-8.8"/>
		<line class="st2" x1="61.5" y1="-13.3" x2="61.5" y2="-13.3"/>
		<line class="st2" x1="11.5" y1="-18.5" x2="11.5" y2="-18.5"/>
		<line class="st2" x1="14.5" y1="-14.8" x2="14.5" y2="-14.8"/>
		<line class="st2" x1="15" y1="-19.5" x2="15" y2="-19.5"/>
		<line class="st2" x1="81.3" y1="-6.8" x2="81.3" y2="-6.8"/>
		<line class="st2" x1="78" y1="-8.3" x2="78" y2="-8.3"/>
		<line class="st2" x1="84" y1="-9.3" x2="84" y2="-9.3"/>
		<line class="st2" x1="80.8" y1="-22" x2="80.8" y2="-22"/>
		<line class="st2" x1="80.5" y1="-16.8" x2="80.5" y2="-16.8"/>
		<line class="st2" x1="80.8" y1="-22" x2="80.8" y2="-22"/>
		<line class="st2" x1="82.3" y1="-13" x2="82.3" y2="-13"/>
		<line class="st2" x1="50.5" y1="-12.5" x2="50.5" y2="-12.5"/>
		<line class="st2" x1="49" y1="-9.5" x2="49" y2="-9.5"/>
		<line class="st2" x1="64.3" y1="-15.3" x2="64.3" y2="-15.3"/>
		<line class="st2" x1="67.3" y1="-14.8" x2="67.3" y2="-14.8"/>
		<line class="st2" x1="64.8" y1="-10.8" x2="64.8" y2="-10.8"/>
		<line class="st2" x1="68.8" y1="-11" x2="68.8" y2="-11"/>
		<line class="st2" x1="64.3" y1="-15.3" x2="64.3" y2="-15.3"/>
		<line class="st2" x1="67.3" y1="-14.8" x2="67.3" y2="-14.8"/>
		<line class="st2" x1="65" y1="-19.3" x2="65" y2="-19.3"/>
		<line class="st2" x1="69" y1="-17.8" x2="69" y2="-17.8"/>
		<line class="st2" x1="71.3" y1="-14.5" x2="71.3" y2="-14.5"/>
		<line class="st2" x1="73.3" y1="-12.3" x2="73.3" y2="-12.3"/>
		<line class="st2" x1="73.8" y1="-8.3" x2="73.8" y2="-8.3"/>
		<line class="st2" x1="75.8" y1="-15.8" x2="75.8" y2="-15.8"/>
		<line class="st2" x1="74" y1="-18.3" x2="74" y2="-18.3"/>
		<line class="st2" x1="69.8" y1="-21.3" x2="69.8" y2="-21.3"/>
		<line class="st2" x1="77.8" y1="-19.5" x2="77.8" y2="-19.5"/>
		<line class="st2" x1="78" y1="-12.3" x2="78" y2="-12.3"/>
		<line class="st2" x1="64.8" y1="-22.8" x2="64.8" y2="-22.8"/>
		<line class="st2" x1="69.5" y1="-7.5" x2="69.5" y2="-7.5"/>
		<line class="st2" x1="75.5" y1="-5.5" x2="75.5" y2="-5.5"/>
		<line class="st2" x1="76.5" y1="-23" x2="76.5" y2="-23"/>
		<line class="st2" x1="20.8" y1="-49.5" x2="20.8" y2="-49.5"/>
		<line class="st2" x1="17" y1="-13" x2="17" y2="-13"/>
		<line class="st2" x1="41.5" y1="-12" x2="41.5" y2="-12"/>
		<line class="st2" x1="51.8" y1="-17.5" x2="51.8" y2="-17.5"/>
		<line class="st2" x1="58.5" y1="-19" x2="58.5" y2="-19"/>
		<line class="st2" x1="52.3" y1="-3" x2="52.3" y2="-3"/>
		<line class="st2" x1="52.3" y1="-75" x2="52.3" y2="-75"/>
		<line class="st2" x1="79" y1="-75.3" x2="79" y2="-75.3"/>
		<line class="st2" x1="66.3" y1="-74.3" x2="66.3" y2="-74.3"/>
		<line class="st2" x1="22.8" y1="-1.8" x2="22.8" y2="-1.8"/>
		<line class="st2" x1="32.5" y1="-2" x2="32.5" y2="-2"/>
		<line class="st2" x1="28.3" y1="-1.3" x2="28.3" y2="-1.3"/>
		<line class="st2" x1="39" y1="-1.3" x2="39" y2="-1.3"/>
		<line class="st2" x1="66.3" y1="-2.3" x2="66.3" y2="-2.3"/>
		<line class="st2" x1="19" y1="-1.8" x2="19" y2="-1.8"/>
		<line class="st2" x1="66.3" y1="-2.3" x2="66.3" y2="-2.3"/>
		<line class="st2" x1="83.8" y1="-65.5" x2="83.8" y2="-65.5"/>
		<line class="st2" x1="84" y1="-62.3" x2="84" y2="-62.3"/>
		<line class="st2" x1="84.3" y1="-55" x2="84.3" y2="-55"/>
		<line class="st2" x1="83.5" y1="-51.8" x2="83.5" y2="-51.8"/>
		<line class="st2" x1="84" y1="-3.8" x2="84" y2="-3.8"/>
		<line class="st2" x1="10" y1="-72.5" x2="10" y2="-72.5"/>
		<line class="st2" x1="12.5" y1="-22.5" x2="12.5" y2="-22.5"/>
		<line class="st2" x1="12" y1="-75.8" x2="12" y2="-75.8"/>
		<line class="st2" x1="84.5" y1="-29.3" x2="84.5" y2="-29.3"/>
		<line class="st2" x1="83.5" y1="-18.5" x2="83.5" y2="-18.5"/>
		<line class="st2" x1="84.5" y1="-22.5" x2="84.5" y2="-22.5"/>
		<line class="st2" x1="57.5" y1="-4" x2="57.5" y2="-4"/>
		<line class="st2" x1="51.8" y1="-6.5" x2="51.8" y2="-6.5"/>
		<line class="st2" x1="10.3" y1="-13" x2="10.3" y2="-13"/>
		
	</g>
</pattern>
<g class="st3">
	
	<pattern id="SVGID_1_" xlink:href="#USGS_20_Scrub" patternTransform="matrix(1 0 0 1 0 144.4111)">
	</pattern>
	
</g>














<g>
	<g class="st6">
		<path class="st7" d="M1109.9,433.3c-9.7,0-19.2-2-28.3-5.9c-9-3.9-17-9.2-24-15.8c-7-6.6-12.7-14.4-16.9-23.2    c-4.3-8.9-6.4-18.6-6.4-28.7c0-10.2,2.2-20,6.4-29c4.2-8.9,9.9-16.7,16.9-23.3c7-6.5,15.1-11.8,24.2-15.7    c9.2-3.9,18.9-5.9,28.8-5.9c9.9,0,19.6,1.9,28.7,5.8c9.1,3.8,17.2,9,24.1,15.5c7,6.5,12.6,14.3,16.8,23.1c4.3,9,6.4,18.7,6.4,28.9    c0,10.3-2.2,20.2-6.4,29.3c-4.2,9-9.9,16.8-16.9,23.4c-7,6.5-15.2,11.8-24.4,15.7C1129.8,431.3,1120,433.3,1109.9,433.3z     M1109,336.9c-3,0-5.8,0.6-8.6,1.9c-2.9,1.3-5.4,3.1-7.6,5.3c-2.2,2.2-3.9,4.7-5.2,7.5c-1.2,2.7-1.8,5.6-1.8,8.7    c0,2.7,0.6,5.2,2,7.5c1.5,2.6,3.4,5,5.6,7c2.2,2,4.8,3.6,7.7,4.8c2.8,1.1,5.7,1.7,8.5,1.7c2.8,0,5.5-0.6,8.2-1.7    c2.8-1.2,5.1-2.7,7.2-4.8c2.1-2.1,3.9-4.5,5.2-7.2c1.2-2.6,1.8-5.2,1.8-8c0-2.9-0.6-5.6-1.8-8.4c-1.2-2.8-3-5.3-5.1-7.4    c-2.2-2.1-4.7-3.9-7.5-5.1C1114.9,337.5,1112.1,336.9,1109,336.9z"/>
		<path class="st7" d="M1108.9,432.3c-9.7,0-19.2-2-28.3-5.9c-9-3.9-17-9.2-24-15.8c-7-6.6-12.7-14.4-16.9-23.2    c-4.3-8.9-6.4-18.6-6.4-28.7c0-10.2,2.2-20,6.4-29c4.2-8.9,9.9-16.7,16.9-23.3c7-6.5,15.1-11.8,24.2-15.7    c9.2-3.9,18.9-5.9,28.8-5.9c9.9,0,19.6,1.9,28.7,5.8c9.1,3.8,17.2,9,24.1,15.5c7,6.5,12.6,14.3,16.8,23.1c4.3,9,6.4,18.7,6.4,28.9    c0,10.3-2.2,20.2-6.4,29.3c-4.2,9-9.9,16.8-16.9,23.4c-7,6.5-15.2,11.8-24.4,15.7C1128.8,430.3,1119,432.3,1108.9,432.3z     M1108,335.9c-3,0-5.8,0.6-8.6,1.9c-2.9,1.3-5.4,3.1-7.6,5.3c-2.2,2.2-3.9,4.7-5.2,7.5c-1.2,2.7-1.8,5.6-1.8,8.7    c0,2.7,0.6,5.2,2,7.5c1.5,2.6,3.4,5,5.6,7c2.2,2,4.8,3.6,7.7,4.8c2.8,1.1,5.7,1.7,8.5,1.7c2.8,0,5.5-0.6,8.2-1.7    c2.8-1.2,5.1-2.7,7.2-4.8c2.1-2.1,3.9-4.5,5.2-7.2c1.2-2.6,1.8-5.2,1.8-8c0-2.9-0.6-5.6-1.8-8.4c-1.2-2.8-3-5.3-5.1-7.4    c-2.2-2.1-4.7-3.9-7.5-5.1C1113.9,336.5,1111.1,335.9,1108,335.9z"/>
		<path class="st7" d="M1107.9,431.3c-9.7,0-19.2-2-28.3-5.9c-9-3.9-17-9.2-24-15.8c-7-6.6-12.7-14.4-16.9-23.2    c-4.3-8.9-6.4-18.6-6.4-28.7c0-10.2,2.2-20,6.4-29c4.2-8.9,9.9-16.7,16.9-23.3c7-6.5,15.1-11.8,24.2-15.7    c9.2-3.9,18.9-5.9,28.8-5.9c9.9,0,19.6,1.9,28.7,5.8c9.1,3.8,17.2,9,24.1,15.5c7,6.5,12.6,14.3,16.8,23.1c4.3,9,6.4,18.7,6.4,28.9    c0,10.3-2.2,20.2-6.4,29.3c-4.2,9-9.9,16.8-16.9,23.4c-7,6.5-15.2,11.8-24.4,15.7C1127.8,429.3,1118,431.3,1107.9,431.3z     M1107,334.9c-3,0-5.8,0.6-8.6,1.9c-2.9,1.3-5.4,3.1-7.6,5.3c-2.2,2.2-3.9,4.7-5.2,7.5c-1.2,2.7-1.8,5.6-1.8,8.7    c0,2.7,0.6,5.2,2,7.5c1.5,2.6,3.4,5,5.6,7c2.2,2,4.8,3.6,7.7,4.8c2.8,1.1,5.7,1.7,8.5,1.7c2.8,0,5.5-0.6,8.2-1.7    c2.8-1.2,5.1-2.7,7.2-4.8c2.1-2.1,3.9-4.5,5.2-7.2c1.2-2.6,1.8-5.2,1.8-8c0-2.9-0.6-5.6-1.8-8.4c-1.2-2.8-3-5.3-5.1-7.4    c-2.2-2.1-4.7-3.9-7.5-5.1C1112.9,335.5,1110.1,334.9,1107,334.9z"/>
		<path class="st7" d="M1106.9,430.3c-9.7,0-19.2-2-28.3-5.9c-9-3.9-17-9.2-24-15.8c-7-6.6-12.7-14.4-16.9-23.2    c-4.3-8.9-6.4-18.6-6.4-28.7c0-10.2,2.2-20,6.4-29c4.2-8.9,9.9-16.7,16.9-23.3c7-6.5,15.1-11.8,24.2-15.7    c9.2-3.9,18.9-5.9,28.8-5.9c9.9,0,19.6,1.9,28.7,5.8c9.1,3.8,17.2,9,24.1,15.5c7,6.5,12.6,14.3,16.8,23.1c4.3,9,6.4,18.7,6.4,28.9    c0,10.3-2.2,20.2-6.4,29.3c-4.2,9-9.9,16.8-16.9,23.4c-7,6.5-15.2,11.8-24.4,15.7C1126.8,428.3,1117,430.3,1106.9,430.3z     M1106,333.9c-3,0-5.8,0.6-8.6,1.9c-2.9,1.3-5.4,3.1-7.6,5.3c-2.2,2.2-3.9,4.7-5.2,7.5c-1.2,2.7-1.8,5.6-1.8,8.7    c0,2.7,0.6,5.2,2,7.5c1.5,2.6,3.4,5,5.6,7c2.2,2,4.8,3.6,7.7,4.8c2.8,1.1,5.7,1.7,8.5,1.7c2.8,0,5.5-0.6,8.2-1.7    c2.8-1.2,5.1-2.7,7.2-4.8c2.1-2.1,3.9-4.5,5.2-7.2c1.2-2.6,1.8-5.2,1.8-8c0-2.9-0.6-5.6-1.8-8.4c-1.2-2.8-3-5.3-5.1-7.4    c-2.2-2.1-4.7-3.9-7.5-5.1C1111.9,334.5,1109.1,333.9,1106,333.9z"/>
		<path class="st7" d="M1105.9,429.3c-9.7,0-19.2-2-28.3-5.9c-9-3.9-17-9.2-24-15.8c-7-6.6-12.7-14.4-16.9-23.2    c-4.3-8.9-6.4-18.6-6.4-28.7c0-10.2,2.2-20,6.4-29c4.2-8.9,9.9-16.7,16.9-23.3c7-6.5,15.1-11.8,24.2-15.7    c9.2-3.9,18.9-5.9,28.8-5.9c9.9,0,19.6,1.9,28.7,5.8c9.1,3.8,17.2,9,24.1,15.5c7,6.5,12.6,14.3,16.8,23.1c4.3,9,6.4,18.7,6.4,28.9    c0,10.3-2.2,20.2-6.4,29.3c-4.2,9-9.9,16.8-16.9,23.4c-7,6.5-15.2,11.8-24.4,15.7C1125.8,427.3,1116,429.3,1105.9,429.3z     M1105,332.9c-3,0-5.8,0.6-8.6,1.9c-2.9,1.3-5.4,3.1-7.6,5.3c-2.2,2.2-3.9,4.7-5.2,7.5c-1.2,2.7-1.8,5.6-1.8,8.7    c0,2.7,0.6,5.2,2,7.5c1.5,2.6,3.4,5,5.6,7c2.2,2,4.8,3.6,7.7,4.8c2.8,1.1,5.7,1.7,8.5,1.7c2.8,0,5.5-0.6,8.2-1.7    c2.8-1.2,5.1-2.7,7.2-4.8c2.1-2.1,3.9-4.5,5.2-7.2c1.2-2.6,1.8-5.2,1.8-8c0-2.9-0.6-5.6-1.8-8.4c-1.2-2.8-3-5.3-5.1-7.4    c-2.2-2.1-4.7-3.9-7.5-5.1C1110.9,333.5,1108.1,332.9,1105,332.9z"/>
		<path class="st7" d="M1104.9,428.3c-9.7,0-19.2-2-28.3-5.9c-9-3.9-17-9.2-24-15.8c-7-6.6-12.7-14.4-16.9-23.2    c-4.3-8.9-6.4-18.6-6.4-28.7c0-10.2,2.2-20,6.4-29c4.2-8.9,9.9-16.7,16.9-23.3c7-6.5,15.1-11.8,24.2-15.7    c9.2-3.9,18.9-5.9,28.8-5.9c9.9,0,19.6,1.9,28.7,5.8c9.1,3.8,17.2,9,24.1,15.5c7,6.5,12.6,14.3,16.8,23.1c4.3,9,6.4,18.7,6.4,28.9    c0,10.3-2.2,20.2-6.4,29.3c-4.2,9-9.9,16.8-16.9,23.4c-7,6.5-15.2,11.8-24.4,15.7C1124.8,426.3,1115,428.3,1104.9,428.3z     M1104,331.9c-3,0-5.8,0.6-8.6,1.9c-2.9,1.3-5.4,3.1-7.6,5.3c-2.2,2.2-3.9,4.7-5.2,7.5c-1.2,2.7-1.8,5.6-1.8,8.7    c0,2.7,0.6,5.2,2,7.5c1.5,2.6,3.4,5,5.6,7c2.2,2,4.8,3.6,7.7,4.8c2.8,1.1,5.7,1.7,8.5,1.7c2.8,0,5.5-0.6,8.2-1.7    c2.8-1.2,5.1-2.7,7.2-4.8c2.1-2.1,3.9-4.5,5.2-7.2c1.2-2.6,1.8-5.2,1.8-8c0-2.9-0.6-5.6-1.8-8.4c-1.2-2.8-3-5.3-5.1-7.4    c-2.2-2.1-4.7-3.9-7.5-5.1C1109.9,332.5,1107.1,331.9,1104,331.9z"/>
	</g>
	<path class="st8" d="M1104.9,429.3c-9.8,0-19.5-2-28.7-6c-9.1-3.9-17.2-9.3-24.3-15.9c-7.1-6.7-12.9-14.6-17.1-23.5   c-4.3-9.1-6.5-18.9-6.5-29.2c0-10.4,2.2-20.3,6.5-29.4c4.3-9,10-16.9,17.1-23.6c7.1-6.6,15.3-11.9,24.5-15.8c9.3-4,19.1-6,29.2-6   c10,0,19.8,2,29.1,5.9c9.2,3.9,17.4,9.1,24.4,15.7c7,6.6,12.8,14.5,17,23.4c4.3,9.1,6.5,19,6.5,29.4c0,10.5-2.2,20.5-6.5,29.7   c-4.3,9.1-10,17-17.2,23.7c-7.1,6.6-15.4,11.9-24.7,15.9C1125,427.3,1115.1,429.3,1104.9,429.3z M1104,332.9   c-2.9,0-5.5,0.6-8.2,1.8c-2.8,1.3-5.2,3-7.3,5.1c-2.1,2.1-3.8,4.5-5,7.2c-1.2,2.6-1.7,5.3-1.7,8.3c0,2.5,0.6,4.9,1.8,7.1   c1.4,2.5,3.2,4.8,5.4,6.7c2.2,1.9,4.7,3.5,7.5,4.6c2.7,1.1,5.4,1.6,8.1,1.6c2.7,0,5.3-0.5,7.8-1.6c2.6-1.1,4.9-2.6,6.9-4.6   c2.1-2,3.7-4.3,5-7c1.2-2.4,1.7-4.9,1.7-7.6c0-2.8-0.6-5.4-1.7-8c-1.2-2.7-2.8-5-4.9-7.1c-2.1-2.1-4.5-3.7-7.3-4.9   C1109.6,333.5,1106.9,332.9,1104,332.9z"/>
	<path class="st9" d="M1104.9,427.3c-9.5,0-18.9-2-27.9-5.8c-8.9-3.8-16.8-9.1-23.7-15.6c-6.9-6.5-12.5-14.3-16.7-22.9   c-4.2-8.8-6.4-18.3-6.4-28.3c0-10.1,2.1-19.7,6.3-28.6c4.2-8.8,9.8-16.5,16.7-23c6.9-6.4,14.9-11.7,23.9-15.5   c9.1-3.9,18.6-5.8,28.4-5.8c9.8,0,19.3,1.9,28.4,5.7c9,3.8,17,8.9,23.9,15.3c6.9,6.4,12.5,14.1,16.6,22.8   c4.2,8.8,6.4,18.4,6.4,28.5c0,10.2-2.1,19.9-6.3,28.8c-4.2,8.8-9.8,16.6-16.7,23.1c-6.9,6.4-15,11.7-24.1,15.5   C1124.5,425.3,1114.8,427.3,1104.9,427.3z M1104,330.9c-3.2,0-6.1,0.6-9,2c-3,1.4-5.7,3.2-7.9,5.5c-2.3,2.3-4.1,4.9-5.4,7.8   c-1.3,2.9-1.9,5.9-1.9,9.1c0,2.9,0.7,5.5,2.1,8c1.5,2.7,3.5,5.2,5.8,7.3c2.3,2.1,5,3.7,8,5c2.9,1.2,5.9,1.8,8.8,1.8   c2.9,0,5.8-0.6,8.6-1.8c2.8-1.2,5.4-2.9,7.6-5c2.2-2.2,4-4.7,5.4-7.5c1.3-2.7,1.9-5.5,1.9-8.5c0-3-0.6-5.9-1.9-8.8   c-1.3-2.9-3.1-5.5-5.3-7.7c-2.3-2.2-4.9-4-7.8-5.3C1110.1,331.6,1107.2,330.9,1104,330.9z"/>
	<path class="st10" d="M1106.9,425.3c-9,0-17.8-1.8-26.3-5.5c-8.4-3.6-16-8.6-22.6-14.8c-6.6-6.2-11.9-13.5-15.8-21.8   c-4-8.3-6-17.2-6-26.6c0-9.5,2-18.5,6-26.9c3.9-8.3,9.3-15.6,15.8-21.8c6.6-6.1,14.2-11.1,22.7-14.7c8.6-3.6,17.6-5.5,26.8-5.5   c9.2,0,18.2,1.8,26.8,5.4c8.5,3.6,16.2,8.5,22.7,14.5c6.5,6.1,11.8,13.3,15.7,21.6c4,8.3,6,17.3,6,26.8c0,9.6-2,18.7-6,27.1   c-3.9,8.4-9.3,15.7-15.8,21.9c-6.5,6.1-14.3,11.1-22.9,14.7C1125.4,423.4,1116.3,425.3,1106.9,425.3z M1106,328.9   c-3.7,0-7.3,0.8-10.7,2.3c-3.4,1.6-6.5,3.7-9.1,6.3c-2.6,2.6-4.7,5.6-6.2,9c-1.5,3.3-2.3,7-2.3,10.8c0,3.5,0.9,6.9,2.6,10   c1.7,3.1,4,5.9,6.6,8.3c2.7,2.4,5.8,4.3,9.2,5.7c3.4,1.4,6.9,2.1,10.4,2.1c3.5,0,6.9-0.7,10.2-2.1c3.3-1.4,6.3-3.4,8.8-5.8   c2.6-2.5,4.6-5.4,6.2-8.6c1.5-3.2,2.3-6.6,2.3-10.2c0-3.6-0.8-7.1-2.3-10.4c-1.5-3.4-3.6-6.3-6.2-8.9c-2.6-2.5-5.6-4.6-9-6.1   C1113.3,329.7,1109.7,328.9,1106,328.9z"/>
	<path class="st11" d="M1102.9,421.3c-9,0-17.8-1.8-26.3-5.5c-8.4-3.6-16-8.6-22.6-14.8c-6.6-6.2-11.9-13.5-15.8-21.8   c-4-8.3-6-17.2-6-26.6c0-9.5,2-18.5,6-26.9c3.9-8.3,9.3-15.6,15.8-21.8c6.6-6.1,14.2-11.1,22.7-14.7c8.6-3.6,17.6-5.5,26.8-5.5   c9.2,0,18.2,1.8,26.8,5.4c8.5,3.6,16.2,8.5,22.7,14.5c6.5,6.1,11.8,13.3,15.7,21.6c4,8.3,6,17.3,6,26.8c0,9.6-2,18.7-6,27.1   c-3.9,8.4-9.3,15.7-15.8,21.9c-6.5,6.1-14.3,11.1-22.9,14.7C1121.4,419.4,1112.3,421.3,1102.9,421.3z M1102,324.9   c-3.7,0-7.3,0.8-10.7,2.3c-3.4,1.6-6.5,3.7-9.1,6.3c-2.6,2.6-4.7,5.6-6.2,9c-1.5,3.3-2.3,7-2.3,10.8c0,3.5,0.9,6.9,2.6,10   c1.7,3.1,4,5.9,6.6,8.3c2.7,2.4,5.8,4.3,9.2,5.7c3.4,1.4,6.9,2.1,10.4,2.1c3.5,0,6.9-0.7,10.2-2.1c3.3-1.4,6.3-3.4,8.8-5.8   c2.6-2.5,4.6-5.4,6.2-8.6c1.5-3.2,2.3-6.6,2.3-10.2c0-3.6-0.8-7.1-2.3-10.4c-1.5-3.4-3.6-6.3-6.2-8.9c-2.6-2.5-5.6-4.6-9-6.1   C1109.3,325.7,1105.7,324.9,1102,324.9z"/>
	<path class="st12" d="M1175.8,354.1c0,9.5-2,18.4-5.9,26.7c-3.9,8.3-9.1,15.5-15.6,21.6c-6.5,6.1-14,10.9-22.6,14.5   c-8.6,3.6-17.5,5.4-26.8,5.4c-8.9,0-17.5-1.8-25.9-5.4c-8.4-3.6-15.8-8.5-22.3-14.6c-6.5-6.1-11.7-13.3-15.6-21.5   c-3.9-8.2-5.9-16.9-5.9-26.2c0-9.4,2-18.2,5.9-26.4c3.9-8.2,9.1-15.4,15.6-21.5c6.5-6.1,14-10.9,22.5-14.5   c8.5-3.6,17.3-5.4,26.4-5.4c9.1,0,17.9,1.8,26.4,5.3c8.5,3.5,15.9,8.3,22.4,14.3c6.4,6,11.6,13.1,15.5,21.3   C1173.9,335.9,1175.8,344.7,1175.8,354.1z M1104.6,382.4c3.6,0,7.1-0.7,10.6-2.2c3.4-1.4,6.5-3.5,9.1-6c2.6-2.6,4.8-5.6,6.4-8.9   c1.6-3.4,2.4-6.9,2.4-10.6c0-3.7-0.8-7.3-2.3-10.8c-1.6-3.5-3.7-6.6-6.4-9.2c-2.7-2.6-5.8-4.7-9.3-6.3c-3.5-1.6-7.2-2.3-11-2.3   c-3.9,0-7.5,0.8-11.1,2.4c-3.5,1.6-6.7,3.8-9.4,6.5c-2.7,2.7-4.8,5.8-6.4,9.3c-1.6,3.5-2.3,7.2-2.3,11.2c0,3.7,0.9,7.2,2.7,10.5   s4.1,6.1,6.9,8.6c2.8,2.5,5.9,4.4,9.5,5.9C1097.4,381.7,1101,382.4,1104.6,382.4z"/>
</g>














</svg>